<?xml version="1.0" encoding="UTF-8"?>
<svg xmlns="http://www.w3.org/2000/svg" xmlns:xlink="http://www.w3.org/1999/xlink" viewBox="0 0 48.89 43.32">
  <defs>
    <style>
      .cls-1 {
        fill: #200f3b;
      }

      .cls-2 {
        fill: url(#linear-gradient-7);
      }

      .cls-3 {
        fill: url(#linear-gradient-5);
      }

      .cls-4 {
        fill: url(#linear-gradient-6);
      }

      .cls-5 {
        fill: url(#linear-gradient-4);
      }

      .cls-6 {
        fill: url(#linear-gradient-3);
      }

      .cls-7 {
        fill: url(#linear-gradient-2);
      }

      .cls-8 {
        fill: #630506;
      }

      .cls-9 {
        fill: #183006;
      }

      .cls-10 {
        fill: #fff;
      }

      .cls-10, .cls-11, .cls-12, .cls-13, .cls-14, .cls-15, .cls-16, .cls-17, .cls-18, .cls-19, .cls-20, .cls-21, .cls-22, .cls-23, .cls-24, .cls-25, .cls-26, .cls-27, .cls-28, .cls-29 {
        mix-blend-mode: overlay;
      }

      .cls-30 {
        fill: url(#linear-gradient);
      }

      .cls-31 {
        isolation: isolate;
      }

      .cls-11 {
        fill: url(#linear-gradient-8);
      }

      .cls-12 {
        fill: url(#linear-gradient-9);
      }

      .cls-13 {
        fill: url(#linear-gradient-10);
      }

      .cls-14 {
        fill: url(#linear-gradient-11);
      }

      .cls-15 {
        fill: url(#linear-gradient-13);
      }

      .cls-16 {
        fill: url(#linear-gradient-22);
      }

      .cls-17 {
        fill: url(#linear-gradient-14);
      }

      .cls-18 {
        fill: url(#linear-gradient-30);
      }

      .cls-19 {
        fill: url(#linear-gradient-15);
      }

      .cls-20 {
        fill: url(#linear-gradient-16);
      }

      .cls-21 {
        fill: url(#linear-gradient-25);
      }

      .cls-22 {
        fill: url(#linear-gradient-24);
      }

      .cls-23 {
        fill: url(#linear-gradient-27);
      }

      .cls-24 {
        fill: url(#linear-gradient-34);
      }

      .cls-25 {
        fill: url(#linear-gradient-35);
      }

      .cls-26 {
        fill: url(#linear-gradient-36);
      }

      .cls-32 {
        fill: url(#linear-gradient-43);
      }

      .cls-33 {
        fill: url(#linear-gradient-40);
      }

      .cls-34 {
        fill: url(#linear-gradient-41);
      }

      .cls-35 {
        fill: url(#linear-gradient-42);
      }

      .cls-36 {
        fill: url(#linear-gradient-12);
      }

      .cls-37 {
        fill: url(#linear-gradient-19);
      }

      .cls-38 {
        fill: url(#linear-gradient-21);
      }

      .cls-39 {
        fill: url(#linear-gradient-20);
      }

      .cls-40 {
        fill: url(#linear-gradient-23);
      }

      .cls-41 {
        fill: url(#linear-gradient-28);
      }

      .cls-42 {
        fill: url(#linear-gradient-32);
      }

      .cls-43 {
        fill: url(#linear-gradient-31);
      }

      .cls-44 {
        fill: url(#linear-gradient-33);
      }

      .cls-45 {
        fill: url(#linear-gradient-17);
      }

      .cls-46 {
        fill: url(#linear-gradient-18);
      }

      .cls-47 {
        fill: url(#linear-gradient-38);
      }

      .cls-48 {
        fill: url(#linear-gradient-26);
      }

      .cls-49 {
        fill: url(#linear-gradient-29);
      }

      .cls-50 {
        fill: url(#linear-gradient-37);
      }

      .cls-51 {
        fill: url(#linear-gradient-39);
      }

      .cls-27 {
        opacity: .32;
      }

      .cls-28 {
        opacity: .62;
      }

      .cls-29 {
        opacity: .83;
      }
    </style>
    <linearGradient id="linear-gradient" x1="6.01" y1="36.61" x2="13.07" y2="24.16" gradientUnits="userSpaceOnUse">
      <stop offset="0" stop-color="#4e3c66"/>
      <stop offset=".03" stop-color="#4d3b64"/>
      <stop offset=".57" stop-color="#413255"/>
      <stop offset="1" stop-color="#3e3050"/>
    </linearGradient>
    <linearGradient id="linear-gradient-2" x1="2.99" y1="31.83" x2="9.07" y2="21.11" gradientUnits="userSpaceOnUse">
      <stop offset=".2" stop-color="#ffa478"/>
      <stop offset=".23" stop-color="#feb07b"/>
      <stop offset=".29" stop-color="#fcc781"/>
      <stop offset=".35" stop-color="#fad786"/>
      <stop offset=".42" stop-color="#fae089"/>
      <stop offset=".52" stop-color="#fae48a"/>
      <stop offset=".56" stop-color="#fad886"/>
      <stop offset=".65" stop-color="#fcc180"/>
      <stop offset=".75" stop-color="#fdb07b"/>
      <stop offset=".86" stop-color="#fea778"/>
      <stop offset="1" stop-color="#ffa478"/>
    </linearGradient>
    <linearGradient id="linear-gradient-3" x1="9.38" y1="38.28" x2="15.74" y2="27.07" xlink:href="#linear-gradient-2"/>
    <linearGradient id="linear-gradient-4" x1="131.95" y1="72.03" x2="139.01" y2="59.58" gradientTransform="translate(178.67 31.54) rotate(-155.53) scale(1 -1)" xlink:href="#linear-gradient"/>
    <linearGradient id="linear-gradient-5" x1="128.94" y1="67.25" x2="135.02" y2="56.53" gradientTransform="translate(178.67 31.54) rotate(-155.53) scale(1 -1)" xlink:href="#linear-gradient-2"/>
    <linearGradient id="linear-gradient-6" x1="135.32" y1="73.7" x2="141.68" y2="62.49" gradientTransform="translate(178.67 31.54) rotate(-155.53) scale(1 -1)" xlink:href="#linear-gradient-2"/>
    <linearGradient id="linear-gradient-7" x1="-3.98" y1=".39" x2="1.53" y2="6.74" gradientTransform="translate(6.96 2.96) rotate(-1.17)" gradientUnits="userSpaceOnUse">
      <stop offset="0" stop-color="#53bf0b"/>
      <stop offset="1" stop-color="#2c730e"/>
    </linearGradient>
    <linearGradient id="linear-gradient-8" x1="8.9" y1="5.08" x2="5.5" y2="-1.72" gradientTransform="translate(6.96 2.96) rotate(-1.17)" gradientUnits="userSpaceOnUse">
      <stop offset=".04" stop-color="#fff"/>
      <stop offset=".53" stop-color="#bfbfbf" stop-opacity="0"/>
    </linearGradient>
    <linearGradient id="linear-gradient-9" x1="-214.38" y1="-403.21" x2="-217.99" y2="-388.64" gradientTransform="translate(447.06 -100.95) rotate(-75.73)" xlink:href="#linear-gradient-8"/>
    <linearGradient id="linear-gradient-10" x1="-5.52" y1="6.16" x2="-5.38" y2="8.66" gradientTransform="translate(7.09 3.07)" xlink:href="#linear-gradient-8"/>
    <linearGradient id="linear-gradient-11" x1="-4.87" y1="6.12" x2="-4.72" y2="8.62" gradientTransform="translate(7.11 3.05)" xlink:href="#linear-gradient-8"/>
    <linearGradient id="linear-gradient-12" x1="3.88" y1="16.26" x2="9.39" y2="22.62" gradientTransform="translate(62.01 10.22) rotate(-138.67) scale(1 -1)" xlink:href="#linear-gradient-7"/>
    <linearGradient id="linear-gradient-13" x1="16.76" y1="20.96" x2="13.36" y2="14.16" gradientTransform="translate(62.01 10.22) rotate(-138.67) scale(1 -1)" xlink:href="#linear-gradient-8"/>
    <linearGradient id="linear-gradient-14" x1="-227.59" y1="-391.41" x2="-231.2" y2="-376.83" gradientTransform="translate(-207.3 -353.04) rotate(-64.1) scale(1 -1)" xlink:href="#linear-gradient-8"/>
    <linearGradient id="linear-gradient-15" x1="2.34" y1="22.03" x2="2.49" y2="24.54" gradientTransform="translate(67.76 27.61) rotate(-90) scale(1 -1)" xlink:href="#linear-gradient-8"/>
    <linearGradient id="linear-gradient-16" x1="3" y1="22" x2="3.14" y2="24.5" gradientTransform="translate(67.47 28.36) rotate(-90) scale(1 -1)" xlink:href="#linear-gradient-8"/>
    <linearGradient id="linear-gradient-17" x1=".91" y1=".1" x2="-9.29" y2="19.85" gradientTransform="translate(34.54 15.31) rotate(-5.84)" gradientUnits="userSpaceOnUse">
      <stop offset="0" stop-color="#ff3038"/>
      <stop offset="1" stop-color="#b3171a"/>
    </linearGradient>
    <linearGradient id="linear-gradient-18" x1="-1.47" y1="-.69" x2="-11.53" y2="18.79" xlink:href="#linear-gradient-17"/>
    <linearGradient id="linear-gradient-19" x1="-1.71" y1="-.86" x2="-11.77" y2="18.62" xlink:href="#linear-gradient-17"/>
    <linearGradient id="linear-gradient-20" x1="-16" y1="-8.44" x2="-26.1" y2="11.12" xlink:href="#linear-gradient-17"/>
    <linearGradient id="linear-gradient-21" x1="-8.32" y1="-4.43" x2="-18.39" y2="15.08" xlink:href="#linear-gradient-17"/>
    <linearGradient id="linear-gradient-22" x1="311.46" y1="260.06" x2="313.02" y2="257.3" gradientTransform="translate(-143.33 -344.93) rotate(26.64)" gradientUnits="userSpaceOnUse">
      <stop offset="0" stop-color="#fff"/>
      <stop offset="1" stop-color="#fff" stop-opacity="0"/>
    </linearGradient>
    <linearGradient id="linear-gradient-23" x1="-12.67" y1="-6.54" x2="-22.77" y2="13.01" xlink:href="#linear-gradient-17"/>
    <linearGradient id="linear-gradient-24" x1="301.44" y1="245.16" x2="297.58" y2="247.85" xlink:href="#linear-gradient-22"/>
    <linearGradient id="linear-gradient-25" x1="300.29" y1="251.15" x2="302.5" y2="253.43" xlink:href="#linear-gradient-22"/>
    <linearGradient id="linear-gradient-26" x1="301.73" y1="243.22" x2="318.58" y2="243.22" gradientTransform="translate(-143.33 -344.93) rotate(26.64)" xlink:href="#linear-gradient-17"/>
    <linearGradient id="linear-gradient-27" x1="303.95" y1="242.75" x2="305.55" y2="238.82" xlink:href="#linear-gradient-22"/>
    <linearGradient id="linear-gradient-28" x1="-13.86" y1="-7.14" x2="-24.07" y2="12.65" xlink:href="#linear-gradient-17"/>
    <linearGradient id="linear-gradient-29" x1="-4.75" y1="-2.4" x2="-15.01" y2="17.48" xlink:href="#linear-gradient-17"/>
    <linearGradient id="linear-gradient-30" x1="315.95" y1="248.13" x2="316.12" y2="243.19" xlink:href="#linear-gradient-22"/>
    <linearGradient id="linear-gradient-31" x1="-5.79" y1="-3.14" x2="-16.01" y2="16.66" xlink:href="#linear-gradient-17"/>
    <linearGradient id="linear-gradient-32" x1="-9.07" y1="-4.69" x2="-19.43" y2="15.36" xlink:href="#linear-gradient-17"/>
    <linearGradient id="linear-gradient-33" x1="-9.87" y1="-5.33" x2="-20.22" y2="14.72" xlink:href="#linear-gradient-17"/>
    <linearGradient id="linear-gradient-34" x1="312.22" y1="252.14" x2="313.78" y2="249.36" xlink:href="#linear-gradient-22"/>
    <linearGradient id="linear-gradient-35" x1="315.02" y1="247.3" x2="309.71" y2="249.31" xlink:href="#linear-gradient-22"/>
    <linearGradient id="linear-gradient-36" x1="304.56" y1="251.05" x2="309.55" y2="249.27" xlink:href="#linear-gradient-22"/>
    <linearGradient id="linear-gradient-37" x1="-10.71" y1="-5.52" x2="-21.36" y2="15.11" xlink:href="#linear-gradient-17"/>
    <linearGradient id="linear-gradient-38" x1="-8.7" y1="-4.47" x2="-19.12" y2="15.72" xlink:href="#linear-gradient-17"/>
    <linearGradient id="linear-gradient-39" x1="306.61" y1="243.41" x2="309.79" y2="243.41" gradientTransform="translate(-143.33 -344.93) rotate(26.64)" gradientUnits="userSpaceOnUse">
      <stop offset=".53" stop-color="#ff63f0"/>
      <stop offset="1" stop-color="#144efe"/>
    </linearGradient>
    <linearGradient id="linear-gradient-40" x1="-11.04" y1="-5.58" x2="-20.91" y2="13.54" xlink:href="#linear-gradient-17"/>
    <linearGradient id="linear-gradient-41" x1="308.42" y1="243.32" x2="311.54" y2="243.32" xlink:href="#linear-gradient-39"/>
    <linearGradient id="linear-gradient-42" x1="-9.53" y1="-4.8" x2="-20.34" y2="16.13" xlink:href="#linear-gradient-17"/>
    <linearGradient id="linear-gradient-43" x1="-10.52" y1="-5.27" x2="-23.56" y2="20" xlink:href="#linear-gradient-17"/>
  </defs>
  <g class="cls-31">
    <g id="Layer_2" data-name="Layer 2">
      <g id="Layer_1-2" data-name="Layer 1">
        <g>
          <g>
            <g>
              <path class="cls-30" d="M12.15,40.1s-.07,0-.1-.03c-.01,0-1.31-.71-3.01-2-1.57-1.2-3.83-3.17-5.62-5.75-.52-.75-.95-1.47-1.32-2.19-.02-.05-.03-.1-.01-.16,0,0,.05-.16.15-.47.24-.7.93-2.55,2.23-4.67,1.81-2.93,4.05-5.18,6.66-6.68,0,0,.02-.01.02-.01.71-.41,1.47-.77,2.31-1.09.02,0,.05-.01.08-.01.06,0,.12.03.16.08l3.01,3.6.26.32c.05.06.06.14.03.21-.04.12-4.48,11.85-4.65,18.65,0,.07-.04.14-.11.18-.03.02-.07.03-.11.03Z"/>
              <path class="cls-1" d="M13.53,17.25l2.55,3.05.46.55.26.32s-4.49,11.81-4.66,18.72c0,0-1.27-.69-2.98-1.98-1.72-1.31-3.86-3.23-5.58-5.7-.47-.68-.92-1.4-1.31-2.16,0,0,.05-.16.15-.46.27-.81.96-2.6,2.21-4.63,1.41-2.28,3.53-4.85,6.59-6.61.01-.01.02-.01.02-.01.71-.41,1.47-.77,2.28-1.08M13.53,16.82c-.05,0-.1,0-.15.03-.85.32-1.61.68-2.33,1.1-.01,0-.02.01-.03.02h0c-2.64,1.52-4.91,3.8-6.74,6.75-1.32,2.14-2.01,4.01-2.25,4.72-.11.31-.15.48-.15.48-.03.1-.02.21.03.31.37.73.81,1.46,1.34,2.22,1.81,2.61,4.08,4.59,5.67,5.8,1.71,1.3,2.98,1.99,3.03,2.02.06.03.13.05.2.05.07,0,.15-.02.21-.06.13-.07.21-.21.21-.36.17-6.76,4.59-18.46,4.63-18.58.05-.14.03-.3-.07-.42l-.26-.32-.46-.55-2.56-3.05c-.08-.1-.2-.15-.33-.15h0Z"/>
            </g>
            <path class="cls-7" d="M3.59,32.2c-.47-.68-.91-1.4-1.31-2.16,0,0,2.69-9.55,11.25-12.79-5.56,3.74-8.64,11.08-9.94,14.95Z"/>
            <path class="cls-6" d="M16.81,21.17s-4.49,11.81-4.66,18.71c0,0-1.27-.68-2.98-1.98.32-3.44,1.18-7.97,3.42-11.76,1.22-2.08,2.61-3.85,3.95-5.3l.27.33Z"/>
            <path class="cls-28" d="M16.81,21.17s-4.49,11.81-4.66,18.72c0,0-1.27-.69-2.98-1.98-1.72-1.31-3.86-3.23-5.58-5.7-.47-.68-.92-1.4-1.31-2.16,0,0,.05-.16.15-.46.25.52.77,1.42,1.74,2.69,1.68,2.19,6.46,5.82,7.19,1.87.73-3.94-1.47-8.54-4.63-9.36-.72-.18-1.43-.09-2.1.17,1.74-2.81,4.56-6.06,8.89-7.7l3.01,3.6.26.32Z"/>
            <path class="cls-10" d="M16.81,21.17s-4.49,11.81-4.66,18.72c0,0-1.27-.69-2.98-1.98-1.72-1.31-3.86-3.23-5.58-5.7-.47-.68-.92-1.4-1.31-2.16,0,0,.05-.16.15-.46.27-.81.96-2.6,2.21-4.63,1.41-2.28,3.53-4.85,6.59-6.61-2.08,2.06-4.64,4.72-5.93,6.59-2.38,3.46-2.73,5.31-2.73,5.31,0,0,1.51,2.7,4.26,5.27,2.76,2.55,4.78,3.48,4.78,3.48,0,0,.9-6.63,2.46-10.82,0,0-1.95,0-2.46-.68-.52-.69-.87-1.66-2.34-2.81-1.47-1.15-1.29-1.97-.97-2.29.31-.32,4.87-1.44,5.02-1.32.05.05,1.17-.44,2.77-.78l.46.55.26.32Z"/>
          </g>
          <g>
            <g>
              <path class="cls-5" d="M21.79,43.11c-.07,0-.13-.03-.17-.09-.04-.06-.05-.14-.02-.21,2.66-6.25,3.48-18.77,3.49-18.9,0-.08.05-.14.12-.18l1.02-.49,3.59-1.72s.06-.02.09-.02c.06,0,.11.02.15.06.63.64,1.17,1.28,1.65,1.95.02.02.04.05.05.08,1.72,2.4,2.83,5.37,3.27,8.79.31,2.47.17,4.44.1,5.18-.03.32-.06.49-.06.49,0,.05-.04.1-.08.13-.63.5-1.32.98-2.11,1.45-2.7,1.61-5.57,2.47-7.5,2.91-2.08.47-3.55.57-3.56.58,0,0,0,0-.01,0Z"/>
              <path class="cls-1" d="M29.91,21.72c.61.62,1.15,1.25,1.63,1.92,0,0,.01,0,.02.02,2.05,2.87,2.92,6.09,3.26,8.74.3,2.36.18,4.27.1,5.13-.03.31-.05.48-.05.48-.67.54-1.38,1.01-2.09,1.43-2.59,1.54-5.34,2.4-7.44,2.88-2.09.47-3.53.57-3.53.57,2.7-6.36,3.51-18.97,3.51-18.97l.37-.18.64-.31,3.59-1.72M29.91,21.29c-.06,0-.13.01-.18.04l-3.59,1.72-.65.31-.38.18c-.14.07-.23.2-.24.36,0,.13-.83,12.61-3.48,18.83-.06.14-.04.29.05.41.08.11.21.18.35.18,0,0,.02,0,.03,0,.06,0,1.5-.11,3.6-.58,1.94-.44,4.83-1.31,7.56-2.93.8-.47,1.49-.95,2.13-1.46.08-.07.14-.16.16-.27,0,0,.03-.17.06-.5.07-.74.22-2.73-.1-5.22-.44-3.45-1.56-6.46-3.33-8.94h0s-.01-.02-.02-.03c-.48-.68-1.03-1.32-1.67-1.97-.08-.08-.19-.13-.3-.13h0Z"/>
            </g>
            <path class="cls-3" d="M32.76,39.45c.71-.43,1.41-.9,2.09-1.43,0,0,1.5-9.8-4.94-16.3,3.51,5.71,3.28,13.66,2.86,17.73Z"/>
            <path class="cls-4" d="M25.3,23.93s-.8,12.61-3.5,18.96c0,0,1.44-.1,3.53-.57,1.14-3.26,2.22-7.74,1.75-12.12-.25-2.4-.78-4.58-1.4-6.46l-.38.19Z"/>
            <path class="cls-28" d="M25.3,23.93s-.8,12.61-3.51,18.97c0,0,1.44-.1,3.53-.57,2.1-.48,4.85-1.34,7.44-2.88.71-.42,1.41-.89,2.09-1.43,0,0,.02-.16.05-.48-.44.36-1.29.97-2.7,1.73-2.44,1.29-8.29,2.62-7.32-1.28.96-3.89,4.87-7.17,8.09-6.6.73.13,1.34.51,1.84,1.02-.42-3.28-1.64-7.4-4.9-10.69l-4.23,2.03-.37.18Z"/>
            <path class="cls-10" d="M25.3,23.93s-.8,12.61-3.51,18.97c0,0,1.44-.1,3.53-.57,2.1-.48,4.85-1.34,7.44-2.88.71-.42,1.41-.89,2.09-1.43,0,0,.02-.16.05-.48.09-.85.2-2.77-.1-5.13-.34-2.66-1.2-5.87-3.26-8.74,1.04,2.74,2.27,6.22,2.67,8.45.74,4.14.28,5.97.28,5.97,0,0-2.5,1.83-6.06,3.03-3.57,1.18-5.79,1.19-5.79,1.19,0,0,1.92-6.41,2.24-10.87,0,0,1.77.81,2.52.4.75-.41,1.48-1.15,3.29-1.59,1.81-.44,1.99-1.26,1.83-1.68-.15-.42-3.83-3.33-4.02-3.28-.06.02-.88-.88-2.2-1.86l-.64.31-.37.18Z"/>
          </g>
          <g>
            <g>
              <path class="cls-2" d="M10.58,21.78s-2.46-.7-4.87-2.57c-.1-.02-1.36-.34-2.11-.77-.03,0-.06-.03-.09-.04-.27-.17-.36-.27-.35-.38,0-.08.06-.13.15-.18.07-.03.18-.06.3-.09.12-.03.26-.07.41-.12-1.06-1.15-1.86-2.48-2.38-3.93-.16-.04-.88-.46-1.34-1.39-.17-.34-.21-.5-.15-.6.02-.03.12-.08.16-.08.09,0,.22.05.37.12.13.05.28.12.43.16,0-.01-.04-.17-.05-.24-.35-1.94-.1-3.9.72-5.66-.03-.43-.05-1.51.01-1.77.04-.16.16-.18.21-.18.11,0,.24.08.4.19.1.06.2.13.31.19.73-.97,1.63-1.77,2.68-2.38.11-.33.39-.86.83-1.23.58-.5,1.09-.73,1.3-.73.04,0,.16.06.18.1.04.07,0,.18-.05.36-.05.17-.11.39-.13.64.64-.16,1.3-.24,1.97-.24.62,0,1.25.07,1.88.21.47.09.96.24,1.47.45.55.21,1.11.48,1.66.82,2.29,1.43,4.26,3.69,5.92,6.76.03.05.01.11-.03.14l-2.04,1.43s-.04.02-.06.02c0,0-.02,0-.03,0-.03,0-.06-.03-.07-.06-.03-.07-2.88-6.79-7.91-7.31.06.05.11.09.16.13.39.33.46.4.47.48-.02.02-.09.12-.12.12-.05,0-.1-.02-.21-.08-.31-.14-1.05-.47-2.12-.47-.13,0-.26,0-.39.01h-.05c-.09,0-.13,0-.18,0-.05,0-.1,0-.15.01-1.12.31-2.08.9-2.82,1.76.26.12.81.4.91.58.02.03.02.1,0,.13-.05.11-.21.15-.59.25-.4.1-.94.23-1.23.48-.44,1.05-.62,2.29-.5,3.55.24.24.58.58.85.85.22.22.4.39.47.48.03.03.05.17.03.21-.08.15-.37.16-.84.17-.06,0-.11,0-.16,0,.21.67.46,1.27.76,1.82.27.47.58.92.91,1.34.59.19,1.34.37,1.58.43.17.04.24.13.27.27.06.26-.04.63-.36.93,2.58,2.33,5.64,3.34,5.67,3.35.04.01.07.05.07.09,0,.04-.01.08-.05.1l-2.01,1.34s-.04.02-.06.02c0,0-.02,0-.03,0Z"/>
              <path class="cls-9" d="M7.51.21s.07.01.08.04c.06.11-.2.54-.18,1.1.67-.18,1.36-.28,2.08-.28.61,0,1.23.07,1.86.21.48.09.97.24,1.45.44.54.21,1.1.48,1.64.81.02.02.04.02.05.02,0,0,0,0,0,0,2.04,1.29,4.06,3.43,5.82,6.7l-2.04,1.43s-2.96-7.13-8.33-7.4c0,0,.01.01.03.02.35.31.8.66.81.73,0,0,0,0-.01,0-.11,0-.94-.54-2.34-.54-.13,0-.26,0-.4.01-.02,0-.04,0-.06,0-.11,0-.21.02-.31.02-1.28.35-2.26,1.02-2.99,1.91.34.15.9.45.99.6.11.19-1.23.24-1.78.72-.47,1.09-.66,2.34-.53,3.64.48.54,1.19,1.19,1.35,1.38.19.25-.61.18-1.03.2.2.67.45,1.33.81,1.98.27.48.58.93.92,1.36.73.26,1.59.45,1.72.48.17.04.25.65-.3,1.08,2.65,2.43,5.8,3.46,5.8,3.46l-2.01,1.34s-2.41-.67-4.83-2.55c-.46-.12-1.49-.42-2.12-.78-.06-.02-.09-.04-.14-.07-.3-.19-.3-.28-.17-.34.17-.07.52-.13.84-.27-1-1.06-1.88-2.38-2.46-4.01-.31-.15-.94-.58-1.35-1.4-.2-.4-.2-.53-.09-.53.17,0,.58.27.94.3-.03-.14-.06-.25-.09-.39-.36-2.02-.06-3.94.71-5.59-.02-.61-.03-1.57.02-1.79.02-.07.05-.1.1-.1.15,0,.44.28.75.4.72-.99,1.65-1.81,2.7-2.42.13-.32.39-.87.85-1.24.56-.48,1.05-.7,1.24-.7M7.51,0c-.29,0-.85.3-1.37.75-.43.36-.71.87-.88,1.26-1.01.59-1.89,1.37-2.6,2.3-.08-.04-.15-.09-.22-.14-.18-.12-.32-.21-.46-.21s-.27.1-.31.26c-.07.28-.04,1.37-.03,1.8-.81,1.77-1.05,3.73-.71,5.67,0,.02,0,.04.01.06-.08-.03-.17-.07-.24-.1-.17-.07-.3-.13-.42-.13-.11,0-.19.05-.25.13-.1.16-.02.37.14.7.43.87,1.08,1.3,1.36,1.46.51,1.39,1.27,2.65,2.27,3.77-.08.03-.17.05-.25.07-.13.03-.23.06-.31.09-.18.08-.21.2-.22.27-.01.19.16.33.35.45,0,0,.05.03.06.03.04.02.07.04.12.05.68.39,1.79.7,2.1.78,2.41,1.86,4.77,2.53,4.87,2.56.02,0,.04,0,.06,0,.04,0,.08-.01.12-.04l2.01-1.34c.07-.05.1-.12.09-.21s-.07-.15-.14-.17c-.03,0-3-1-5.55-3.26.29-.32.37-.69.31-.95-.04-.18-.14-.3-.27-.33l-.09-.02c-.26-.06-.94-.22-1.55-.43-.32-.4-.61-.84-.87-1.28-.28-.5-.51-1.05-.71-1.66,0,0,.01,0,.02,0,.53,0,.83-.01.94-.22.02-.05.07-.17-.04-.32-.08-.1-.25-.26-.48-.49-.26-.25-.57-.57-.83-.85-.11-1.21.06-2.39.5-3.42.28-.22.78-.34,1.15-.43.39-.1.59-.14.66-.31.03-.06.02-.17-.01-.23-.1-.18-.53-.42-.83-.57.71-.78,1.61-1.33,2.68-1.62.04,0,.08,0,.13,0,.05,0,.1,0,.15,0,0,0,.04,0,.06,0,0,0,0,0,.01,0,.13,0,.26-.01.39-.01,1.05,0,1.77.32,2.08.46.13.06.19.08.26.08.06,0,.12-.03.16-.07.04-.04.06-.1.06-.16,0-.12-.07-.2-.38-.46,4.75.79,7.44,7.13,7.47,7.2.02.06.07.1.14.12.02,0,.04,0,.06,0,.04,0,.09-.01.12-.04l2.04-1.43c.09-.06.12-.18.07-.27-1.66-3.08-3.65-5.36-5.89-6.78-.02-.02-.05-.03-.08-.03-.57-.35-1.12-.62-1.66-.82-.51-.21-1.01-.36-1.49-.45-.63-.14-1.27-.21-1.9-.21s-1.25.07-1.85.21c.02-.18.07-.34.11-.47.06-.2.1-.33.03-.46,0-.02-.07-.15-.27-.15h0Z"/>
            </g>
            <path class="cls-27" d="M11.35,1.28c3.07.65,6.31,3.06,8.97,7.98l-2.04,1.43s-2.97-7.14-8.34-7.4c.36.32.85.69.85.75,0,.11-1.01-.65-2.75-.52-.13,0-.25.02-.37.02-1.27.35-2.26,1.02-2.98,1.9.33.15.9.45.98.6.1.19-1.23.24-1.78.72-.48,1.1-.67,2.35-.54,3.65.48.55,1.19,1.19,1.34,1.38.2.25-.61.19-1.02.21.2.66.46,1.32.81,1.97.27.48.58.93.92,1.36.72.27,1.59.45,1.72.48.17.04.25.64-.3,1.08,2.64,2.43,5.8,3.46,5.8,3.46l-2.02,1.33s-2.41-.67-4.82-2.55c-.5-.13-1.63-.46-2.27-.85-.31-.18-.31-.28-.16-.34.22.19.52.38.88.53,1.07.45,1.92.5,1.97.37.06-.13.13-.84.26-1.07.13-.22-.86-.93-2.45-3.26-1.58-2.33-1.82-3.7-1.5-5.92.33-2.22,1.82-4.78,4.25-5.66,2.45-.88,4.85-.14,6.06.43,1.21.57.88-1-.83-1.8-.23-.11-.45-.21-.66-.3Z"/>
            <path class="cls-11" d="M20.32,9.26l-2.04,1.43s-2.96-7.13-8.33-7.4c0,0,.8-.52,3.65.98,2.84,1.49,3.42,3.25,3.42,3.25l2.1.48s-.29-.53-2.06-2.6c-1.13-1.31-3.02-2.77-4.26-3.67.54.21,1.1.48,1.64.81.02.02.05.02.06.02,2.04,1.29,4.06,3.43,5.82,6.7Z"/>
            <path class="cls-12" d="M7.4,1.35c1.23-.34,2.57-.38,3.94-.07,1.02.21,2.06.63,3.1,1.26-.66-.25-1.85-.66-3.27-.99-2.09-.47-3.88.12-4,.09,0-.08.1-.92-.31-.68-.43.23-1.2,1.49-1.2,1.49,0,0-.44.11-1.29.77-.86.65-1.63,1.71-1.63,1.71,0,0-.45-.3-.51-.22-.04.08-.04,1.54-.06,1.63s-.75,1.19-.85,3.14c-.08,1.95.4,2.8.39,2.85s-.75-.2-.74.01c0,.2,1,.96,1.02.97.03.02.16.61.88,2.2.73,1.58,1.77,2.1,1.72,2.28-.06.17-.89.25-.99.35-.02.02,0,.09.03.2-.05-.03-.09-.05-.14-.07-.31-.18-.31-.28-.16-.34.16-.08.52-.13.84-.27-1-1.06-1.88-2.38-2.47-4-.3-.16-.94-.58-1.34-1.41-.5-1,.25-.28.86-.23-.02-.14-.07-.25-.09-.39-.36-2.02-.06-3.94.71-5.59-.02-.61-.04-1.57.02-1.79.07-.29.45.14.86.3.72-.99,1.64-1.8,2.69-2.41.13-.32.4-.87.85-1.25.69-.58,1.26-.79,1.31-.66.06.11-.2.54-.18,1.1Z"/>
            <ellipse class="cls-13" cx="1.58" cy="9.29" rx=".45" ry=".81" transform="translate(-.19 .03) rotate(-1.17)"/>
            <ellipse class="cls-14" cx="2.28" cy="9.97" rx=".23" ry=".37" transform="translate(-.2 .05) rotate(-1.17)"/>
          </g>
          <g>
            <g>
              <path class="cls-36" d="M38.57,31.01c-.06,0-.12,0-.21-.02-.09-.02-.12-.03-.17-.04-.82-.15-1.93-.67-2.14-.78-3-.12-5.31-1.16-5.33-1.17l-.73-2.39s0-.08.03-.11c.02-.02.05-.03.07-.03.01,0,.03,0,.04,0,.03.01,2.75,1.1,6.02,1.1.16,0,.32,0,.48,0-.05-.45.13-.73.21-.83.1-.13.23-.2.34-.2l.17.06c.25.13.91.46,1.53.7.47-.11,1-.26,1.51-.44.59-.22,1.16-.52,1.75-.9-.04-.03-.08-.07-.12-.11-.36-.31-.58-.5-.54-.67,0-.04.12-.13.16-.13.11-.02.36-.04.67-.07.38-.03.86-.07,1.26-.12.85-.86,1.52-1.92,1.86-3.05-.06-.33-.39-.78-.63-1.11-.23-.32-.33-.45-.29-.57,0-.03.06-.08.09-.1.04-.01.09-.02.15-.02.23,0,.64.09.92.16-.01-1.14-.36-2.21-1.03-3.18-.02-.01-.05-.05-.09-.08-.05-.05-.1-.1-.15-.14-.93-.91-1.84-1.17-2.22-1.29-.17-.05-.23-.07-.25-.14,0-.04,0-.08.02-.11.05-.06.14-.07.56-.07,0,0,.28,0,.31,0-1.14-.77-2.54-1.16-4.19-1.16-3.34,0-6.54,1.63-6.58,1.65-.02,0-.03.01-.05.01-.01,0-.03,0-.04,0-.03-.01-.05-.04-.06-.07l-.64-2.41c-.01-.05.01-.11.06-.13,2.52-.99,4.89-1.49,7.05-1.49.61,0,1.2.04,1.77.12.7.12,1.3.27,1.86.46.52.17.99.37,1.41.61,1.19.63,2.18,1.47,2.92,2.51.15-.2.24-.41.31-.57.08-.17.12-.28.21-.31h0c.32,0,.59.73.71,1.44.1.57-.03,1.16-.16,1.55.41,1.08.59,2.27.52,3.48.12.03.24.04.36.06.23.03.41.05.48.17.02.04.04.11,0,.21-.12.24-.83,1.05-1.15,1.41-.49,1.83-1.56,3.49-3.08,4.74-.06.05-.19.14-.19.15.14.07.3.12.43.16.25.08.42.13.43.28,0,.13-.12.23-.5.4-.43.19-.88.29-1.34.29-.31,0-.55-.05-.66-.07-1.26.76-2.72,1.26-4.28,1.45.07.13.16.25.23.35.07.1.13.19.17.26.04.09.05.16,0,.22-.06.09-.17.1-.26.1Z"/>
              <path class="cls-9" d="M38.36,11.66c.62,0,1.2.04,1.76.12,0,0,.02.02.05.02,0,0,0,0,0,0,.63.1,1.23.25,1.78.44.5.16.96.36,1.39.6,1.25.66,2.24,1.54,2.97,2.59.37-.42.45-.91.57-.96,0,0,.01,0,.02,0,.13,0,.41.52.55,1.36.1.58-.05,1.16-.16,1.5.41,1.14.59,2.36.51,3.59.41.14.98.05.85.32-.1.2-.73.93-1.14,1.38-.48,1.76-1.48,3.42-3.06,4.73-.11.09-.21.15-.32.24.5.35,1.54.28.51.72-.48.21-.94.28-1.3.28-.27,0-.49-.04-.63-.07-1.49.87-3.02,1.31-4.47,1.47.15.32.39.58.47.75.05.1.03.17-.15.17-.05,0-.12,0-.19-.02-.05-.01-.09-.02-.15-.04-.72-.13-1.7-.56-2.13-.77-3.06-.13-5.33-1.17-5.33-1.17l-.68-2.32s2.73,1.11,6.06,1.11c.2,0,.4,0,.6-.01-.13-.63.24-1.03.43-1.03.02,0,.03,0,.04,0,.12.06.9.47,1.62.74.54-.11,1.06-.25,1.58-.44.69-.26,1.31-.6,1.89-.99-.3-.28-.96-.75-.65-.82.24-.05,1.2-.09,1.92-.19.94-.91,1.6-1.99,1.94-3.13-.11-.72-1.1-1.63-.9-1.7.03,0,.07-.01.11-.01.24,0,.73.11,1.03.19.02-1.15-.3-2.29-1.05-3.38-.09-.08-.17-.18-.27-.25-1.26-1.23-2.5-1.3-2.43-1.38.03-.03.23-.03.48-.03.07,0,.14,0,.21,0,.13,0,.26,0,.39,0,.02,0,.03,0,.04,0,0,0,0,0,0,0-1.35-1.03-2.95-1.38-4.52-1.38-3.4,0-6.63,1.66-6.63,1.66l-.64-2.41c2.65-1.04,4.98-1.48,7.01-1.48M38.36,11.45c-2.17,0-4.55.5-7.08,1.5-.1.04-.16.15-.13.25l.64,2.41c.02.06.06.11.12.14.03.01.06.02.09.02.03,0,.07,0,.1-.02.03-.02,3.22-1.64,6.53-1.64,1.48,0,2.76.32,3.82.95-.41,0-.51.01-.59.1-.05.05-.07.14-.05.21.04.13.14.16.32.21.38.11,1.27.37,2.17,1.25.08.06.12.11.16.15.03.03.06.06.09.09.63.91.96,1.91,1,2.97-.27-.06-.6-.13-.81-.13-.08,0-.14,0-.19.03-.06.02-.14.1-.16.17-.05.17.07.33.31.66.22.31.53.72.6,1.06-.33,1.07-.96,2.09-1.82,2.94-.38.05-.82.09-1.18.11-.33.03-.56.04-.68.07-.18.04-.23.16-.24.21-.06.23.17.43.57.78,0,0,0,0,.01.01-.55.34-1.08.61-1.62.82-.48.17-.98.32-1.49.42-.6-.23-1.22-.55-1.46-.67l-.08-.04s-.11-.03-.14-.03c-.14,0-.29.09-.42.24-.09.11-.26.38-.25.8-.12,0-.24,0-.36,0-3.24,0-5.95-1.08-5.98-1.1-.03-.01-.05-.02-.08-.02-.05,0-.1.02-.14.05-.06.05-.08.14-.06.22l.68,2.32c.02.06.06.11.12.13.09.04,2.33,1.05,5.37,1.18.29.14,1.33.62,2.14.77.02,0,.05.02.09.03,0,0,.06.01.06.01.09.01.16.02.22.02.06,0,.25,0,.35-.15.04-.06.07-.17,0-.32-.04-.08-.1-.17-.18-.27-.05-.07-.1-.14-.14-.21,1.48-.21,2.88-.68,4.16-1.42.13.03.34.06.6.06.47,0,.94-.1,1.39-.29.37-.16.58-.29.56-.5-.01-.22-.24-.29-.51-.37-.08-.02-.16-.05-.25-.08.02-.01.03-.02.05-.04,1.52-1.26,2.6-2.92,3.12-4.79.29-.32,1.01-1.14,1.14-1.39.07-.14.04-.24,0-.31-.09-.17-.31-.2-.56-.23-.08-.01-.17-.02-.26-.04.06-1.17-.11-2.32-.5-3.43.12-.4.24-.97.14-1.53-.09-.53-.36-1.54-.76-1.54-.04,0-.09.01-.12.03-.11.04-.16.17-.25.36-.05.12-.12.28-.22.43-.74-1-1.71-1.81-2.87-2.42-.42-.23-.9-.44-1.43-.61-.56-.2-1.17-.35-1.81-.44-.02-.01-.04-.02-.07-.02-.58-.08-1.18-.12-1.79-.12h0Z"/>
            </g>
            <path class="cls-27" d="M43.36,12.84c-2.77-1.48-6.8-1.73-12,.31l.64,2.41s6.87-3.54,11.15-.28c-.48.01-1.1-.02-1.13.02-.07.08,1.19.16,2.44,1.38.1.09.18.18.27.26.75,1.09,1.07,2.24,1.05,3.37-.35-.09-.98-.23-1.14-.17-.2.08.78.98.9,1.7-.34,1.15-1,2.22-1.94,3.13-.72.11-1.67.14-1.91.19-.31.07.35.54.64.82-.58.38-1.2.72-1.89.98-.52.2-1.04.33-1.58.44-.73-.26-1.5-.68-1.63-.74-.15-.08-.61.33-.47,1.02-3.59.15-6.66-1.1-6.66-1.1l.68,2.32s2.27,1.04,5.33,1.16c.46.23,1.54.7,2.28.81.35.06.41-.02.34-.15-.29,0-.64-.04-1.02-.16-1.11-.35-1.79-.86-1.75-.99.04-.13.44-.73.49-.98.04-.25,1.26-.15,3.97-.91,2.71-.76,3.78-1.65,4.96-3.56,1.18-1.91,1.7-4.83.4-7.06-1.3-2.25-3.61-3.23-4.91-3.58-1.3-.35-.03-1.34,1.79-.84.25.07.48.13.69.2Z"/>
            <path class="cls-15" d="M31.35,13.15l.64,2.41s6.87-3.54,11.14-.28c0,0-.28-.92-3.42-1.61-3.13-.69-4.71.28-4.71.28l-1.91-.98s.56-.22,3.25-.66c1.7-.27,4.1-.17,5.62-.06-.55-.19-1.15-.34-1.78-.44-.03,0-.05-.01-.06-.02-2.39-.33-5.32,0-8.77,1.37Z"/>
            <path class="cls-17" d="M46.32,15.44c-.72-1.05-1.72-1.94-2.97-2.6-.92-.5-1.98-.85-3.18-1.03.66.23,1.84.69,3.14,1.36,1.9.99,2.89,2.6,2.99,2.65.05-.07.51-.77.68-.32.17.45-.05,1.91-.05,1.91,0,0,.27.37.49,1.42.24,1.06.14,2.36.14,2.36,0,0,.54.06.53.16-.02.09-.96,1.2-1,1.28s-.19,1.4-1.38,2.95c-1.2,1.55-2.11,1.88-2.13,1.93s.71.33.55.49c-.14.15-1.38.09-1.4.08-.04,0-.52.36-2.09,1.11-1.58.74-2.71.47-2.79.63-.07.17.52.76.53.91,0,.03-.06.07-.15.13.06.01.1.02.15.03.35.06.41-.02.34-.15-.07-.16-.31-.43-.46-.75,1.44-.17,2.97-.61,4.47-1.46.33.07,1.09.16,1.93-.21,1.03-.44,0-.37-.51-.73.11-.09.21-.15.32-.24,1.58-1.31,2.59-2.97,3.06-4.73.41-.45,1.04-1.18,1.14-1.38.13-.27-.43-.18-.85-.32.08-1.22-.09-2.44-.5-3.58.11-.33.26-.92.16-1.5-.15-.89-.46-1.42-.58-1.35-.11.05-.2.54-.57.96Z"/>
            <ellipse class="cls-19" cx="45.65" cy="25.26" rx=".81" ry=".45" transform="translate(-3.47 42.86) rotate(-48.67)"/>
            <ellipse class="cls-20" cx="44.68" cy="25.32" rx=".37" ry=".23" transform="translate(-3.84 42.15) rotate(-48.67)"/>
          </g>
          <g>
            <g>
              <g>
                <path class="cls-45" d="M28.17,31.6c-.58,0-1.23-.06-1.92-.18l-.44-.08c-1.1-.22-1.9-.5-1.94-.51-.06-.02-.1-.07-.11-.14s.02-.13.08-.16l6.97-4.45c.17-.07,3.54-1.38,4.81-1.53.09-.01.16-.02.23-.02.15,0,.25.03.32.09.35.32.47,1.58.25,2.58-.12.57-.33,1.01-.62,1.33-.42.46-1.02.55-1.72.65-.94.13-2.01.28-2.99,1.42-.57.66-1.55,1-2.91,1Z"/>
                <path class="cls-8" d="M35.84,24.69c.1,0,.17.02.21.05.28.25.43,1.4.2,2.43-.1.48-.29.93-.58,1.26-.92,1.01-2.97.05-4.71,2.07-.61.71-1.67.94-2.78.94-.64,0-1.3-.08-1.89-.18-.15-.03-.3-.06-.44-.08-1.1-.22-1.91-.5-1.91-.5l6.97-4.45s3.48-1.36,4.74-1.51c.08-.01.15-.02.21-.02M35.84,24.36c-.07,0-.16,0-.25.02-1.28.15-4.67,1.47-4.81,1.53-.02,0-.04.02-.06.03l-6.97,4.45c-.11.07-.17.19-.15.32.01.13.1.23.22.28.03.01.85.29,1.96.51l.09.02c.12.02.24.05.36.07.7.12,1.36.19,1.95.19,1.41,0,2.43-.35,3.03-1.06.94-1.09,1.97-1.23,2.89-1.36.7-.1,1.36-.19,1.82-.7.31-.34.53-.81.66-1.41.21-.97.14-2.34-.3-2.74-.1-.09-.24-.14-.43-.14h0Z"/>
              </g>
              <path class="cls-29" d="M36.24,27.17c-.98.37-2.04.66-2.82.58-1.84-.19-2.48,2.03-3.38,2.53-.66.37-2.7.71-3.77.97-1.32-.23-2.35-.58-2.35-.58l6.97-4.45s4.74-1.84,5.15-1.47c.28.25.43,1.4.2,2.43Z"/>
              <path class="cls-10" d="M35.66,28.42c-.92,1.01-2.97.05-4.71,2.07-.97,1.12-3.04,1.05-4.68.76-.15-.03-.3-.06-.44-.08.88-.01,2.18,0,2.78.09.96.15,1.96-1.24,2.83-2.23.88-1,2.81-.23,3.94-1.73.53-.7.46-1.71.24-2.59.21-.03.36-.02.42.03.28.25.43,1.4.2,2.43-.1.48-.29.93-.58,1.26Z"/>
            </g>
            <g>
              <g>
                <path class="cls-46" d="M31.2,26.21s-.09-.02-.12-.05c-.03-.03-.05-.08-.05-.13l.71-11.23-4.55-7.35s-.03-.1-.01-.15c.02-.05.06-.09.11-.1,0,0,.35-.09.35-.09.87-.2,1.58-.3,2.1-.3.27,0,.49.03.67.08.06.02.13.04.18.07.95.51,1.88,1.45,3.12,3.17.31.43.54.84.68,1.23,0,.01.01.02.02.03.27.82.08,1.32-.07,1.56.61.45,2.96,2.27,3.78,4.23.16.37.25.73.28,1.07.06.69.17,1.26.27,1.77.26,1.31.45,2.25-.59,3.65-.06.08-.12.15-.18.22-.52.65-1.43,1.18-2.68,1.59-1.9.61-3.99.72-4.01.72,0,0,0,0,0,0Z"/>
                <path class="cls-8" d="M29.74,6.98c.24,0,.45.02.62.07.06.02.11.04.16.06.78.41,1.66,1.19,3.06,3.12.34.47.55.87.66,1.22h0c.35,1.07-.15,1.55-.15,1.55,0,0,2.94,2.07,3.86,4.26.14.34.24.68.27,1.02.2,2.43,1.11,3.44-.29,5.31-.06.07-.11.15-.17.22-.58.71-1.57,1.2-2.61,1.54-1.9.61-3.96.71-3.96.71l.71-11.29-4.58-7.4s.13-.03.34-.09c0,0,0,0,0,0s0,0,0,0c.48-.11,1.37-.3,2.06-.3M29.74,6.64h0c-.54,0-1.26.1-2.14.3,0,0-.02,0-.03,0-.2.05-.33.09-.33.09-.1.03-.18.1-.22.2-.04.1-.03.21.03.3l4.52,7.3-.7,11.18c0,.09.03.19.1.25.06.06.15.1.24.1,0,0,.01,0,.02,0,.09,0,2.13-.11,4.05-.73,1.29-.42,2.22-.97,2.77-1.65.06-.07.12-.14.18-.22,1.09-1.46.88-2.48.62-3.78-.1-.51-.21-1.08-.27-1.76-.03-.35-.12-.73-.29-1.12-.79-1.89-2.97-3.64-3.72-4.21.14-.3.26-.82.02-1.56,0-.02-.01-.03-.02-.05-.14-.4-.37-.82-.69-1.26-1.26-1.74-2.21-2.7-3.18-3.21-.07-.04-.15-.07-.23-.09-.18-.06-.42-.08-.71-.08h0Z"/>
              </g>
              <path class="cls-29" d="M37.95,23.58c-.06.07-.11.15-.17.22-1.63,2.01-6.57,2.25-6.57,2.25l.71-11.29-4.58-7.4s2.13-.59,3.03-.31c.21.5.47,1.05.76,1.59.36.66,1.67,1.71,3.12,2.81h0c.35,1.07-.15,1.55-.15,1.55,0,0,2.94,2.07,3.86,4.26-.26.4-.49.94-.61,1.7-.39,2.53-.83,2.05-.91,3.92-.03.71.64.83,1.49.71Z"/>
              <ellipse class="cls-10" cx="36.86" cy="22.4" rx=".7" ry=".37" transform="translate(.31 45.3) rotate(-63.36)"/>
              <path class="cls-10" d="M37.95,23.58c-.06.07-.11.15-.17.22-.58.71-1.57,1.2-2.61,1.54.97-.71,1.8-1.36,1.87-1.58.17-.54.86-2.87.6-3.24-.27-.37.14-1.73.11-2.48-.03-.75-2.44-2.99-2.44-2.99,0,0-1.73-1.41-1.7-1.48.02-.07.38-2.18.24-2.61-.13-.43-2.5-2.74-3.1-3.06-.3-.16-1.7-.4-3.05-.61.64-.15,2.01-.43,2.68-.22.06.02.11.04.16.06.78.41,1.66,1.19,3.06,3.12.34.47.55.87.66,1.22h0c.35,1.07-.15,1.55-.15,1.55,0,0,2.94,2.07,3.86,4.26.14.34.24.68.27,1.02.2,2.43,1.11,3.44-.29,5.31Z"/>
            </g>
            <g>
              <g>
                <path class="cls-37" d="M29.15,27.87s-.04,0-.05,0c-.07-.02-.11-.09-.11-.16,0-18.72.3-18.72.51-18.72.23.05.88.42,1.07.53.37.22.82.5,1.3.82,1.06.73,2.5,1.88,3.37,3.19,1.54,2.32,1.17,3.56.35,6.27l-.16.55c-.31,1.04-.37,1.72-.42,2.21-.02.17-.03.31-.05.44-.09.72-.42,1.04-1.76,1.71-1.17.58-2.1,1.31-2.66,1.81-.8.7-1.25,1.28-1.25,1.28-.03.04-.08.06-.13.06Z"/>
                <path class="cls-8" d="M29.49,9.15s0,0,0,0c.1.03.47.21.99.51.37.22.81.49,1.29.82,1.17.81,2.51,1.93,3.32,3.15,1.6,2.41,1.09,3.57.16,6.67-.42,1.41-.39,2.16-.47,2.67-.08.62-.32.91-1.67,1.59-1.11.55-2.03,1.24-2.7,1.84-.82.72-1.28,1.3-1.28,1.3,0,0,0-18.55.34-18.55M29.49,8.82h0c-.45,0-.54,0-.63,9.61-.04,4.59-.05,9.23-.05,9.28,0,.14.09.27.22.31.04.01.07.02.11.02.1,0,.2-.05.26-.13,0,0,.45-.57,1.23-1.26.56-.5,1.47-1.22,2.62-1.79,1.39-.7,1.75-1.06,1.85-1.84.02-.13.03-.28.05-.44.04-.48.1-1.15.41-2.18l.16-.54c.83-2.76,1.22-4.02-.37-6.41-.88-1.33-2.34-2.49-3.41-3.24-.41-.28-.84-.55-1.31-.83-.32-.18-.88-.49-1.07-.54-.03,0-.06-.01-.08-.01h0Z"/>
              </g>
              <path class="cls-29" d="M33.12,24.56c-2.48,1.23-3.97,3.14-3.97,3.14,0,0,0-18.64.35-18.55.17.05,1.14.55,2.28,1.32.53,1.06,1.21,2.28,1.64,2.7.81.78,2,3.2.9,5.48-1.1,2.28-1.06,4.07-.89,4.22.07.07.68.08,1.37.09-.08.62-.32.91-1.67,1.59Z"/>
              <path class="cls-10" d="M33.12,24.56c-1.11.55-2.03,1.24-2.7,1.84-.77.1-1.17.04-.83-.29,1.26-1.25,4.18-1.89,4.41-2.5.23-.6-.01-2.92.69-4.13.7-1.2.87-4.55-.08-5.4-.68-.6-2.92-3.06-4.13-4.42.37.22.81.49,1.29.82,1.17.81,2.51,1.93,3.32,3.15,1.6,2.41,1.09,3.57.16,6.67-.42,1.41-.39,2.16-.47,2.67-.08.62-.32.91-1.67,1.59Z"/>
            </g>
            <g>
              <g>
                <path class="cls-39" d="M14.38,27.45c-1.4,0-1.75-.14-1.88-.24-.16-.12-.26-.25-.34-.37-.06-.09-.12-.19-.18-.29-.29-.49-.68-1.16-2.13-2.12-2.23-1.48-2.23-2.48-2.22-4.48v-.19c0-.97-.28-1.68-.53-2.31-.3-.76-.56-1.41-.25-2.25.14-.38.45-.87.92-1.47,1.12-1.43,2.83-3.06,2.84-3.08.03-.03.07-.05.11-.05,0,0,.02,0,.03,0,.05,0,.1.04.12.09l7.87,16.28c.03.07.02.15-.04.2-.03.03-.07.04-.11.04-.03,0-.06,0-.09-.02-.2.05-2.45.25-4.13.25Z"/>
                <path class="cls-8" d="M10.73,10.78l.34.71,7.52,15.57s0,0-.02,0c-.23.02-2.51.23-4.2.23-.86,0-1.58-.05-1.78-.21-.13-.1-.22-.2-.31-.33-.34-.5-.57-1.27-2.36-2.45-2.23-1.47-2.15-2.39-2.14-4.53.02-2.14-1.33-3.03-.79-4.5.15-.39.48-.89.89-1.42,1.12-1.44,2.83-3.06,2.83-3.06M10.73,10.45c-.08,0-.17.03-.23.09-.07.07-1.73,1.65-2.86,3.1-.48.61-.8,1.12-.94,1.51-.33.9-.05,1.62.25,2.37.24.61.52,1.31.52,2.24v.2c-.01,2.06-.02,3.09,2.29,4.62,1.42.94,1.8,1.59,2.08,2.06.06.11.12.21.18.3.09.13.2.28.38.41.18.14.56.28,1.98.28,1.63,0,3.79-.18,4.19-.22,0,0,.01,0,.02,0,.09,0,.17-.03.23-.1.1-.1.13-.25.07-.38l-7.52-15.57-.35-.71c-.05-.1-.14-.16-.24-.18-.02,0-.04,0-.06,0h0Z"/>
              </g>
              <path class="cls-29" d="M18.6,27.06s-5.36.49-6,.01c-.13-.1-.22-.2-.31-.33.31-.73.67-1.88.23-2.73-.69-1.33-2.35-3.38-3.07-4.82-.73-1.44,1.57-1.06-.65-3.87-.41-.53-.71-1.03-.9-1.49,1.12-1.44,2.83-3.06,2.83-3.06l7.87,16.28Z"/>
              <path class="cls-10" d="M18.58,27.06c-.35.04-5.37.48-5.98.02-.13-.1-.22-.2-.31-.33-.34-.5-.57-1.27-2.36-2.45-2.23-1.47-2.15-2.39-2.14-4.53.02-2.14-1.33-3.03-.79-4.5.15-.39.48-.89.89-1.42,1.12-1.44,2.83-3.06,2.83-3.06l.34.71c-1.39,1.7-2.93,3.67-2.98,4.23-.1,1.03.81,2.36.67,2.91-.14.55-.44,2.5-.03,3.22.41.71,1.73-.03,2.58,1.55.85,1.58,1.05,2.86,1.41,3.01.35.14,5.54.61,5.86.64Z"/>
            </g>
            <g>
              <g>
                <path class="cls-38" d="M23.22,31.6c-.12,0-.22-.01-.3-.03-.43-.1-.71-.28-1.04-.48-.62-.38-1.47-.91-3.96-1.46-2.4-.53-2.31-1.62-2.21-2.68.07-.74.13-1.45-.59-2.08-.64-.56-1.07-1.09-1.36-1.67-.18-.35-.29-.69-.4-1.05-.15-.48-.31-.97-.66-1.57-1.02-1.77.05-2.97.06-2.98.03-.03.06-.05.1-.05l10.14-.98,9.64,1.25s.09.03.11.07.04.08.03.13c0,.03-.48,2.68-1.07,5.26-.21.91-.44,1.82-.66,2.61-.31,1.09-.59,1.83-.84,2.22-.2.31-.54.64-1.01,1-1.66,1.24-4.67,2.51-5.96,2.51Z"/>
                <path class="cls-8" d="M23,16.73l8.55,1.11,1.06.14s-.47,2.65-1.07,5.25c-.21.91-.43,1.81-.66,2.6-.28.98-.57,1.78-.82,2.17-.2.31-.55.63-.98.96-1.67,1.25-4.66,2.47-5.86,2.47-.1,0-.19,0-.26-.03-1.16-.28-1.14-1.09-5.01-1.94-3.87-.85-.86-3.07-2.73-4.72-.7-.61-1.08-1.13-1.32-1.62-.41-.81-.45-1.57-1.07-2.62-.97-1.69.04-2.78.04-2.78h.05s10.08-.98,10.08-.98M23,16.4s-.02,0-.03,0l-10.08.98h-.05c-.08.01-.16.05-.21.11-.05.05-1.16,1.3-.08,3.18.34.58.49,1.06.65,1.53.12.36.23.71.41,1.07.3.6.75,1.15,1.4,1.72.65.57.6,1.21.53,1.94-.1,1.08-.2,2.29,2.34,2.85,2.47.55,3.3,1.06,3.91,1.44.34.21.64.39,1.09.5.1.02.21.04.34.04,1.32,0,4.38-1.28,6.06-2.54.49-.37.84-.72,1.05-1.04.26-.4.55-1.16.86-2.27.2-.68.41-1.52.66-2.61.59-2.58,1.07-5.24,1.08-5.27.02-.09,0-.18-.06-.26-.05-.07-.14-.12-.23-.13l-1.06-.14-8.55-1.11s-.03,0-.04,0h0Z"/>
              </g>
              <path class="cls-16" d="M23.44,27.53s-.46-2.48-2.5-2.55c-2.04-.07-2.77-.67-3.23-.76s-.84.14.01.81,2.37.63,3.1.61c.73-.02,1.79,1.43,1.79,1.43"/>
              <path class="cls-29" d="M30.06,28c-.2.31-.55.63-.98.96-.31-.06-.64-.19-.97-.41-2-1.3-1.44-3.43,1.04-2.79.78.2,1.34.19,1.73.06-.28.98-.57,1.78-.82,2.17Z"/>
              <path class="cls-29" d="M25.89,28.15c-1,.37-1.1-1.22-3.25-2.64-2.15-1.41-5.5-1.09-5.56-1.52-.07-.44-1.31,1.11.81,1.67,2.12.56,4.07-.4,4.55,1.5.48,1.9-1.47.56-3.31.05-1.84-.5-3.17-1.98-4.05-3.32-.32-.48-.75-.7-1.19-.78-.26-.52-.37-1.02-.58-1.59-.12-.32-.27-.65-.48-1.03-.97-1.69.04-2.78.04-2.78l10.14-.98,9.61,1.25s-.34,1.87-.8,4.01c-.09.41-.18.82-.27,1.24-1.04.74-3.38.33-4.39.61-2.85.79-.25,3.94-1.25,4.31Z"/>
              <path class="cls-29" d="M31.81,22c-.54.12-1.1.25-1.63.36-2.05.43-4.8,1.98-5.48,2.65-.68.66-1.47-.2-2.55-.81-1.08-.61-2.99-1.97-5.92-2.03-1.37-.02-2.31-.32-2.91-.63-.12-.32-.27-.65-.48-1.03-.97-1.69.04-2.78.04-2.78l10.14-.98,9.61,1.25s-.34,1.87-.8,4.01Z"/>
              <path class="cls-10" d="M30.06,28c-.2.31-.55.63-.98.96-1.82,1.36-5.18,2.68-6.12,2.45-1.16-.28-1.14-1.09-5.01-1.94-3.87-.85-.86-3.07-2.73-4.72-.7-.62-1.08-1.13-1.32-1.62-.41-.81-.45-1.57-1.07-2.62-.97-1.69.04-2.78.04-2.78h.05c.09.67.21,1.56.3,2.38.18,1.59,1.72,2.74,2.24,3.83.53,1.09,1.71,1.44,1.01,3.21-.7,1.76,1.11,1.75,1.21,1.73.11,0,2.26-.19,3.28.47,1.01.66,1.14,1.69,2.8,1.24,1.67-.45,4.95-1.72,6.36-4.53,1.06-2.12,1.35-6.27,1.42-8.2l1.06.14s-.47,2.65-1.07,5.25c-.21.91-.43,1.81-.66,2.6-.28.98-.57,1.78-.82,2.17Z"/>
            </g>
            <ellipse class="cls-10" cx="23.76" cy="29.35" rx="1.32" ry=".59" transform="translate(-5.2 5.12) rotate(-11.09)"/>
            <ellipse class="cls-10" cx="29.87" cy="24.39" rx=".9" ry=".49" transform="translate(-.31 48.4) rotate(-77.74)"/>
            <g>
              <g>
                <path class="cls-40" d="M25.87,22.59s-1.82-.02-4.08-.27c-3.78-.42-6.48-1.16-8.03-2.21-.14-.1-.27-.19-.39-.29-3.73-3.06-3.91-7.33-3.81-9.02.16-2.67,1.69-3.2,4.02-3.7,1.07-.23,1.49-.62,1.83-.94.3-.28.56-.52,1.1-.52.07,0,.15,0,.24.01.15.03.24.04.33.06,1.69.37,3.06,1.18,3.12,1.21l1.48,1.68,8.12,9.28c.05.06.05.16,0,.22l-3.81,4.43s-.08.06-.13.06h0Z"/>
                <path class="cls-8" d="M16.52,5.81c.07,0,.14,0,.22.01.09.02.2.03.31.06,1.68.37,3.07,1.19,3.07,1.19l1.44,1.64,8.12,9.28-3.81,4.43s-1.79-.02-4.06-.27c-2.69-.3-6.07-.91-7.95-2.18-.14-.09-.26-.18-.38-.28-3.19-2.62-3.9-6.34-3.75-8.89.15-2.54,1.57-3.05,3.89-3.55,2.03-.44,1.85-1.45,2.9-1.45M16.52,5.48h0c-.6,0-.91.28-1.21.56-.34.32-.73.67-1.76.9-2.32.5-3.98,1.08-4.15,3.85-.1,1.72.08,6.05,3.87,9.16.12.1.25.19.4.29,1.57,1.07,4.3,1.82,8.1,2.24,2.26.25,4.07.27,4.09.27h0c.1,0,.19-.04.25-.12l3.81-4.43c.11-.13.11-.31,0-.44l-8.12-9.28-1.44-1.64s-.05-.05-.08-.07c-.06-.03-1.45-.85-3.17-1.23-.1-.02-.19-.04-.28-.05h-.05c-.11-.02-.2-.03-.28-.03h0Z"/>
              </g>
              <path class="cls-29" d="M29.68,18l-3.81,4.43s-8.54-.1-12.01-2.45c.18-.51.24-1.06-.15-1.32-.85-.55.45-1.64-.89-3.14-1.34-1.5-2.64-2.68-2.08-4.86.56-2.17,2.1-2.07,4.61-2.49,1.61-.28,1.61-1.5,1.4-2.34.09.02.2.03.31.06,1.68.37,3.07,1.19,3.07,1.19l9.56,10.92Z"/>
              <path class="cls-22" d="M11.24,9.86s.28-.78,2.79-1.01c2.51-.23,2.13.24,2.12.29s-3.44.68-4.16,1.09c-.72.41-.9.71-.9.71"/>
              <path class="cls-21" d="M14.27,16.57s-2.71-4.36-3.04-3.51c-.32.85,1.44,3.78,1.77,4.13s.89.14.89.14"/>
              <path class="cls-10" d="M21.81,22.16c-2.69-.3-6.07-.91-7.95-2.18-.14-.09-.26-.18-.38-.28-3.19-2.62-3.9-6.34-3.75-8.89.15-2.54,1.57-3.05,3.89-3.55,2.16-.47,1.82-1.58,3.12-1.44.09.02.2.03.31.06,1.68.37,3.07,1.19,3.07,1.19l1.44,1.64-.55.13s-2.88-2.63-4.14-2.54c-1.25.09.2,1.05-2.46,1.35-2.65.3-3.24,1.04-3.84,1.79-.59.75-.33,4.55,1.74,7.66,2.07,3.11,4.55,3.17,4.63,3.11.04-.09-2.64-1.97-2.56-2.39.08-.43,2.29,1.56,3.38,2.37,1.09.8,4.05,1.91,4.05,1.91,0,0,0,.02-.02.06Z"/>
            </g>
            <g>
              <g>
                <path class="cls-48" d="M21.99,17.12s-.06,0-.08-.02c-.03-.02-3.18-1.82-4.72-4.96-.25-.52-.42-.92-.53-1.27-.5-1.56.08-2.22,1.34-3.46l.31-.31c.37-.36.79-.77,1.26-1.27,1.2-1.27,2.19-1.86,3.11-1.86.65,0,1.16.3,1.61.56.16.09.31.18.47.26.41.2.77.31,1.15.42.63.19,1.28.39,2.17,1.03.49.36,1.23,1.46,2.18,3.27,1.22,2.31,2.4,5.02,2.41,5.04.02.05.02.1,0,.14-.02.04-.06.08-.11.09l-10.54,2.34s-.02,0-.04,0Z"/>
                <path class="cls-8" d="M22.69,4.14c.82,0,1.4.52,2,.81,1.14.55,1.9.44,3.29,1.43.54.39,1.35,1.72,2.13,3.21,1.23,2.33,2.41,5.03,2.41,5.03l-.54.12-10,2.22s-3.12-1.75-4.65-4.89c-.23-.48-.41-.89-.52-1.24-.47-1.46.04-2.06,1.3-3.29.44-.43.97-.94,1.58-1.58,1.32-1.39,2.25-1.81,2.99-1.81M22.69,3.81h0c-.97,0-2,.61-3.23,1.92-.46.49-.88.9-1.24,1.25l-.33.32c-1.27,1.25-1.91,1.97-1.38,3.63.11.35.28.76.53,1.29,1.56,3.19,4.66,4.96,4.79,5.04.05.03.11.04.16.04.02,0,.05,0,.07,0l10-2.22.54-.12c.1-.02.18-.08.23-.17.05-.09.05-.19,0-.28-.01-.03-1.2-2.74-2.42-5.06-.98-1.86-1.71-2.95-2.23-3.32-.92-.66-1.58-.86-2.22-1.05-.37-.11-.72-.22-1.12-.41-.15-.07-.3-.16-.46-.25-.47-.27-1-.59-1.69-.59h0Z"/>
              </g>
              <path class="cls-10" d="M26.8,6.69s-2.18-.52-2.62-.42,1.22,1.44,2.22,1.32.4-.91.4-.91Z"/>
              <circle class="cls-10" cx="23.51" cy="5.76" r=".47"/>
              <path class="cls-29" d="M32.53,14.62l-10.54,2.34s-3.12-1.75-4.65-4.89c-1.19-2.45-.78-3.01.78-4.53.04.11.12.15.26.09.85-.41,3.03-1.87,4.55-.95,1.52.93,1.78,2.07,3.23,1.72.76-.18,2.48.5,3.96,1.19,1.23,2.33,2.41,5.03,2.41,5.03Z"/>
              <path class="cls-23" d="M22.85,6.3c.01-.14.08-.89-.26-1.09s-1.91.45-2.97,1.76c-1.06,1.31.75.68,1.8.11,1.05-.57,1.34-.24,1.34-.24"/>
              <path class="cls-10" d="M32.53,14.62l-.54.12c-1.27-2.51-4.49-8.58-5.94-8.63-1.83-.07-2.9-1.29-3.2-1.44s-2.27.38-3.76,2.5c-.89,1.27-1.74,2.7-2.27,3.65-.47-1.46.04-2.06,1.3-3.29.44-.43.97-.94,1.58-1.58,2.78-2.93,3.86-1.55,4.99-1.01,1.14.55,1.9.44,3.29,1.43.54.39,1.35,1.72,2.13,3.21,1.23,2.33,2.41,5.03,2.41,5.03Z"/>
            </g>
            <g>
              <g>
                <path class="cls-41" d="M16.61,16.57s-.07-.01-.1-.03c0,0-.81-.57-1.72-1.33-.31-.26-.64-.53-.95-.82-1.47-1.34-2.08-2.28-1.88-2.87.38-1.1,1.34-1.2,2.79-1.34.45-.04.97-.1,1.54-.18.99-.15,1.86-.61,2.71-1.06.84-.45,1.64-.87,2.42-.87.29,0,.56.06.82.17.18.08.37.17.57.29.14.08.29.17.44.26,1.58,1,3.3,2.55,3.32,2.57.04.04.06.09.05.15s-.04.1-.09.13l-9.83,4.94s-.05.02-.07.02Z"/>
                <path class="cls-8" d="M21.42,8.23c.25,0,.5.05.75.16.18.08.36.17.55.28.16.09.31.18.47.28,1.55.98,3.25,2.52,3.25,2.52l-9.83,4.94s-.79-.56-1.71-1.32h0c-.31-.26-.63-.53-.94-.82-1.08-.99-2.05-2.08-1.83-2.69.45-1.32,1.8-1.05,4.2-1.41,2.05-.31,3.63-1.93,5.1-1.93M21.42,7.89h0c-.82,0-1.64.43-2.5.89-.83.44-1.69.9-2.65,1.04-.57.09-1.08.14-1.53.18-1.46.15-2.52.25-2.93,1.45-.23.67.38,1.64,1.92,3.05.32.29.64.57.95.83,0,0,.02.01.02.02.91.75,1.68,1.3,1.71,1.32.06.04.12.06.19.06.05,0,.1-.01.15-.04l9.83-4.94c.1-.05.17-.14.18-.25.01-.11-.03-.22-.11-.29-.07-.06-1.75-1.58-3.3-2.56,0,0-.04-.03-.04-.03-.15-.09-.3-.18-.45-.27-.18-.11-.37-.21-.58-.29-.27-.12-.57-.18-.88-.18h0Z"/>
              </g>
              <path class="cls-29" d="M26.45,11.47l-9.83,4.94s-1.41-1-2.66-2.14c.71-.5,1.51-1.06,1.94-1.35.89-.6.3-1.7,1.1-2.19.8-.49,1.75,1.73,3.67,1.28,1.14-.27,2.14-2.53,2.05-3.34,1.65.92,3.73,2.8,3.73,2.8Z"/>
              <path class="cls-10" d="M23.19,8.95c-.82-.14-1.66-.13-2.35.24-2.19,1.17-6.06,1.9-7.6,1.96-1.54.06,1.97,4.01,1.97,4.01,0,0-.12-.03-.31-.07h0c-.31-.26-.63-.53-.94-.82-1.08-.99-2.05-2.08-1.83-2.69.45-1.32,1.8-1.05,4.2-1.41,2.4-.37,4.16-2.52,5.85-1.77.18.08.36.17.55.28.16.09.31.18.47.28Z"/>
              <path class="cls-10" d="M22.15,9.2s-3.16.65-2.92,1.18,2.43-.25,2.9-.62.02-.56.02-.56Z"/>
              <circle class="cls-10" cx="18.7" cy="10.75" r=".35"/>
              <path class="cls-10" d="M16.15,11.77s-2.05-.32-2.01.35,1.27.45,1.76.13.24-.48.24-.48Z"/>
            </g>
            <g>
              <g>
                <path class="cls-49" d="M31.03,20.31s-.05,0-.07-.01c-.05-.02-.08-.07-.1-.12l-.1-.47c-.2-.9-.36-1.52-.49-1.89-.05-.13-.09-.13-.1-.13-.1,0-.3.13-.49.27-.32.22-.72.49-1.17.49-1.09-.06-1.12-2.15-1.12-2.38.19-.68.6-2.44.29-3.03-.39-.74-2.37-2.45-2.39-2.47-.05-.04-.07-.11-.05-.17.02-.06.07-.11.13-.12.08-.01,1.93-.31,2.85-.31.14,0,.2,0,.26,0,.83.07,1.3.92,1.32.96.03.05.03.12,0,.17-.03.05-.08.08-.14.08,0,0-.03,0-.03,0,.37.16.78.38,1.2.7.39.28.77.64,1.11,1.05,1.67,2,1.51,4.39,1.19,5.38-.06.18-.16.36-.31.54-.57.75-1.67,1.41-1.72,1.44-.03.02-.06.02-.08.02Z"/>
                <path class="cls-8" d="M28.24,10.13s.04,0,.07,0c.06,0,.13,0,.17,0,.75.06,1.19.87,1.19.87l-1.45-.05c.28.03,1.37.19,2.52,1.05.36.26.73.61,1.08,1.03,1.66,1.98,1.46,4.31,1.16,5.22-.05.16-.15.33-.28.49-.56.74-1.68,1.4-1.68,1.4,0,0-.04-.19-.1-.47-.12-.54-.32-1.41-.5-1.91-.06-.17-.15-.24-.26-.24-.37,0-.98.76-1.66.76-.02,0-.03,0-.05,0-.9-.05-.91-2.22-.91-2.22,0,0,.68-2.33.27-3.11-.41-.78-2.43-2.52-2.43-2.52,0,0,1.91-.31,2.82-.31M28.24,9.8c-.93,0-2.8.3-2.88.32-.13.02-.23.11-.27.24s0,.26.1.34c.55.47,2.04,1.83,2.35,2.42.24.45-.03,1.95-.3,2.86,0,.03-.01.06-.01.09,0,.41.06,2.48,1.22,2.55,0,0,.06,0,.07,0,.49,0,.92-.29,1.26-.52.11-.07.25-.17.35-.22.12.36.29.99.48,1.87.06.27.1.46.1.46.02.11.09.2.19.24.04.02.09.03.14.03.06,0,.12-.02.17-.05.05-.03,1.18-.71,1.77-1.49.15-.19.27-.39.33-.59.33-1.01.49-3.48-1.22-5.53-.36-.43-.74-.79-1.14-1.08-.33-.25-.66-.44-.97-.59.04-.09.04-.2-.01-.29-.02-.04-.54-.97-1.46-1.05-.05,0-.13,0-.2,0h-.07Z"/>
              </g>
              <path class="cls-29" d="M32.71,18.74c-.56.74-1.68,1.4-1.68,1.4,0,0-.33-1.61-.59-2.38-.27-.77-1.07.57-1.97.52-.9-.05-.91-2.22-.91-2.22,0,0,.68-2.33.27-3.11-.41-.78-2.43-2.52-2.43-2.52,0,0,2.31-.37,3.06-.31.75.06,1.19.87,1.19.87l-1.48-.06c.21.02,1.35.15,2.56,1.06-1.03-.12-2.48-.32-2.7-.52-.36-.32.81,1.63,1.57,2.21s.02.98,1.25,1.75c.94.59,1.67,2.18,1.85,3.3Z"/>
              <path class="cls-10" d="M32.71,18.74c-.56.74-1.68,1.4-1.68,1.4,0,0-.04-.19-.1-.47.47-.37,1.15-.98,1.4-1.53.4-.87.65-2.86-.67-4.76-1.27-1.83-4.04-2.41-4.25-2.45.14-.05,1.3-.44,1.24-.58-.02-.05-.16-.13-.35-.23.06,0,.13,0,.17,0,.75.06,1.19.87,1.19.87l-1.45-.05c.28.03,1.37.19,2.52,1.05.36.26.73.61,1.08,1.03,1.66,1.98,1.46,4.31,1.16,5.22-.05.16-.15.33-.28.49Z"/>
              <path class="cls-18" d="M29.01,14.46s-1.77,3.29-.47,3.24,1.9-2.57,1.9-2.57"/>
              <path class="cls-10" d="M32.31,15.6s-.15-1.42-.99-2.46-.94-.21-.31.74,1.05,2.41,1.3,1.72Z"/>
            </g>
            <g>
              <g>
                <path class="cls-43" d="M25.45,23.78c-2.47,0-4.71-1.65-5.56-2.36-.34-.28-.54-.48-.54-.48-.06-.06-.06-.14-.02-.21.03-.05.08-.08.14-.08.02,0,.04,0,.06.01.3.11.63.21,1.02.3.67.15,1.37.23,2.09.23,1.64,0,3.13-.41,3.89-1.07,1.25-1.08,2.1-3.84,2.11-3.87.02-.07.09-.12.16-.12,0,0,2.32.28,2.32.28.05,0,.14.04.16.08,0,0,.14.22.3.54.3.62.61,1.5.36,2.17-.42,1.08-3.13,4.5-6.39,4.56h-.09Z"/>
                <path class="cls-8" d="M28.79,16.31l2.3.28h.04s.13.22.29.53c.27.55.59,1.41.35,2.03-.38.98-3.02,4.4-6.24,4.45-.03,0-.06,0-.09,0-2.35,0-4.5-1.52-5.45-2.32-.34-.27-.53-.47-.53-.47.33.13.68.23,1.04.31.7.16,1.43.24,2.13.24,1.66,0,3.2-.42,4-1.11,1.3-1.13,2.16-3.95,2.16-3.95M28.79,15.98c-.14,0-.28.09-.32.24,0,.03-.85,2.74-2.06,3.79-.73.63-2.18,1.03-3.78,1.03-.71,0-1.4-.08-2.06-.23-.39-.09-.71-.18-.99-.29-.04-.02-.08-.02-.12-.02-.11,0-.22.05-.28.15-.09.13-.07.31.04.42,0,0,.21.21.56.49.86.72,3.14,2.4,5.66,2.4h.09c3.34-.06,6.12-3.56,6.54-4.67.28-.72-.04-1.65-.36-2.3-.16-.33-.3-.55-.31-.56-.05-.08-.14-.14-.24-.15l-2.35-.29s-.03,0-.04,0h0Z"/>
              </g>
              <path class="cls-29" d="M30.51,17.35s-.92,2.79-1.48,3.39c-.57.6-1.25.12-3.92,1.18-1.56.62-3.64,0-5.11-.63-.34-.27-.53-.47-.53-.47,2.57.97,5.86.56,7.17-.56,1.3-1.13,2.16-3.95,2.16-3.95l2.34.29s.13.21.29.53l-.91.22Z"/>
              <path class="cls-10" d="M25.54,23.62c-2.39.04-4.57-1.51-5.54-2.32-.34-.27-.53-.47-.53-.47.33.13.68.23,1.04.31l1.14,1.15s3.61,1.33,5.27.63c1.66-.7,4.42-4.13,4.44-4.21.01-.04-.13-1.1-.26-2.11h.04s.13.22.29.53c.27.55.59,1.41.35,2.03-.38.98-3.02,4.4-6.24,4.45Z"/>
              <path class="cls-10" d="M27.32,21.58s-2.24.44-2.31.74,1.69.46,2.17.06.14-.81.14-.81Z"/>
              <ellipse class="cls-10" cx="30.54" cy="18.61" rx=".67" ry=".3" transform="translate(-1.13 35.23) rotate(-59.05)"/>
            </g>
            <g>
              <g>
                <g>
                  <path class="cls-42" d="M27.44,18.99c-.06,0-.11-.03-.14-.08,0,0-.05-.08-.15-.22-.34-.46-1.08-1.37-2.32-2.21-1.21-.83-2.8-1.5-3.75-1.9-.4-.17-.69-.29-.82-.37-.23-.13-.81-.23-1.72-.29h-.12s-.11-.04-.12-.05c-.16-.1-.33-.29-.37-.55-.04-.27.06-.54.3-.83.05-.07.12-.14.2-.21.22-.19.48-.39.77-.58.92-.62,2.03-1.15,2.04-1.15.06-.02.62-.06,1.41-.06h.15c1.29,0,3.04.11,4.08.65.07.03.13.07.2.11,1.06.68,1.91,1.74,2.33,2.91.25.68.34,1.39.26,2.05-.07.55-.28,1.06-.62,1.52-.63.85-1.49,1.24-1.53,1.25-.02,0-.04.01-.07.01Z"/>
                  <path class="cls-8" d="M22.65,10.65s.06,0,.09,0c.02,0,.04,0,.06,0,1.25,0,2.99.11,3.99.63.07.03.13.07.19.11,1.01.64,1.85,1.67,2.26,2.82.24.64.33,1.31.25,1.98-.07.58-.31,1.06-.59,1.44-.62.83-1.46,1.2-1.46,1.2,0,0-.05-.08-.16-.23-.31-.42-1.08-1.38-2.36-2.25-1.72-1.17-4.14-2.02-4.58-2.28-.44-.26-1.81-.31-1.91-.32-.01,0-.04-.01-.07-.03-.17-.11-.55-.5-.03-1.12.05-.06.11-.13.19-.2.21-.19.47-.38.75-.57.92-.62,2.02-1.14,2.02-1.14,0,0,.56-.04,1.35-.04M22.65,10.32c-.79,0-1.35.04-1.37.04-.04,0-.08.01-.12.03-.05.02-1.13.54-2.06,1.16-.31.21-.57.41-.78.6-.09.08-.16.16-.23.24-.27.31-.38.64-.33.95.05.32.26.55.44.66.08.04.15.08.24.08-.01,0,.03,0,.09,0,1.17.08,1.54.2,1.65.27.14.08.42.2.84.38.94.4,2.52,1.07,3.72,1.88,1.26.86,2.01,1.8,2.28,2.17.09.13.14.21.14.21.06.1.17.15.28.15.05,0,.09,0,.13-.03.04-.02.93-.42,1.59-1.3.36-.48.58-1.02.65-1.6.08-.69,0-1.43-.27-2.13-.43-1.2-1.31-2.29-2.4-2.99-.07-.04-.14-.09-.22-.12-1.06-.55-2.84-.66-4.14-.66h-.06s-.09,0-.09,0h0Z"/>
                </g>
                <path class="cls-29" d="M28.9,17.62c-.62.83-1.46,1.2-1.46,1.2,0,0-.8-1.31-2.51-2.48-1.72-1.17-4.14-2.02-4.58-2.28-.44-.26-1.81-.31-1.91-.32-.1-.01-.7-.43-.1-1.15l2.3.26-1.36-1.03c.92-.62,2.02-1.14,2.02-1.14,0,0,4.1-.31,5.67.69,1.01.64,1.85,1.67,2.26,2.82-.38.75-.87,1.91-.7,2.44.11.34.24.7.36.98Z"/>
                <path class="cls-10" d="M19.41,12.3c-.58.49-.88,1.01-1.03,1.42-.17-.11-.55-.5-.03-1.12.05-.06.11-.13.19-.2.21-.19.47-.38.75-.57.92-.62,2.02-1.14,2.02-1.14,0,0,.61-.05,1.44-.04-.88.3-2.5.93-3.33,1.64Z"/>
                <path class="cls-10" d="M28.9,17.62c-.62.83-1.46,1.2-1.46,1.2,0,0-.05-.08-.16-.23.65-.41,1.29-1.1,1.57-2.24.42-1.73-.98-3.79-2.06-5.07.07.03.13.07.19.11,1.01.64,1.85,1.67,2.26,2.82.24.64.33,1.31.25,1.98-.07.58-.31,1.06-.59,1.44Z"/>
              </g>
              <g>
                <g>
                  <path class="cls-44" d="M23.67,21.31c-1.64,0-3.42-.5-3.89-1.1-.14-.18-.27-.36-.39-.54-.47-.67-.95-1.37-2.71-2.41-.77-.46-1.14-.91-1.13-1.38.02-.72.92-1.3,1.8-1.76.28-.15.58-.3.89-.45l.13-.06c.53-.25,1.12-.38,1.74-.38s1.32.13,2,.4c.58.22.95.46.96.46l2.67.93c.15.12,2.53,2.17,2.02,4.09-.09.36-.28.69-.57.99-.96,1-2.45,1.21-3.54,1.21Z"/>
                  <path class="cls-8" d="M20.11,13.38c.74,0,1.43.19,1.94.39.57.22.93.45.93.45l2.58.91.12.04s2.4,2.05,1.92,3.89c-.08.32-.25.63-.53.92-.82.86-2.13,1.16-3.41,1.16-1.7,0-3.36-.54-3.76-1.04-.7-.88-.9-1.66-3.15-2.99-1.88-1.11-.96-1.99.67-2.86.32-.17.66-.34,1.02-.51.56-.27,1.13-.37,1.67-.37M20.11,13.05h0c-.65,0-1.26.13-1.81.4l-.12.06c-.32.15-.63.3-.91.46-.92.49-1.87,1.1-1.89,1.91-.01.54.38,1.04,1.21,1.53,1.73,1.02,2.2,1.7,2.66,2.36.13.18.25.36.4.55.51.64,2.31,1.16,4.02,1.16,1.12,0,2.66-.22,3.66-1.26.31-.32.51-.68.61-1.07.53-2.01-1.92-4.13-2.02-4.22-.03-.03-.07-.05-.11-.06l-.12-.04-2.55-.89c-.11-.07-.46-.27-.96-.46-.7-.27-1.39-.41-2.06-.41h0Z"/>
                </g>
                <path class="cls-29" d="M27.61,19.06c-.43-.01-.93.14-1.49.58-2.1,1.64-4.78.68-4.21.31.56-.37,2.1-1.89.83-1.65-1.28.24-2.76-.02-2.44-2.38.18-1.33-1.43-1.64-2.87-1.66.32-.17.66-.34,1.02-.51,2.19-1.04,4.54.47,4.54.47l2.7.95s2.4,2.05,1.92,3.89Z"/>
                <path class="cls-24" d="M26.48,18.45s-1.45,1.97-2.94,1.81c-1.49-.15.23-1.53.23-1.53"/>
                <path class="cls-25" d="M21.73,15.65s1.02,1.38,3.09,1.04c2.07-.34,2.33.54,1.21,1s-3.39.82-4.1-.4c-.71-1.23-.8-1.39-.8-1.39"/>
                <path class="cls-10" d="M27.08,19.98c-1.9,1.99-6.48,1-7.17.13-.7-.88-.9-1.66-3.15-2.99-1.88-1.11-.96-1.99.67-2.86.32-.17.66-.34,1.02-.51,1.33-.63,2.72-.32,3.61.02l.05.16s-2.09-.4-4.15.84c-2.05,1.23-.29,1.72,1.47,3.12,1.77,1.4,1.05,1.67,1.46,2.11.42.43,3.79,1.17,5.58-.18,1.46-1.09-.22-3.74-.9-4.69l.12.04s2.4,2.05,1.92,3.89c-.08.32-.25.63-.53.92Z"/>
                <path class="cls-26" d="M20.24,14.38s-3.06.57-2.64,1.67,3.21,2.67,3.21,2.67"/>
                <ellipse class="cls-10" cx="18.5" cy="16.37" rx=".38" ry=".89" transform="translate(-4.43 25.57) rotate(-63.36)"/>
              </g>
              <g>
                <g>
                  <path class="cls-50" d="M22.5,14.28c-.69,0-1.17-.27-1.4-.43l-.44-.96-.15-.35c-.03-.08-.37-.42-.2-.97.05-.16.12-.31.23-.45.43-.57,1.03-.73,1.27-.78,0,0,.02,0,.03,0,.09-.02.15-.02.15-.02l3.66.52c.07.01.13.07.14.15,0,.07.19,1.76-1.7,2.83-.53.3-1.07.46-1.59.46Z"/>
                  <path class="cls-8" d="M21.99,10.49l3.63.52s.2,1.64-1.61,2.66c-.56.32-1.07.44-1.51.44-.56,0-1-.19-1.3-.4l-.38-.89-.15-.35s0-.01,0-.03l-.04-.09s-.28-.27-.14-.73c.04-.12.1-.25.2-.39.38-.5.91-.67,1.17-.71h0c.09-.02.15-.02.15-.02M21.99,10.16s0,0,0,0c0,0-.06,0-.17.02-.01,0-.02,0-.03,0-.26.05-.91.23-1.37.84-.12.15-.2.32-.26.5-.14.46.03.83.18,1.01v.03s.02.03.03.04h0s.15.35.15.35l.38.89c.02.06.06.1.11.14.24.17.76.46,1.5.46.55,0,1.11-.16,1.67-.48,1.98-1.12,1.79-2.92,1.78-2.99-.02-.15-.13-.27-.28-.29l-3.63-.52s-.04,0-.05,0h0Z"/>
                </g>
                <path class="cls-29" d="M24,13.67c-1.26.72-2.28.41-2.81.03l-.38-.89c.29.1.63.19.92.21.64.04,1.03-.07.15-.3-.88-.22-1.05-.66-1.05-.66,0,0,.49-.09.28-.36-.13-.16-.42-.14-.65-.11.04-.12.1-.25.2-.39.52-.69,1.32-.74,1.32-.74l3.63.52s.2,1.64-1.61,2.66Z"/>
                <path class="cls-10" d="M23.61,11.29s-1.83-.36-2.47.21c-.53.48-.51.83-.5.94l-.04-.09s-.28-.27-.14-.73c.04-.12.1-.25.2-.39.38-.5.91-.67,1.17-.71h0c.84.37,1.77.78,1.77.78Z"/>
                <ellipse class="cls-10" cx="21.77" cy="12.3" rx=".26" ry=".41" transform="translate(1.01 26.24) rotate(-63.36)"/>
              </g>
              <g>
                <g>
                  <path class="cls-47" d="M24.8,16.28c-.32,0-.66-.03-1-.1-.65-.12-1.25-.5-1.79-1.14-.28-.34-.47-.65-.58-.85-.14-.24-.2-.4-.2-.4-.02-.06-.01-.12.02-.17.03-.04.08-.06.13-.06,0,0,.02,0,.03,0,0,0,.61.1,1.33.1.83,0,1.9-.13,2.23-.78.63-1.2.25-2.6.25-2.61-.02-.06,0-.13.05-.17.03-.03.07-.04.11-.04.02,0,.04,0,.06.01,0,0,.15.06.37.17.47.23,1.29.68,1.55,1.18l.22.4c.28.49.8,1.41.18,2.71-.54,1.11-1.59,1.73-2.97,1.73Z"/>
                  <path class="cls-8" d="M25.38,10.24s.15.06.36.17c.47.23,1.24.67,1.48,1.11.07.12.14.25.23.4.34.6.73,1.4.17,2.56-.55,1.13-1.59,1.63-2.81,1.63-.31,0-.64-.03-.97-.1-.72-.14-1.29-.61-1.69-1.08-.25-.3-.44-.6-.57-.82h0c-.13-.23-.19-.38-.19-.38,0,0,.62.1,1.36.1.91,0,2.01-.16,2.38-.86.67-1.28.26-2.73.26-2.73M25.38,9.91c-.08,0-.16.03-.22.08-.1.08-.13.22-.1.34,0,.01.36,1.35-.24,2.49-.23.44-.97.69-2.08.69-.7,0-1.29-.1-1.3-.1-.02,0-.04,0-.06,0-.1,0-.2.05-.26.13-.08.09-.09.22-.05.34,0,0,.07.16.2.41,0,.01.02.03.03.04.12.21.31.51.58.84.57.66,1.2,1.07,1.88,1.19.35.07.7.1,1.03.1,1.44,0,2.55-.65,3.11-1.82.66-1.38.11-2.35-.18-2.87l-.09-.17c-.05-.08-.09-.16-.13-.23-.27-.51-1.03-.96-1.63-1.25-.23-.11-.38-.18-.38-.18-.04-.02-.08-.03-.13-.03h0Z"/>
                </g>
                <path class="cls-29" d="M25.79,14.03c-2.08.82-3.49.52-3.49.52l-.16.39c-.5-.6-.76-1.2-.76-1.2,0,0,3.06.52,3.74-.76s.26-2.73.26-2.73c0,0,1.5.63,1.84,1.28.07.12.14.25.23.4-.16.78-.59,1.68-1.66,2.1Z"/>
                <ellipse class="cls-10" cx="24.7" cy="14.95" rx=".31" ry=".78" transform="translate(7.97 38.48) rotate(-85.78)"/>
                <ellipse class="cls-10" cx="26.59" cy="14.1" rx=".44" ry=".17" transform="translate(-.53 27.15) rotate(-53.63)"/>
                <path class="cls-10" d="M27.62,14.48c-.69,1.42-2.16,1.85-3.79,1.54-.72-.14-1.29-.61-1.69-1.08-.25-.3-.44-.6-.57-.82,2.23,2.22,5.36,1.36,5.72-.36.26-1.21-.79-2.56-1.56-3.35.47.23,1.24.67,1.48,1.11.07.12.14.25.23.4.34.6.73,1.4.17,2.56Z"/>
              </g>
              <g>
                <path class="cls-51" d="M24.34,11.43c-.66.41-1.37.06-1.37.06l-.1.06-.67.39h-.03s-1.25-.99-.61-1.78c.28-.34.72-.38,1.09-.33.37.05.67.18.67.18.81-.25,1.22-.03,1.37.32.15.37-.01.88-.36,1.1Z"/>
                <path class="cls-29" d="M24.34,11.43c-.66.41-1.37.06-1.37.06l-.1.06s0-.01,0-.02c-.06-.08-.52.07-.87-.25-.34-.32-.2-.83-.2-.83,0,0,.12.44.37.65.25.21.47-.06.2-.53-.27-.47.3-.71.3-.71v-.03c.37.05.67.18.67.18,1.68-.52,1.67,1,1.01,1.41Z"/>
                <path class="cls-10" d="M24.57,10.61s-.06-.27-.34-.39c-.29-.12-.97.27-.97.27,0,0-.77-.27-1.11.13-.27.33-.04,1.07.06,1.32h-.03s-1.25-.99-.61-1.78c.28-.34.72-.38,1.09-.33.37.05.67.18.67.18.81-.25,1.22-.03,1.37.32-.07.15-.14.28-.14.28Z"/>
                <g>
                  <path class="cls-33" d="M22.98,11.49s.7.35,1.36-.06c.66-.41.68-1.93-1-1.42,0,0-1.21-.53-1.76.15-.64.79.6,1.79.6,1.79"/>
                  <path class="cls-8" d="M22.99,11.48c1.83.55,2.46-2.12.39-1.34-1.76-.53-2.41.48-1.18,1.81.01.01,0,.04-.02.03-.29-.18-.54-.42-.73-.72-.51-.71.06-1.66.93-1.6.37,0,.7.1,1.02.25h-.09c.36-.07.74-.12,1.09.04.81.36.49,1.66-.35,1.76-.38.09-.77,0-1.07-.2-.02-.01,0-.03.01-.03h0Z"/>
                </g>
              </g>
              <g>
                <path class="cls-34" d="M22.45,12.42s.22-.05.5-.21c.33-.19.73-.53.93-1.11l.42-.78.05-.09s.01-.01.04-.03c.12-.11.54-.44.95-.29.42.14,1.1.78.89,1.78-.02.12-.06.25-.12.38-.49,1.22-2.13,1.4-3.66.35Z"/>
                <path class="cls-29" d="M22.45,12.42s1.07-.26,1.42-1.32l.42-.78c.31.02.67.14.73.52.11.68-.45,1.42-.03,1.4.26,0,.84-.31,1.23-.54-.02.12-.06.25-.12.38-.49,1.22-2.13,1.4-3.66.35Z"/>
                <ellipse class="cls-10" cx="24.27" cy="12.08" rx=".34" ry=".18" transform="translate(-.67 1.44) rotate(-3.36)"/>
                <path class="cls-10" d="M22.45,12.42s.22-.05.5-.21c.82.22,2.17.53,2.45.11.41-.62.28-1.5-.21-1.87-.27-.21-.58-.25-.8-.25.12-.11.54-.44.95-.29.42.14,1.1.78.89,1.78-.02.12-.06.25-.12.38-.49,1.22-2.13,1.4-3.66.35Z"/>
                <g>
                  <path class="cls-35" d="M24.44,13.28c-.67,0-1.4-.25-2.08-.71-.05-.04-.08-.1-.07-.17.01-.06.06-.12.12-.13,0,0,.98-.26,1.3-1.21l.49-.9c.05-.06.46-.44.92-.44.09,0,.18.01.26.04.28.1.68.38.9.87.14.32.26.84-.02,1.52-.29.73-.96,1.14-1.83,1.14h0Z"/>
                  <path class="cls-8" d="M25.12,9.87c.07,0,.14.01.21.03.48.17,1.27.94.78,2.17-.28.68-.91,1.04-1.68,1.04-.61,0-1.31-.22-1.99-.68,0,0,1.07-.26,1.42-1.32l.48-.87s.37-.36.78-.36M25.12,9.54c-.53,0-.96.4-1.01.45-.02.02-.05.05-.06.08l-.48.87s-.02.04-.02.05c-.29.87-1.15,1.1-1.19,1.11-.13.03-.22.14-.25.27-.02.13.03.26.14.33.71.48,1.48.74,2.18.74.93,0,1.67-.47,1.99-1.24.3-.73.17-1.3.02-1.65-.24-.53-.69-.85-.99-.96-.1-.04-.21-.05-.32-.05h0Z"/>
                </g>
              </g>
              <g>
                <path class="cls-32" d="M23.37,11.64s-.05,0-.07-.02c-.04-.02-.07-.06-.09-.1,0,0-.1-.3-.32-.73-.1-.19-.07-.31-.02-.39.06-.1.18-.16.32-.16.23,0,.51.13.55.35.1-.02.16-.03.22-.03.08,0,.15-.01.23-.01.11,0,.2.02.28.06.06.03.15.16.15.22,0,.17-.18.34-.54.53-.02.01-.05.02-.08.02h0c-.09.06-.26.13-.57.25-.02,0-.04.01-.06.01Z"/>
                <path class="cls-8" d="M23.19,10.42c.16,0,.36.09.39.22.02.09.1.11.21.11.12,0,.27-.03.4-.03.08,0,.15,0,.2.04.25.12-.39.45-.39.45,0,0-.16-.39-.2-.4,0,0,0,0,0,0-.03,0,.1.38.11.42,0,.04-.54.24-.54.24,0,0-.1-.31-.33-.75-.11-.22,0-.3.15-.3M23.19,10.09c-.21,0-.38.09-.47.24-.05.09-.12.28.02.55.21.41.31.69.31.7.03.09.09.16.17.2.05.02.1.03.15.03.04,0,.08,0,.11-.02.25-.09.44-.16.57-.24.03,0,.07-.02.1-.03.63-.33.63-.59.63-.68,0-.16-.09-.29-.24-.37-.1-.05-.21-.07-.35-.07-.08,0-.16,0-.24.02-.03,0-.07,0-.1,0-.13-.21-.41-.33-.65-.33h0Z"/>
              </g>
            </g>
          </g>
        </g>
      </g>
    </g>
  </g>
</svg>