<?xml version="1.0" encoding="UTF-8"?>
<svg xmlns="http://www.w3.org/2000/svg" xmlns:xlink="http://www.w3.org/1999/xlink" viewBox="0 0 41 45.92">
  <defs>
    <style>
      .cls-1 {
        fill: url(#linear-gradient-8);
      }

      .cls-2 {
        fill: url(#linear-gradient-7);
      }

      .cls-3 {
        fill: url(#linear-gradient-5);
      }

      .cls-4 {
        fill: url(#linear-gradient-9);
      }

      .cls-5 {
        fill: url(#linear-gradient-3);
      }

      .cls-6 {
        fill: #630506;
      }

      .cls-7 {
        fill: #183006;
      }

      .cls-8 {
        fill: #fff;
      }

      .cls-8, .cls-9, .cls-10, .cls-11, .cls-12, .cls-13, .cls-14, .cls-15, .cls-16, .cls-17, .cls-18, .cls-19, .cls-20, .cls-21, .cls-22, .cls-23, .cls-24, .cls-25, .cls-26, .cls-27, .cls-28, .cls-29 {
        mix-blend-mode: overlay;
      }

      .cls-30 {
        fill: url(#linear-gradient);
      }

      .cls-31 {
        isolation: isolate;
      }

      .cls-9 {
        fill: url(#linear-gradient-2);
      }

      .cls-10 {
        fill: url(#linear-gradient-4);
      }

      .cls-11 {
        fill: url(#linear-gradient-6);
      }

      .cls-12 {
        fill: url(#linear-gradient-12);
      }

      .cls-13 {
        fill: url(#linear-gradient-53);
      }

      .cls-14 {
        fill: url(#linear-gradient-51);
      }

      .cls-15 {
        fill: url(#linear-gradient-52);
      }

      .cls-16 {
        fill: url(#linear-gradient-20);
      }

      .cls-17 {
        fill: url(#linear-gradient-14);
      }

      .cls-18 {
        fill: url(#linear-gradient-15);
      }

      .cls-19 {
        fill: url(#linear-gradient-17);
      }

      .cls-20 {
        fill: url(#linear-gradient-25);
      }

      .cls-21 {
        fill: url(#linear-gradient-26);
      }

      .cls-22 {
        fill: url(#linear-gradient-24);
      }

      .cls-23 {
        fill: url(#linear-gradient-39);
      }

      .cls-24 {
        fill: url(#linear-gradient-42);
      }

      .cls-25 {
        fill: url(#linear-gradient-41);
      }

      .cls-26 {
        fill: url(#linear-gradient-47);
      }

      .cls-27 {
        fill: url(#linear-gradient-44);
      }

      .cls-32 {
        fill: url(#linear-gradient-43);
      }

      .cls-33 {
        fill: url(#linear-gradient-40);
      }

      .cls-34 {
        fill: url(#linear-gradient-49);
      }

      .cls-35 {
        fill: url(#linear-gradient-48);
      }

      .cls-36 {
        fill: url(#linear-gradient-45);
      }

      .cls-37 {
        fill: url(#linear-gradient-46);
      }

      .cls-38 {
        fill: url(#linear-gradient-10);
      }

      .cls-39 {
        fill: url(#linear-gradient-11);
      }

      .cls-40 {
        fill: url(#linear-gradient-13);
      }

      .cls-41 {
        fill: url(#linear-gradient-19);
      }

      .cls-42 {
        fill: url(#linear-gradient-21);
      }

      .cls-43 {
        fill: url(#linear-gradient-22);
      }

      .cls-44 {
        fill: url(#linear-gradient-23);
      }

      .cls-45 {
        fill: url(#linear-gradient-28);
      }

      .cls-46 {
        fill: url(#linear-gradient-32);
      }

      .cls-47 {
        fill: url(#linear-gradient-31);
      }

      .cls-48 {
        fill: url(#linear-gradient-33);
      }

      .cls-49 {
        fill: url(#linear-gradient-30);
      }

      .cls-50 {
        fill: url(#linear-gradient-16);
      }

      .cls-51 {
        fill: url(#linear-gradient-18);
      }

      .cls-52 {
        fill: url(#linear-gradient-35);
      }

      .cls-53 {
        fill: url(#linear-gradient-34);
      }

      .cls-54 {
        fill: url(#linear-gradient-36);
      }

      .cls-55 {
        fill: url(#linear-gradient-38);
      }

      .cls-56 {
        fill: url(#linear-gradient-27);
      }

      .cls-57 {
        fill: url(#linear-gradient-29);
      }

      .cls-58 {
        fill: url(#linear-gradient-37);
      }

      .cls-59 {
        fill: url(#linear-gradient-57);
      }

      .cls-60 {
        fill: url(#linear-gradient-58);
      }

      .cls-61 {
        fill: url(#linear-gradient-59);
      }

      .cls-62 {
        fill: url(#linear-gradient-54);
      }

      .cls-63 {
        fill: url(#linear-gradient-55);
      }

      .cls-64 {
        fill: url(#linear-gradient-56);
      }

      .cls-65 {
        fill: url(#linear-gradient-50);
      }

      .cls-66 {
        fill: url(#linear-gradient-60);
      }

      .cls-28 {
        opacity: .32;
      }

      .cls-29 {
        opacity: .83;
      }
    </style>
    <linearGradient id="linear-gradient" x1="209.35" y1="63.85" x2="208.39" y2="55.94" gradientTransform="translate(235.82 24.65) rotate(-166.9) scale(1 -1)" gradientUnits="userSpaceOnUse">
      <stop offset="0" stop-color="#53bf0b"/>
      <stop offset="1" stop-color="#2c730e"/>
    </linearGradient>
    <linearGradient id="linear-gradient-2" x1="209.4" y1="57.97" x2="207.82" y2="48.57" gradientTransform="translate(235.82 24.65) rotate(-166.9) scale(1 -1)" gradientUnits="userSpaceOnUse">
      <stop offset=".04" stop-color="#fff"/>
      <stop offset=".53" stop-color="#bfbfbf" stop-opacity="0"/>
    </linearGradient>
    <linearGradient id="linear-gradient-3" x1="290.13" y1=".67" x2="288.45" y2="12.41" gradientTransform="translate(310.5) rotate(-180) scale(1 -1)" xlink:href="#linear-gradient"/>
    <linearGradient id="linear-gradient-4" x1="290.63" y1="2.2" x2="287.48" y2="14.92" gradientTransform="translate(310.5) rotate(-180) scale(1 -1)" xlink:href="#linear-gradient-2"/>
    <linearGradient id="linear-gradient-5" x1="303.72" y1="10.46" x2="300.9" y2="14.42" gradientTransform="translate(310.5) rotate(-180) scale(1 -1)" xlink:href="#linear-gradient"/>
    <linearGradient id="linear-gradient-6" x1="305.86" y1="10.42" x2="297.52" y2="18.08" gradientTransform="translate(310.5) rotate(-180) scale(1 -1)" xlink:href="#linear-gradient-2"/>
    <linearGradient id="linear-gradient-7" x1="169.42" y1="-67.34" x2="163.24" y2="-55.37" gradientTransform="translate(157.39 135.92) rotate(-158.63) scale(1 -1)" gradientUnits="userSpaceOnUse">
      <stop offset="0" stop-color="#ff3038"/>
      <stop offset="1" stop-color="#b3171a"/>
    </linearGradient>
    <linearGradient id="linear-gradient-8" x1="167.98" y1="-67.84" x2="161.88" y2="-56.02" xlink:href="#linear-gradient-7"/>
    <linearGradient id="linear-gradient-9" x1="167.86" y1="-67.93" x2="161.76" y2="-56.11" xlink:href="#linear-gradient-7"/>
    <linearGradient id="linear-gradient-10" x1="159.17" y1="-72.54" x2="153.05" y2="-60.67" xlink:href="#linear-gradient-7"/>
    <linearGradient id="linear-gradient-11" x1="163.83" y1="-70.11" x2="157.72" y2="-58.27" xlink:href="#linear-gradient-7"/>
    <linearGradient id="linear-gradient-12" x1="469.69" y1="272.5" x2="470.63" y2="270.82" gradientTransform="translate(440.54 -336.74) rotate(168.89) scale(1 -1)" gradientUnits="userSpaceOnUse">
      <stop offset="0" stop-color="#fff"/>
      <stop offset="1" stop-color="#fff" stop-opacity="0"/>
    </linearGradient>
    <linearGradient id="linear-gradient-13" x1="161.18" y1="-71.39" x2="155.06" y2="-59.52" xlink:href="#linear-gradient-7"/>
    <linearGradient id="linear-gradient-14" x1="463.61" y1="263.45" x2="461.26" y2="265.09" xlink:href="#linear-gradient-12"/>
    <linearGradient id="linear-gradient-15" x1="462.91" y1="267.09" x2="464.25" y2="268.47" xlink:href="#linear-gradient-12"/>
    <linearGradient id="linear-gradient-16" x1="463.78" y1="262.28" x2="474.01" y2="262.28" gradientTransform="translate(440.54 -336.74) rotate(168.89) scale(1 -1)" xlink:href="#linear-gradient-7"/>
    <linearGradient id="linear-gradient-17" x1="465.13" y1="261.99" x2="466.1" y2="259.61" xlink:href="#linear-gradient-12"/>
    <linearGradient id="linear-gradient-18" x1="160.47" y1="-71.75" x2="154.27" y2="-59.75" xlink:href="#linear-gradient-7"/>
    <linearGradient id="linear-gradient-19" x1="165.99" y1="-68.87" x2="159.77" y2="-56.82" xlink:href="#linear-gradient-7"/>
    <linearGradient id="linear-gradient-20" x1="472.41" y1="265.26" x2="472.51" y2="262.26" xlink:href="#linear-gradient-12"/>
    <linearGradient id="linear-gradient-21" x1="165.36" y1="-69.32" x2="159.16" y2="-57.31" xlink:href="#linear-gradient-7"/>
    <linearGradient id="linear-gradient-22" x1="163.37" y1="-70.26" x2="157.09" y2="-58.1" xlink:href="#linear-gradient-7"/>
    <linearGradient id="linear-gradient-23" x1="162.88" y1="-70.65" x2="156.61" y2="-58.49" xlink:href="#linear-gradient-7"/>
    <linearGradient id="linear-gradient-24" x1="470.15" y1="267.69" x2="471.1" y2="266" xlink:href="#linear-gradient-12"/>
    <linearGradient id="linear-gradient-25" x1="471.85" y1="264.75" x2="468.63" y2="265.97" xlink:href="#linear-gradient-12"/>
    <linearGradient id="linear-gradient-26" x1="465.5" y1="267.03" x2="468.53" y2="265.95" xlink:href="#linear-gradient-12"/>
    <linearGradient id="linear-gradient-27" x1="162.38" y1="-70.77" x2="155.91" y2="-58.25" xlink:href="#linear-gradient-7"/>
    <linearGradient id="linear-gradient-28" x1="163.59" y1="-70.13" x2="157.27" y2="-57.88" xlink:href="#linear-gradient-7"/>
    <linearGradient id="linear-gradient-29" x1="466.74" y1="262.39" x2="468.67" y2="262.39" gradientTransform="translate(440.54 -336.74) rotate(168.89) scale(1 -1)" gradientUnits="userSpaceOnUse">
      <stop offset=".53" stop-color="#ff63f0"/>
      <stop offset="1" stop-color="#144efe"/>
    </linearGradient>
    <linearGradient id="linear-gradient-30" x1="162.18" y1="-70.8" x2="156.19" y2="-59.2" xlink:href="#linear-gradient-7"/>
    <linearGradient id="linear-gradient-31" x1="467.84" y1="262.34" x2="469.74" y2="262.34" xlink:href="#linear-gradient-29"/>
    <linearGradient id="linear-gradient-32" x1="163.09" y1="-70.33" x2="156.53" y2="-57.63" xlink:href="#linear-gradient-7"/>
    <linearGradient id="linear-gradient-33" x1="162.49" y1="-70.61" x2="154.59" y2="-55.3" xlink:href="#linear-gradient-7"/>
    <linearGradient id="linear-gradient-34" x1="451.47" y1="64.42" x2="443.21" y2="80.42" gradientTransform="translate(399.19 -204.87) rotate(157.87) scale(1 -1)" xlink:href="#linear-gradient-7"/>
    <linearGradient id="linear-gradient-35" x1="449.54" y1="63.78" x2="441.4" y2="79.55" gradientTransform="translate(399.19 -204.87) rotate(157.87) scale(1 -1)" xlink:href="#linear-gradient-7"/>
    <linearGradient id="linear-gradient-36" x1="449.34" y1="63.64" x2="441.2" y2="79.41" gradientTransform="translate(399.19 -204.87) rotate(157.87) scale(1 -1)" xlink:href="#linear-gradient-7"/>
    <linearGradient id="linear-gradient-37" x1="437.8" y1="57.52" x2="429.62" y2="73.35" gradientTransform="translate(399.19 -204.87) rotate(157.87) scale(1 -1)" xlink:href="#linear-gradient-7"/>
    <linearGradient id="linear-gradient-38" x1="444" y1="60.75" x2="435.85" y2="76.55" gradientTransform="translate(399.19 -204.87) rotate(157.87) scale(1 -1)" xlink:href="#linear-gradient-7"/>
    <linearGradient id="linear-gradient-39" x1="776.38" y1="235.91" x2="777.64" y2="233.67" gradientTransform="translate(279.26 -742.64) rotate(125.39) scale(1 -1)" xlink:href="#linear-gradient-12"/>
    <linearGradient id="linear-gradient-40" x1="440.48" y1="59.05" x2="432.3" y2="74.88" gradientTransform="translate(399.19 -204.87) rotate(157.87) scale(1 -1)" xlink:href="#linear-gradient-7"/>
    <linearGradient id="linear-gradient-41" x1="768.27" y1="223.84" x2="765.14" y2="226.02" gradientTransform="translate(279.26 -742.64) rotate(125.39) scale(1 -1)" xlink:href="#linear-gradient-12"/>
    <linearGradient id="linear-gradient-42" x1="767.34" y1="228.69" x2="769.12" y2="230.54" gradientTransform="translate(279.26 -742.64) rotate(125.39) scale(1 -1)" xlink:href="#linear-gradient-12"/>
    <linearGradient id="linear-gradient-43" x1="768.5" y1="222.27" x2="782.14" y2="222.27" gradientTransform="translate(279.26 -742.64) rotate(125.39) scale(1 -1)" xlink:href="#linear-gradient-7"/>
    <linearGradient id="linear-gradient-44" x1="770.3" y1="221.89" x2="771.59" y2="218.71" gradientTransform="translate(279.26 -742.64) rotate(125.39) scale(1 -1)" xlink:href="#linear-gradient-12"/>
    <linearGradient id="linear-gradient-45" x1="439.52" y1="58.56" x2="431.25" y2="74.58" gradientTransform="translate(399.19 -204.87) rotate(157.87) scale(1 -1)" xlink:href="#linear-gradient-7"/>
    <linearGradient id="linear-gradient-46" x1="446.89" y1="62.4" x2="438.58" y2="78.49" gradientTransform="translate(399.19 -204.87) rotate(157.87) scale(1 -1)" xlink:href="#linear-gradient-7"/>
    <linearGradient id="linear-gradient-47" x1="780.02" y1="226.25" x2="780.15" y2="222.25" gradientTransform="translate(279.26 -742.64) rotate(125.39) scale(1 -1)" xlink:href="#linear-gradient-12"/>
    <linearGradient id="linear-gradient-48" x1="446.05" y1="61.79" x2="437.77" y2="77.83" gradientTransform="translate(399.19 -204.87) rotate(157.87) scale(1 -1)" xlink:href="#linear-gradient-7"/>
    <linearGradient id="linear-gradient-49" x1="443.39" y1="60.54" x2="435.01" y2="76.78" gradientTransform="translate(399.19 -204.87) rotate(157.87) scale(1 -1)" xlink:href="#linear-gradient-7"/>
    <linearGradient id="linear-gradient-50" x1="442.74" y1="60.03" x2="434.37" y2="76.26" gradientTransform="translate(399.19 -204.87) rotate(157.87) scale(1 -1)" xlink:href="#linear-gradient-7"/>
    <linearGradient id="linear-gradient-51" x1="776.99" y1="229.49" x2="778.26" y2="227.24" gradientTransform="translate(279.26 -742.64) rotate(125.39) scale(1 -1)" xlink:href="#linear-gradient-12"/>
    <linearGradient id="linear-gradient-52" x1="779.26" y1="225.57" x2="774.96" y2="227.2" gradientTransform="translate(279.26 -742.64) rotate(125.39) scale(1 -1)" xlink:href="#linear-gradient-12"/>
    <linearGradient id="linear-gradient-53" x1="770.79" y1="228.61" x2="774.83" y2="227.17" gradientTransform="translate(279.26 -742.64) rotate(125.39) scale(1 -1)" xlink:href="#linear-gradient-12"/>
    <linearGradient id="linear-gradient-54" x1="442.07" y1="59.87" x2="433.47" y2="76.52" gradientTransform="translate(399.19 -204.87) rotate(157.87) scale(1 -1)" xlink:href="#linear-gradient-7"/>
    <linearGradient id="linear-gradient-55" x1="443.69" y1="60.73" x2="435.26" y2="77.07" gradientTransform="translate(399.19 -204.87) rotate(157.87) scale(1 -1)" xlink:href="#linear-gradient-7"/>
    <linearGradient id="linear-gradient-56" x1="772.45" y1="222.42" x2="775.02" y2="222.42" gradientTransform="translate(279.26 -742.64) rotate(125.39) scale(1 -1)" xlink:href="#linear-gradient-29"/>
    <linearGradient id="linear-gradient-57" x1="441.8" y1="59.83" x2="433.81" y2="75.3" gradientTransform="translate(399.19 -204.87) rotate(157.87) scale(1 -1)" xlink:href="#linear-gradient-7"/>
    <linearGradient id="linear-gradient-58" x1="773.92" y1="222.35" x2="776.44" y2="222.35" gradientTransform="translate(279.26 -742.64) rotate(125.39) scale(1 -1)" xlink:href="#linear-gradient-29"/>
    <linearGradient id="linear-gradient-59" x1="443.02" y1="60.46" x2="434.27" y2="77.4" gradientTransform="translate(399.19 -204.87) rotate(157.87) scale(1 -1)" xlink:href="#linear-gradient-7"/>
    <linearGradient id="linear-gradient-60" x1="442.22" y1="60.08" x2="431.66" y2="80.54" gradientTransform="translate(399.19 -204.87) rotate(157.87) scale(1 -1)" xlink:href="#linear-gradient-7"/>
  </defs>
  <g class="cls-31">
    <g id="Layer_2" data-name="Layer 2">
      <g id="Layer_1-2" data-name="Layer 1">
        <g>
          <g>
            <g>
              <path class="cls-30" d="M12.89,45.83c-.72,0-1.28-.12-1.58-.18l-.1-.02s-.08-.05-.07-.1c0-.05.04-.08.09-.08,0,0,.1,0,.15,0h.26c.78-.03,2.79-.31,4.5-2.01-.29-.33-.56-.72-.33-.94.11-.1.35-.18.65-.28.29-.1.62-.21.89-.36.11-.22.25-.49.38-.78.4-.89.77-1.81,1.08-2.73-.56-.25-.93-.44-.98-.65-.02-.07,0-.13.05-.18.09-.11.48-.44,1.11-.97l.49-.41c.33-1.4.55-2.79.63-4.09-.26.17-.58.32-.81.32-.11,0-.19-.03-.24-.09-.1-.08-.11-.25-.02-.5.2-.56.69-1.51,1.1-2.27-.12-1.7-.43-2.71-.44-2.72-.01-.04,0-.08.03-.1l3.23-2.61s.04-.02.06-.02c.01,0,.02,0,.03,0,.03.01.05.04.06.07,0,.02.33,2.3.22,5.08.6.83.46,1.52.39,1.66-.02.03-.06.06-.1.06-.04,0-.07-.02-.13-.04-.08-.04-.21-.09-.35-.09-.04.47-.22,2.12-.32,2.67.02.13.07.28.12.43.09.28.2.59.15.97-.1.95-.46,1.38-.77,1.38-.08,0-.15-.02-.21-.07-.37,1.21-.77,2.28-1.24,3.26l-.12.23c-.23,2.28-.36,2.53-.47,2.59,0,0-.01,0-.02,0-.2,0-.29-.2-.43-.49-.04-.08-.08-.17-.12-.25-2.32,3.55-4.96,4.3-6.78,4.3Z"/>
              <path class="cls-7" d="M22.99,24.14s.33,2.26.22,5.06c.62.89.44,1.55.4,1.62,0,0,0,0-.02,0-.06,0-.24-.13-.48-.13-.03,0-.05,0-.08,0-.05.52-.23,2.19-.33,2.75.05.43.34.83.27,1.41-.1.89-.42,1.3-.68,1.3-.1,0-.19-.06-.25-.16-.34,1.13-.75,2.28-1.29,3.41-.04.08-.08.16-.12.23-.12,1.11-.28,2.47-.43,2.55,0,0-.01,0-.02,0-.13,0-.29-.49-.5-.85-2.37,3.72-5.06,4.39-6.79,4.39-.8,0-1.4-.15-1.67-.2.04,0,.09,0,.16,0,0,0,.09,0,.25,0,.95-.05,2.94-.38,4.63-2.11-.22-.25-.59-.69-.39-.87.2-.18.98-.32,1.52-.62.14-.26.29-.53.42-.83.44-.98.81-1.92,1.11-2.82-.44-.19-1.17-.5-.98-.72.11-.14.85-.75,1.59-1.37.4-1.62.6-3.08.67-4.34-.32.23-.68.4-.91.4-.08,0-.14-.02-.17-.06-.07-.06-.08-.18,0-.4.21-.59.76-1.64,1.09-2.26-.11-1.78-.43-2.79-.43-2.79l.72-.58,2.5-2.03M22.99,23.95s-.08.01-.12.04l-2.5,2.03-.72.58c-.06.05-.08.13-.06.2,0,0,.31.99.42,2.69-.43.81-.88,1.7-1.08,2.24-.11.28-.09.49.06.6.03.04.13.1.29.1.23,0,.49-.12.7-.24-.09,1.23-.3,2.53-.63,3.89l-.45.38c-.65.55-1.03.87-1.12.98-.06.08-.09.17-.06.26.06.25.43.44.96.68-.31.9-.66,1.79-1.05,2.64-.12.27-.26.53-.39.77-.25.13-.56.23-.83.32-.31.1-.55.18-.68.3-.29.27.03.72.26,1-1.67,1.62-3.61,1.89-4.38,1.93-.14,0-.23,0-.23,0-.06,0-.1,0-.13,0-.1,0-.19.07-.2.17,0,.09.04.18.13.2l.1.02c.3.06.87.18,1.6.18,1.82,0,4.45-.74,6.77-4.21.02.04.03.07.05.11.16.34.26.56.47.56.03,0,.07-.01.1-.02.14-.07.27-.14.54-2.67.03-.07.07-.13.1-.2.46-.96.86-2,1.22-3.17.05.02.1.03.15.03.33,0,.75-.38.86-1.47.05-.4-.06-.73-.15-1.01-.05-.14-.09-.28-.11-.41.09-.54.25-1.94.31-2.56.09.01.17.05.23.07.06.03.11.05.17.05.07,0,.16-.05.19-.12.09-.17.21-.87-.39-1.75.1-2.76-.22-5.01-.22-5.03,0-.07-.05-.12-.12-.15-.02,0-.04-.01-.07-.01h0Z"/>
            </g>
            <path class="cls-28" d="M11.21,45.54c.82.16,4.98,1.27,8.47-4.19.22.38.39.9.52.84.15-.08.31-1.44.43-2.55.04-.07.08-.15.12-.23.54-1.13.95-2.27,1.29-3.41.25.4.8.08.93-1.14.07-.58-.21-.97-.27-1.41.1-.55.28-2.22.33-2.75.33-.04.56.17.58.11.04-.07.22-.73-.4-1.62.11-2.8-.22-5.06-.22-5.06l-3.22,2.61s.32,1.01.43,2.79c-.33.62-.88,1.67-1.09,2.26-.08.22-.07.34,0,.4.32-.33.85-.82,1.44-1.2.99-.64,1.32.67,1.28,1.68-.04,1.03.3,2.45.24,2.58-.07.13-.42-.18-.53-.15-.1.03-.4,1.46-1.61,4.13-1.22,2.66-2.72,4.4-4.34,5.43-1.32.83-3.28.89-3.96.87-.15,0-.25,0-.25,0-.06,0-.12,0-.16,0Z"/>
            <path class="cls-9" d="M11.22,45.54s.05,0,.07,0c2.96.16,5.31-2.04,5.31-2.04,0,0-.29-.6-.25-.78s1-.27,1-.27c0,0,.26-.05.56-.7.3-.65,1.48-3.57,1.48-3.65,0-.07-.8-.35-.66-.57.15-.23,1.15-.86,1.15-.86,0,0,.29-.52.47-1.87.16-1.37.4-3.43.36-3.44-.03,0-1.04.41-.67-.6.36-1.01.99-3.92.99-3.92l-.54-.68-.72.58s.32,1.01.43,2.79c-.33.62-.88,1.67-1.09,2.26-.08.22-.07.34,0,.4.16.17.65-.03,1.09-.34-.07,1.26-.27,2.72-.67,4.34-.74.63-1.48,1.24-1.59,1.37-.19.22.54.53.98.72-.3.9-.67,1.85-1.11,2.82-.13.3-.27.56-.42.83-.54.3-1.32.44-1.52.62-.2.18.17.63.39.87-1.68,1.72-3.68,2.06-4.63,2.11-.15,0-.25,0-.25,0-.06,0-.11,0-.16,0Z"/>
          </g>
          <g>
            <g>
              <path class="cls-5" d="M17.78,16.96s-.04,0-.06-.02c-2.25-2.07-3.74-4.22-4.44-6.41-.32-1.06-.46-2.04-.41-2.97.04-1.18.33-2.27.86-3.25-.12-.02-.24-.03-.38-.03h-.31c-.08,0-.15,0-.19-.04-.02-.02-.05-.08-.05-.11,0-.21.38-.63.9-1,.44-.32.99-.43,1.28-.47.69-.73,1.55-1.32,2.53-1.73-.02-.11-.06-.21-.09-.31-.06-.19-.12-.34-.04-.44.02-.02.14-.07.17-.07.27,0,1.42.34,1.55.37.45-.1.96-.15,1.47-.15,1.17,0,2.32.25,3.42.75.06.03.11.05.16.08.01,0,.02.01.03.02,0-.13-.02-.28-.04-.41-.03-.2-.05-.33.02-.41.02-.02.09-.05.11-.05.09,0,.22.08.43.26.65.55.87,1.22.93,1.49,1.08.71,2.02,1.68,2.77,2.81.07-.1.13-.21.18-.3.06-.1.11-.19.15-.25.01-.02.07-.09.16-.09.13,0,.2.17.25.34l.03.14c.19.7.2,1.78.2,1.99,1.06,2.4,1.12,4.61,1.12,4.63l-1.59,1.49s-.04.02-.06.02c-.01,0-.02,0-.03,0-.03-.01-.06-.04-.06-.08,0-.03-.2-2.84-1.62-5.52-.22.14-.42.17-.55.17-.27,0-.49-.13-.49-.28,0-.34.02-.98-.04-1.55-.3-.37-.61-.71-.92-1.01-.41-.38-.86-.72-1.37-1.04-.01.05-.03.1-.04.15-.11.42-.18.66-.35.66-.03,0-.12-.06-.14-.08-.06-.07-.16-.25-.29-.47-.17-.29-.39-.66-.59-.96-.69-.23-1.43-.37-2.17-.37-.32,0-.63.03-.94.08-.23.17-.46.6-.62.91-.16.3-.24.45-.36.45-.2-.15-.33-.66-.39-.93-.88.44-1.59,1.12-2.1,2.02,0,0-.07.23-.09.29-.35,1.06-.21,1.87-.16,2.22.03.15.03.21,0,.25,0,0-.1.03-.1.03-.07-.01-.1-.08-.31-.5-.03-.06-.05-.11-.08-.17-.64,4.38,4.43,8.24,4.48,8.28.02.02.04.04.04.07s-.01.05-.03.07l-1.65,1.42s-.04.02-.06.02Z"/>
              <path class="cls-7" d="M17.53.19c.2,0,1.01.22,1.52.37.49-.09.99-.14,1.5-.14,1.11,0,2.26.23,3.38.74.11.05.2.11.31.16.07-.39-.16-.92,0-.92.06,0,.17.07.37.24.61.52.83,1.15.9,1.44,1.24.85,2.17,1.88,2.85,2.95.19-.24.31-.53.41-.65.03-.04.06-.06.08-.06.05,0,.11.08.17.27.01.04.02.08.03.13.17.62.2,1.55.2,1.97,1.07,2.45,1.12,4.63,1.12,4.63l-1.56,1.42s-.19-2.89-1.68-5.65c-.21.16-.41.21-.58.21-.23,0-.4-.1-.4-.19,0-.12.03-.89-.04-1.56-.29-.38-.6-.74-.95-1.07-.47-.44-.97-.8-1.49-1.11-.1.3-.2.86-.34.86-.02,0-.04-.01-.06-.04-.13-.17-.52-.91-.88-1.43-.75-.27-1.5-.41-2.25-.41-.32,0-.64.03-.95.08-.49.34-.81,1.36-.97,1.36,0,0-.02,0-.02-.01-.11-.1-.24-.65-.3-.96-.9.42-1.68,1.11-2.25,2.11-.03.1-.07.2-.1.31-.48,1.44-.07,2.44-.15,2.44,0,0,0,0,0,0-.05-.01-.26-.51-.45-.88-.93,4.6,4.47,8.65,4.47,8.65l-1.65,1.42c-2.38-2.19-3.77-4.36-4.41-6.37,0,0,0-.03,0-.05-.31-1.01-.44-1.98-.4-2.89.04-1.23.36-2.35.91-3.32-.19-.05-.37-.06-.52-.06-.13,0-.23,0-.31,0-.06,0-.11,0-.13-.02-.1-.07.2-.51.84-.97.42-.3.94-.41,1.24-.45.74-.76,1.63-1.36,2.62-1.76-.05-.38-.33-.79-.07-.79M17.53,0c-.13,0-.2.06-.24.11-.1.14-.04.32.03.53.02.07.05.15.07.22-.94.4-1.78.97-2.5,1.7-.31.05-.83.17-1.26.47-.47.34-.94.8-.94,1.08,0,.08.04.15.1.19.05.05.15.06.24.06.04,0,.08,0,.13,0,.06,0,.12,0,.19,0,.09,0,.17,0,.24.01-.5.96-.77,2.03-.81,3.18-.04.94.1,1.93.41,2.95,0,.02,0,.03.01.05.7,2.2,2.2,4.37,4.46,6.45.04.03.08.05.13.05s.09-.01.12-.04l1.65-1.42s.07-.09.06-.15c0-.06-.03-.11-.07-.14-.05-.04-4.84-3.68-4.48-7.87.16.34.21.41.32.43.05,0,.15-.02.19-.06.07-.08.05-.16.03-.33-.06-.34-.19-1.14.15-2.17.02-.07.04-.12.06-.18.02-.05.03-.09.04-.14.47-.82,1.13-1.46,1.94-1.89.08.35.18.71.31.82.03.03.1.06.15.06.17,0,.26-.17.44-.5.15-.29.36-.69.6-.87.29-.05.58-.07.88-.07.71,0,1.42.13,2.13.38.19.28.39.63.55.9.14.23.23.4.3.48.07.09.16.11.21.11.24,0,.33-.31.44-.73,0-.01,0-.02,0-.03.47.29.88.61,1.25.96.3.28.6.61.9,1.01.05.55.04,1.16.04,1.39v.1c0,.21.25.38.58.38.13,0,.31-.03.51-.13,1.37,2.64,1.56,5.37,1.57,5.4,0,.07.05.13.12.16.02,0,.05.01.07.01.05,0,.09-.02.12-.05l1.56-1.42s.06-.09.06-.14c0-.09-.06-2.22-1.12-4.66,0-.34-.02-1.31-.21-1.98,0-.04-.02-.08-.03-.13-.04-.14-.12-.41-.35-.41-.09,0-.17.05-.23.14-.04.05-.1.14-.16.25-.03.06-.06.11-.1.17-.72-1.07-1.63-1.99-2.69-2.73-.08-.31-.32-.94-.94-1.47-.24-.21-.37-.28-.49-.28-.05,0-.15.04-.18.08-.09.11-.07.27-.04.49.01.07.02.15.03.23-.02,0-.03-.02-.05-.03-1.11-.5-2.27-.76-3.46-.76-.5,0-1,.05-1.49.14-.29-.08-1.27-.36-1.53-.36h0Z"/>
            </g>
            <path class="cls-28" d="M12.96,7.56c-.11,2.74,1.23,6,4.82,9.31l1.65-1.42s-5.4-4.05-4.47-8.65c.19.37.4.87.45.88.09.02-.33-.99.15-2.44.03-.11.07-.21.1-.31.57-1,1.35-1.69,2.25-2.11.06.31.19.86.3.96.14.13.47-.99.99-1.35,1.03-.17,2.13-.06,3.2.33.36.52.75,1.26.88,1.43.17.22.29-.48.4-.82.52.31,1.02.67,1.49,1.11.35.33.66.69.95,1.07.07.67.04,1.44.04,1.56,0,.15.49.35.98-.02,1.49,2.76,1.68,5.65,1.68,5.65l1.56-1.42s-.05-2.18-1.12-4.63c0-.45-.04-1.48-.23-2.1-.09-.3-.17-.32-.25-.21.11.23.21.52.26.86.15,1,.01,1.73-.11,1.75-.12.02-.74-.07-.96-.01-.21.06-.6-.93-2.23-2.77-1.63-1.84-2.74-2.34-4.69-2.54-1.95-.2-4.44.51-5.7,2.38-1.27,1.88-1.16,4.07-.94,5.22.22,1.15-1.04.53-1.34-1.09-.04-.22-.08-.43-.11-.62Z"/>
            <path class="cls-10" d="M13.87,4.24c-.55.97-.87,2.09-.91,3.32-.04.91.09,1.88.4,2.89-.07-.61-.16-1.71-.13-2.98.05-1.87.94-3.26.94-3.36-.07-.01-.8-.11-.51-.41.29-.31,1.52-.69,1.52-.69,0,0,.19-.35.93-.93.74-.59,1.8-1.01,1.8-1.01,0,0-.16-.45-.08-.48.08-.02,1.31.3,1.39.3s1.17-.38,2.84-.04c1.67.35,2.28.94,2.33.94s-.01-.68.17-.62c.17.05.6,1.05.6,1.07.01.03.48.27,1.67,1.22,1.18.96,1.4,1.95,1.56,1.95.16-.01.4-.7.51-.76.02-.01.08.02.16.07,0-.05-.02-.09-.03-.13-.09-.3-.17-.32-.25-.21-.1.12-.22.41-.41.65-.68-1.07-1.61-2.1-2.85-2.95-.07-.29-.29-.92-.9-1.44-.74-.64-.29.15-.38.68-.11-.05-.2-.11-.31-.16-1.63-.74-3.32-.9-4.88-.6-.51-.15-1.32-.37-1.52-.37-.26,0,.02.41.07.79-.99.4-1.88,1-2.62,1.76-.3.04-.82.15-1.24.45-.64.46-.94.9-.84.97.08.07.5-.05.97.08Z"/>
          </g>
          <g>
            <g>
              <path class="cls-3" d="M4.41,21.17c-.3,0-.57-.04-.69-.11-.03-.02-.08-.07-.08-.1-.03-.04.02-.12.1-.26.08-.14.18-.33.22-.53-.66-.3-1.24-.66-1.71-1.06-.21.24-.16.59-.16.59,0,.03,0,.07-.03.09-.02.01-.04.02-.06.02-.01,0-.02,0-.04,0-.02,0-.53-.22-.76-.8-.11-.28-.19-.81-.24-1.62-.38-.87-.39-1.82-.04-2.74-.11-.02-.21-.04-.31-.05-.26-.04-.45-.06-.51-.2-.05-.12.05-.24.09-.28.24-.28.95-.58,1.5-.79.29-.41.66-.82,1.07-1.2-.49-.23-.7-.62-.66-.83.02-.1.09-.16.18-.16.31.09,1.18.09,1.59.09.73-.55,1.6-1.03,2.55-1.39.15-.64.33-.99.49-1.01h0c.17,0,.49.2.99.58.93-.27,1.99-.4,3.06-.4h.12c.39-.84.67-1.31.89-1.31.08,0,.33,0,.48,1.42.88.11,1.72.3,2.57.58.12.04.23.08.34.13.1-.23.28-.59.46-.76.07-.06.13-.09.2-.09.15.03.23.15.31.37.09.25.16.59.21.86l.03.14c3.1,1.37,4.25,3.23,4.59,3.96.19.36.24.59.25.6l-.6.8-.53.67s-.04.04-.07.04c0,0-.01,0-.02,0-.03,0-.06-.03-.07-.07,0-.02-.49-1.75-3.36-3.58-.08-.06-.17-.11-.25-.16l-.13-.08c-.8-.23-1.56-.28-2.05-.28-.27,0-.43.02-.44.02-.17-.08-.51-.32-.5-.54,0-.06.03-.14.15-.19.07-.03.18-.06.33-.08-.38-.11-.78-.21-1.2-.29-.41.02-.94.05-1.49.1-.91.09-1.52.3-1.82.41-.13.04-.19.07-.23.07-.02-.02-.11-.1-.1-.12.02-.06.06-.27.1-.48v-.02c-1.23.2-2.35.63-3.33,1.28-.17.11-.33.22-.48.33.43.09.77.3.79.42,0,.04-.02.09-.06.11-.03,0-1.75.32-1.75.32-1.01,1.02-1.42,2.09-1.14,3.01.15-.23.36-.45.44-.45.09,0,.1.07.13.28.04.28.11.81.32,1.38.2.14.46.3.76.44,1.41.68,3.08,1.03,4.98,1.03,2.15,0,3.81-.46,3.83-.46,0,0,.02,0,.02,0,.02,0,.04,0,.06.02.02.02.04.05.03.08l-.24,1.65s-.04.07-.08.08l-2.04.35c-.82.1-1.62.15-2.37.15-1.13,0-2.19-.11-3.15-.33-.31.21-.63.3-1.03.34-.14.02-.28.03-.41.03Z"/>
              <path class="cls-7" d="M11.96,7.81c.23,0,.36,1.01.4,1.41.87.1,1.74.29,2.62.59.15.05.28.1.42.16.1-.25.3-.65.47-.81.05-.04.09-.06.13-.06,0,0,.02,0,.03,0,.07.02.14.14.2.31.1.29.18.71.24.99,2.99,1.36,4.18,3.09,4.6,3.98.19.36.24.58.24.58l-.58.72-.53.67s-.46-1.76-3.4-3.64c-.12-.09-.26-.16-.39-.24-.85-.25-1.63-.3-2.09-.3-.28,0-.45.02-.45.02,0,0-.63-.4-.3-.55.14-.06.45-.09.77-.11-.54-.18-1.09-.32-1.66-.43-.43.02-.96.05-1.52.1-1.25.13-1.94.47-2.05.47-.01,0-.02,0-.01-.01.02-.05.08-.38.13-.64-1.22.18-2.41.59-3.5,1.31-.23.15-.45.3-.65.46.6.07.97.36.92.38-.04.01-.93.17-1.73.32-1.12,1.11-1.57,2.3-1.14,3.32.16-.32.43-.57.46-.57.04,0,.06.76.37,1.6.23.18.49.34.81.49,1.66.8,3.47,1.04,5.02,1.04,2.18,0,3.85-.47,3.85-.47l-.24,1.65-2.04.35c-.83.1-1.62.15-2.36.15-1.15,0-2.2-.12-3.13-.33-.04.02-.08.05-.13.08-.28.16-.62.23-.93.26-.14.02-.28.02-.4.02-.31,0-.55-.04-.64-.09-.02,0-.03-.01-.03-.02-.04-.09.29-.43.32-.85-.71-.32-1.32-.7-1.81-1.13-.32.28-.25.73-.25.73,0,0-.49-.2-.71-.75-.14-.36-.2-1.1-.23-1.59-.38-.89-.4-1.85,0-2.8-.48-.13-1.08-.05-.79-.4.24-.28,1-.59,1.46-.76.36-.47.76-.91,1.2-1.32-.71-.27-.87-.86-.64-.86.02,0,.04,0,.06.01.23.08,1.06.08,1.53.08.78-.57,1.65-1.04,2.58-1.4.11-.37.33-.99.46-1,0,0,0,0,.01,0,.19,0,.83.5.92.57.99-.25,2.04-.38,3.11-.38.04,0,.08,0,.12,0,.22-.42.68-1.31.89-1.31M11.96,7.62c-.24,0-.47.31-1,1.31h0c-1.05,0-2.08.12-3.07.36-.72-.55-.89-.55-.96-.55-.12,0-.31.02-.62,1.05-.9.36-1.74.81-2.49,1.35-.41,0-1.22,0-1.41-.07-.04-.01-.08-.02-.12-.02-.14,0-.25.09-.28.24-.05.25.17.62.59.86-.36.35-.69.72-.99,1.11-.79.29-1.29.56-1.49.79-.04.05-.17.2-.1.37.07.19.3.22.58.26.06,0,.13.02.2.03-.31.9-.29,1.83.08,2.71.05.8.13,1.33.24,1.61.25.62.79.85.81.85.02,0,.05.01.07.01.04,0,.08-.01.11-.04.05-.04.08-.11.07-.17,0,0-.03-.24.09-.44.45.37.98.69,1.58.98-.04.16-.12.32-.19.43-.09.15-.15.26-.09.38h0s.06.08.1.1h0c.15.09.48.12.73.12.13,0,.28,0,.43-.03.4-.04.74-.13,1-.28l.06-.04s0,0,0,0c.95.21,1.99.32,3.1.32.76,0,1.56-.05,2.38-.15l2.05-.35c.08-.01.14-.08.15-.16l.24-1.65c0-.06-.01-.12-.06-.17-.03-.03-.08-.05-.12-.05-.02,0-.03,0-.05,0-.02,0-1.67.46-3.8.46-1.88,0-3.54-.34-4.93-1.02-.28-.13-.52-.27-.73-.44-.19-.54-.26-1.04-.3-1.31-.03-.22-.05-.36-.22-.36-.11,0-.27.15-.4.32-.17-.83.24-1.78,1.17-2.72.41-.08.84-.15,1.16-.21.3-.06.51-.09.53-.1.09-.02.16-.12.14-.21-.02-.15-.31-.33-.67-.44.11-.07.21-.14.31-.21.94-.62,2-1.03,3.17-1.24-.03.16-.06.31-.07.35-.02.06,0,.14.03.19.04.04.1.07.16.07.06,0,.12-.02.26-.07.29-.1.9-.31,1.8-.4.46-.04.95-.07,1.51-.1.27.05.54.12.8.19-.17.08-.2.2-.2.27-.02.26.33.51.48.61.03.02.06.03.1.03,0,0,.01,0,.02,0,0,0,.16-.02.43-.02.48,0,1.22.05,2.02.28.04.02.08.05.12.07.08.05.16.09.24.15,2.84,1.82,3.33,3.52,3.33,3.54.02.07.07.12.14.13.01,0,.03,0,.04,0,.06,0,.11-.03.15-.07l.53-.67.58-.72s.05-.1.04-.16c0,0-.06-.25-.26-.63-.34-.73-1.48-2.58-4.6-4.02v-.06c-.07-.27-.14-.61-.23-.86-.09-.25-.19-.39-.32-.43-.02,0-.06,0-.08,0-.09,0-.17.03-.25.11-.17.16-.34.47-.45.71-.08-.03-.17-.06-.26-.1-.82-.28-1.65-.47-2.51-.58-.16-1.43-.43-1.43-.57-1.43h0Z"/>
            </g>
            <path class="cls-28" d="M3.89,18.57c.31.21.6,1.62.28,2.06-.12.16-.26.28-.4.36.2.11,1.26.2,1.97-.19.05-.03.09-.06.13-.08,1.53.35,3.37.44,5.49.18l2.04-.35.24-1.65s-4.88,1.36-8.87-.57c-.32-.15-.58-.31-.81-.49-.31-.84-.33-1.6-.37-1.6-.03,0-.3.25-.46.57-.43-1.02.02-2.21,1.14-3.32.8-.15,1.69-.31,1.73-.32.05-.02-.32-.31-.92-.38.2-.16.42-.31.65-.46,1.09-.72,2.28-1.13,3.5-1.31-.05.26-.11.59-.13.64-.02.09.68-.32,2.06-.46.56-.05,1.09-.08,1.52-.1.57.11,1.12.25,1.66.43-.32.02-.63.05-.77.11-.33.15.3.55.3.55,0,0,1.18-.12,2.54.28.13.08.27.15.39.24,2.94,1.88,3.4,3.64,3.4,3.64l.53-.67c.14-.47.26-.9.34-1.3-.42-.89-1.61-2.62-4.6-3.98-.09-.45-.25-1.25-.44-1.3-.05-.01-.1.01-.16.06.07.1.13.23.16.39.12.64.1.79-.61.71-.71-.09-1.51.26-1.51.26-1.89-.3-3.61.1-3.71-.03-.09-.14.23-.4-.46-.4-.69-.01-2.94.32-4.74,1.56-1.8,1.24-2.91,2.43-2.82,4.36.08,1.93,1.4,2.35,1.71,2.56Z"/>
            <path class="cls-11" d="M1.05,14.58c-.39.95-.37,1.91,0,2.8.03.49.09,1.23.23,1.59.22.55.71.75.71.75,0,0-.07-.45.25-.73.49.43,1.1.81,1.81,1.13-.03.42-.36.76-.32.85,0,.01,0,.02.03.02.12.07.55.13,1.04.07l-.84-.29.6-.75s-.06-.03-.6-.26c-.53-.24-1.5-1-1.5-1,0,0-.25-.23-.44.04-.19.27-.3.51-.47-.03-.17-.55-.13-1.66-.13-1.66,0,0-.29-.45-.34-1.1-.05-.65.37-1.53.37-1.53,0,0-.69-.2-.69-.27.03-.05,1.12-.5,1.12-.5.32-.74,1.42-1.6,1.42-1.6,0,0-.46-.53-.34-.53.13,0,1.08.02,1.08.02,1.04-.95,2.63-1.52,2.63-1.52,0,0,.15-.51.29-.59.15-.07.79.42.79.42,1.43-.55,3.47-.52,3.57-.58.09-.06.34-.96.51-.96s.34,1.11.34,1.11c1.46.15,3.37.71,3.41.66s.32-.79.43-.85c.03-.02.11.03.21.12-.06-.17-.13-.29-.2-.31-.05-.01-.1.01-.16.06-.17.16-.37.56-.47.81-.14-.06-.27-.11-.42-.16-.88-.3-1.75-.49-2.62-.59-.04-.4-.17-1.41-.4-1.41-.21,0-.67.89-.89,1.31-1.11-.01-2.2.12-3.23.38-.09-.07-.75-.59-.93-.57-.13,0-.35.63-.46,1-.93.36-1.8.83-2.58,1.4-.47,0-1.3,0-1.53-.08-.31-.11-.19.56.58.85-.44.41-.84.85-1.2,1.32-.46.17-1.22.48-1.46.76-.29.35.31.27.79.4Z"/>
          </g>
          <g>
            <g>
              <g>
                <path class="cls-2" d="M27.97,22.42c-.21,0-.47,0-.77-.03l-.27-.02c-1-.1-2.28-.4-2.69-1.26-.39-.82-.99-1.08-1.52-1.31-.39-.17-.73-.32-.9-.66-.12-.23-.17-.53-.15-.88.03-.62.31-1.34.57-1.47.04,0,.07,0,.11,0,.09,0,.15.02.23.05.71.29,2.47,1.61,2.55,1.66l3.36,3.75s.03.07.02.11-.05.06-.09.06c0,0-.17.01-.44.01Z"/>
                <path class="cls-6" d="M22.33,16.87s.12.02.2.06c.71.29,2.52,1.65,2.52,1.65l3.35,3.74s-.17.01-.43.01c-.21,0-.47,0-.76-.03-.09,0-.18-.01-.27-.02-1-.1-2.23-.39-2.61-1.2-.69-1.46-2.05-1.23-2.42-1.98-.12-.24-.15-.53-.14-.83.03-.64.31-1.28.51-1.39.01,0,.03,0,.05,0M22.33,16.67s-.11.02-.14.03c-.33.16-.59.95-.62,1.56-.02.37.03.68.16.93.19.37.56.53.95.71.51.22,1.09.48,1.47,1.26.43.91,1.75,1.22,2.77,1.32.07,0,.15.01.22.02h.06c.3.03.57.03.78.03.28,0,.45-.01.45-.01.08,0,.14-.05.17-.13.03-.07.02-.15-.04-.21l-3.35-3.74c-.1-.08-1.87-1.41-2.6-1.7-.12-.05-.2-.07-.28-.07h0Z"/>
              </g>
              <path class="cls-29" d="M21.77,18.26c.51.37,1.09.72,1.55.8,1.11.19,1.12,1.59,1.57,2.03.33.32,1.46.85,2.04,1.18.81.08,1.47.04,1.47.04l-3.35-3.74s-2.47-1.85-2.77-1.7c-.2.1-.48.75-.51,1.39Z"/>
              <path class="cls-8" d="M21.91,19.09c.37.74,1.73.51,2.42,1.98.38.81,1.61,1.11,2.61,1.2.09,0,.18.02.27.02-.51-.15-1.27-.36-1.64-.4-.59-.07-.94-1.04-1.29-1.77-.35-.72-1.61-.59-2.02-1.65-.2-.5.01-1.08.28-1.55-.12-.05-.2-.07-.25-.05-.2.1-.48.75-.51,1.39-.02.3.02.59.14.83Z"/>
            </g>
            <g>
              <g>
                <path class="cls-1" d="M24.87,18.52s-1.21-.41-2.23-1.07c-.67-.44-1.11-.9-1.31-1.37l-.06-.14c-.39-1-.13-1.52.24-2.25.14-.28.3-.6.45-.99.07-.19.18-.39.34-.58.8-1.01,2.47-1.7,2.9-1.86-.05-.16-.08-.49.21-.92.15-.21.35-.42.61-.63,1.01-.8,1.71-1.2,2.34-1.34.04,0,.08-.01.12-.01h0c.34,0,.87.19,1.58.58l.19.11s.05.04.05.08c0,.03,0,.06-.03.08l-3.88,3.58-1.39,6.66s-.02.05-.05.07c-.02,0-.03.01-.05.01-.01,0-.02,0-.03,0Z"/>
                <path class="cls-6" d="M28.49,7.46c.43,0,1.17.38,1.51.57,0,0,0,0,0,0,0,0,0,0,0,0,.11.06.18.11.18.11l-3.88,3.58-1.42,6.71s-1.19-.39-2.2-1.06c-.55-.37-1.05-.81-1.28-1.32-.02-.05-.04-.1-.06-.15-.51-1.32.18-1.76.69-3.15.07-.19.18-.38.32-.55.89-1.13,2.95-1.86,2.95-1.86,0,0-.22-.36.16-.93h0c.12-.18.31-.39.58-.6,1.13-.9,1.78-1.21,2.3-1.32.03,0,.07,0,.1,0h0s.01,0,.02,0M28.49,7.26h0s-.02,0-.02,0h0s-.09,0-.14.01c-.65.15-1.37.55-2.38,1.36-.26.2-.46.41-.61.63,0,0-.01.02-.02.02-.27.39-.28.72-.25.92-.53.21-2.09.88-2.86,1.86-.16.2-.28.41-.35.61-.14.39-.3.7-.44.98-.36.72-.65,1.29-.25,2.31.02.06.04.11.07.17.21.48.66.95,1.35,1.41,1.02.67,2.2,1.07,2.25,1.08.02,0,.04.01.06.01.03,0,.07,0,.1-.03.05-.03.09-.08.1-.13l1.41-6.65,3.83-3.54s.07-.11.06-.17c0-.06-.04-.12-.1-.15l-.18-.1s0,0-.01,0c-.72-.39-1.27-.59-1.61-.59h0Z"/>
              </g>
              <path class="cls-29" d="M21.36,15.89c.02.05.04.1.06.15.63,1.44,3.48,2.38,3.48,2.38l1.42-6.71,3.88-3.58s-1.15-.69-1.72-.67c-.21.26-.45.54-.7.8-.32.33-1.25.73-2.28,1.13h0c-.38.57-.16.93-.16.93,0,0-2.06.73-2.95,1.86.09.28.13.63.08,1.09-.18,1.54.15,1.34-.11,2.44-.1.42-.51.38-.99.17Z"/>
              <ellipse class="cls-8" cx="22.19" cy="15.38" rx=".23" ry=".43" transform="translate(-2.55 4.56) rotate(-11.11)"/>
              <path class="cls-8" d="M21.36,15.89c.02.05.04.1.06.15.22.51.72.96,1.28,1.32-.45-.57-.83-1.09-.84-1.23-.01-.34-.04-1.82.18-1.99.22-.17.2-1.03.34-1.47.14-.43,1.91-1.35,1.91-1.35,0,0,1.24-.54,1.24-.59,0-.04.13-1.33.29-1.56.15-.23,1.91-1.19,2.31-1.29.2-.05,1.06.04,1.88.14-.35-.19-1.1-.58-1.53-.57-.03,0-.07,0-.1,0-.52.12-1.16.42-2.3,1.32-.28.22-.46.42-.58.6h0c-.38.57-.16.93-.16.93,0,0-2.06.73-2.95,1.86-.14.17-.25.36-.32.55-.51,1.39-1.21,1.83-.69,3.15Z"/>
            </g>
            <g>
              <g>
                <path class="cls-4" d="M25.83,19.83s-.08-.02-.09-.06c0,0-.17-.41-.52-.95-.25-.39-.67-.96-1.26-1.49-.67-.61-.81-.85-.75-1.29,0-.08.03-.16.04-.26.05-.29.13-.7.12-1.36v-.35c-.05-1.71-.06-2.5,1.21-3.61.72-.62,1.75-1.06,2.49-1.32.33-.11.64-.2.89-.27.34-.09.6-.14.68-.14.21.2-.73,3.9-2.71,11.03-.01.04-.05.07-.09.07h0Z"/>
                <path class="cls-6" d="M28.64,8.83s0,0,0,0c.21,0-2.81,10.9-2.81,10.9,0,0-.17-.41-.53-.97-.29-.46-.72-1.01-1.28-1.51-.68-.62-.77-.82-.72-1.2.04-.32.18-.75.16-1.64-.04-1.96-.14-2.73,1.18-3.87.67-.58,1.64-1.01,2.45-1.3.33-.11.64-.2.89-.27.35-.09.59-.14.66-.14M28.64,8.63c-.13,0-.54.1-.71.14-.26.07-.57.16-.9.27-.75.26-1.79.7-2.52,1.34-1.32,1.14-1.3,1.94-1.26,3.69v.34c.02.65-.05,1.05-.11,1.34-.02.1-.03.19-.04.27-.07.47.09.74.78,1.37.58.52,1,1.09,1.24,1.47.35.53.52.93.52.94.03.08.11.12.19.12,0,0,0,0,.01,0,.09,0,.16-.06.18-.15,2.99-10.79,2.86-10.97,2.78-11.07-.04-.05-.1-.08-.16-.08,0,0,0,0,0,0h0Z"/>
              </g>
              <path class="cls-29" d="M24.02,17.25c1.25,1.12,1.81,2.48,1.81,2.48,0,0,3.02-10.9,2.81-10.9-.1,0-.75.13-1.55.4-.48.53-1.08,1.14-1.39,1.31-.6.33-1.69,1.54-1.42,3.06.27,1.51-.04,2.55-.17,2.61-.05.03-.41-.06-.82-.17-.05.38.04.58.72,1.2Z"/>
              <path class="cls-8" d="M24.02,17.25c.56.5.98,1.05,1.28,1.51.43.18.68.21.53-.04-.54-.93-2.14-1.78-2.17-2.18-.04-.39.48-1.71.27-2.53-.22-.82.23-2.8.92-3.14.49-.24,2.2-1.32,3.13-1.91-.25.07-.56.15-.89.27-.82.29-1.78.72-2.45,1.3-1.32,1.15-1.22,1.91-1.18,3.87.02.89-.12,1.32-.16,1.64-.05.38.04.58.72,1.2Z"/>
            </g>
            <g>
              <g>
                <path class="cls-38" d="M35.47,22.17c-.76,0-3.37-1-3.4-1.01-.04,0-.06-.02-.08-.06-.02-.04,0-.08.03-.11l7.24-8.24s.05-.04.08-.04c0,0,0,0,0,0,.03,0,.06.02.08.05,0,.01.74,1.24,1.16,2.26.18.43.28.76.3,1,.05.54-.21.88-.51,1.28-.25.33-.53.7-.68,1.26l-.03.11c-.32,1.17-.48,1.76-2.02,2.26-1,.32-1.34.65-1.59.89-.05.05-.1.1-.15.14-.09.08-.17.12-.26.16-.04.02-.1.03-.17.03Z"/>
                <path class="cls-6" d="M39.35,12.83s.73,1.22,1.16,2.25c.16.37.27.72.29.98.08.95-.85,1.25-1.19,2.5-.34,1.26-.45,1.8-1.99,2.3-1.24.4-1.49.81-1.78,1.05-.07.06-.14.11-.23.14-.03.01-.08.02-.13.02-.71,0-3.17-.93-3.36-1,0,0,0,0,0,0,0,0,0,0,0,0l6.93-7.88.32-.36M39.35,12.63c-.06,0-.11.02-.15.07l-.32.36-6.93,7.88c-.06.07-.07.16-.02.24.03.05.08.09.14.1.14.06,2.65,1,3.41,1,.08,0,.15-.01.21-.03.12-.05.21-.12.29-.17.05-.04.1-.09.16-.15.24-.23.57-.55,1.55-.87,1.6-.52,1.76-1.12,2.09-2.33l.03-.11c.15-.55.42-.91.67-1.23.3-.39.58-.76.53-1.34-.02-.25-.13-.6-.31-1.04-.42-1.03-1.14-2.22-1.17-2.27-.03-.06-.09-.09-.16-.1,0,0-.01,0-.02,0h0Z"/>
              </g>
              <path class="cls-29" d="M32.1,21.07s3.06,1.16,3.5.98c.09-.04.16-.08.23-.14-.07-.48-.09-1.21.31-1.63.62-.67,1.92-1.59,2.58-2.32.66-.72-.75-.87,1.01-2.16.33-.24.58-.48.77-.72-.42-1.03-1.16-2.25-1.16-2.25l-7.24,8.24Z"/>
              <path class="cls-8" d="M32.11,21.07c.2.08,3.06,1.15,3.49.98.09-.04.16-.08.23-.14.28-.24.54-.65,1.78-1.05,1.54-.5,1.64-1.05,1.99-2.3.34-1.26,1.27-1.56,1.19-2.5-.02-.25-.14-.6-.29-.98-.42-1.03-1.16-2.25-1.16-2.25l-.32.36c.54,1.22,1.11,2.62,1.06,2.96-.11.62-.86,1.25-.86,1.59,0,.34-.15,1.53-.5,1.89-.36.35-1-.3-1.76.49-.75.79-1.08,1.5-1.31,1.53-.23.02-3.34-.54-3.53-.58Z"/>
            </g>
            <g>
              <g>
                <path class="cls-39" d="M28.85,23c-.63-.02-2.4-1.35-3.26-2.46-.22-.29-.36-.54-.43-.75-.08-.27-.13-.75-.13-1.43,0-.5.01-1.06.04-1.63.07-1.6.23-3.23.23-3.25,0-.03.02-.05.04-.07.02-.01.04-.02.06-.02,0,0,5.83.83,5.83.83l5.76,2.22s.07.04.08.06c0,0,.43.88-.45,1.75-.3.29-.47.55-.64.81-.13.19-.25.37-.41.55-.27.29-.61.53-1.07.76-.52.25-.6.67-.68,1.12-.11.6-.22,1.21-1.48,1.21-.08,0-.16,0-.24,0-.28-.01-.54-.02-.76-.02-1,0-1.46.13-1.79.23-.21.06-.39.11-.63.11,0,0-.06,0-.06,0Z"/>
                <path class="cls-6" d="M25.39,13.49l.64.09,5.18.74,5.74,2.21h.03s.41.82-.43,1.65c-.53.52-.68.95-1.05,1.36-.22.25-.53.49-1.04.73-1.31.64-.05,2.32-2.12,2.32-.08,0-.16,0-.24,0-.29-.02-.54-.02-.77-.02-1.63,0-1.83.34-2.43.34-.02,0-.03,0-.05,0-.59-.02-2.34-1.34-3.18-2.42-.2-.26-.35-.51-.42-.72-.08-.27-.12-.78-.13-1.4,0-.49.01-1.06.04-1.63.07-1.62.23-3.24.23-3.24M25.39,13.29s-.09.02-.13.04c-.04.03-.07.08-.08.14,0,.02-.15,1.65-.23,3.25-.03.68-.04,1.2-.04,1.64,0,.69.05,1.19.14,1.46.07.22.22.49.45.78.8,1.03,2.63,2.49,3.34,2.5h.06c.25,0,.44-.05.66-.12.35-.1.78-.23,1.77-.23.22,0,.47,0,.76.02.09,0,.17,0,.25,0,1.34,0,1.47-.69,1.58-1.3.08-.44.15-.82.63-1.05.48-.23.83-.48,1.1-.78.17-.18.29-.37.41-.56.17-.25.34-.51.63-.79.94-.92.49-1.83.47-1.87-.02-.04-.06-.08-.11-.1l-5.77-2.22-5.22-.75-.64-.09s-.02,0-.03,0h0Z"/>
              </g>
              <path class="cls-12" d="M29.2,20.56s.67-1.37,1.88-1.08,1.73.06,2.01.08.47.22-.14.47-1.49-.02-1.91-.15-1.28.55-1.28.55"/>
              <path class="cls-29" d="M25.25,19.76c.07.21.22.46.41.72.19.01.4,0,.64-.08,1.38-.44,1.4-1.77-.16-1.8-.49,0-.81-.11-1.02-.24,0,.62.04,1.13.13,1.4Z"/>
              <path class="cls-29" d="M27.66,20.52c.52.38.84-.54,2.33-1.02,1.48-.48,3.39.26,3.5.02.11-.24.59.86-.75.85-1.33-.02-2.31-.9-2.9.14-.59,1.03.77.57,1.92.57,1.16,0,2.17-.65,2.91-1.28.26-.23.55-.29.82-.26.24-.26.38-.54.6-.83.12-.17.26-.34.45-.53.84-.83.43-1.63.43-1.63l-5.77-2.22-5.82-.83s-.11,1.15-.19,2.48c-.02.25-.03.51-.04.77.49.6,1.92.74,2.47,1.07,1.54.92-.5,2.34.03,2.72Z"/>
              <path class="cls-29" d="M25.2,15.96c.3.16.6.32.89.47,1.13.58,2.48,1.94,2.77,2.44.29.5.89.12,1.62-.06.73-.18,2.07-.67,3.79-.22.8.21,1.4.19,1.81.11.12-.17.26-.34.45-.53.84-.83.43-1.63.43-1.63l-5.77-2.22-5.82-.83s-.11,1.15-.19,2.48Z"/>
              <path class="cls-8" d="M25.25,19.76c.07.21.22.46.41.72.84,1.09,2.59,2.41,3.18,2.42.73.02.84-.45,3.25-.32,2.4.13,1-1.66,2.36-2.31.51-.25.81-.49,1.04-.73.37-.41.52-.84,1.05-1.36.84-.83.43-1.63.43-1.63h-.03c-.16.37-.37.87-.56,1.33-.36.9-1.45,1.32-1.93,1.88-.49.55-1.23.56-1.11,1.71.12,1.14-.93.84-.99.81-.06-.02-1.29-.48-1.99-.26-.7.22-.94.8-1.84.27s-2.61-1.81-2.98-3.68c-.28-1.41.23-3.89.5-5.02l-.64-.09s-.15,1.62-.23,3.24c-.02.57-.04,1.13-.04,1.63,0,.62.04,1.13.13,1.4Z"/>
            </g>
            <ellipse class="cls-8" cx="28.72" cy="21.57" rx=".36" ry=".8" transform="translate(-3.44 37.58) rotate(-63.38)"/>
            <ellipse class="cls-8" cx="25.94" cy="17.68" rx=".55" ry=".3" transform="translate(6.82 42.57) rotate(-86.73)"/>
            <g>
              <g>
                <path class="cls-40" d="M34.01,18.06c-.86,0-1.87-.09-3-.28-1.36-.22-2.42-.5-2.43-.5l-1.58-3.26s0-.1.04-.13l7.37-4.83c.06-.02.82-.22,1.74-.22.1,0,.2,0,.31,0h.16c.47.09.6.29.74.53.15.24.33.54.92.85,1.28.67,2.09,1.23,1.75,2.82-.22,1.01-1.02,3.47-3.69,4.66-.09.04-.18.07-.27.1-.53.18-1.21.27-2.05.27h0Z"/>
                <path class="cls-6" d="M36.15,8.93c.1,0,.2,0,.3,0,.07,0,.13.01.19.02.79.13.4.72,1.59,1.35,1.28.67,2.02,1.2,1.7,2.71-.33,1.51-1.35,3.57-3.64,4.58-.08.04-.17.07-.26.1-.56.19-1.27.26-2.02.26-.99,0-2.06-.13-2.99-.28-1.37-.22-2.42-.5-2.42-.5l-1.51-3.21,6.26-4.11,1.11-.73s.77-.21,1.69-.21M36.15,8.73c-.93,0-1.71.21-1.74.21-.02,0-.04.01-.06.03l-1.11.73-6.26,4.11c-.08.06-.11.16-.07.26l1.51,3.21c.03.05.07.09.13.11.01,0,1.07.28,2.44.51,1.14.19,2.16.28,3.02.28s1.54-.09,2.08-.27c.1-.03.19-.07.28-.11,2.72-1.2,3.53-3.71,3.75-4.73.35-1.65-.52-2.26-1.8-2.93-.56-.3-.73-.57-.88-.81-.15-.25-.3-.48-.77-.56-.09-.01-.15-.02-.21-.02-.1,0-.21,0-.31,0h0Z"/>
              </g>
              <path class="cls-29" d="M27.09,13.97l1.51,3.21s5.01,1.33,7.42.52c-.02-.33.03-.66.3-.75.59-.18,0-1.03,1.03-1.69,1.03-.66,1.98-1.14,2-2.5.02-1.36-.89-1.55-2.29-2.21-.9-.42-.69-1.14-.44-1.59-.06,0-.12-.01-.19-.02-1.04-.05-1.99.2-1.99.2l-7.36,4.83Z"/>
              <path class="cls-17" d="M39.2,12.21s-.04-.5-1.47-1.04-1.29-.21-1.29-.17,1.9.96,2.26,1.31.41.56.41.56"/>
              <path class="cls-18" d="M36.34,15.64s2.29-2.11,2.35-1.56-1.46,1.98-1.71,2.12-.54-.06-.54-.06"/>
              <path class="cls-8" d="M31.02,17.68c1.62.26,3.7.46,5,.02.09-.03.18-.06.26-.1,2.29-1.01,3.31-3.08,3.64-4.58.32-1.51-.42-2.03-1.7-2.71-1.19-.63-.8-1.22-1.59-1.35-.06,0-.12-.01-.19-.02-1.04-.05-1.99.2-1.99.2l-1.11.73.3.16s2.11-1.07,2.83-.81c.72.25-.28.58,1.22,1.19,1.5.61,1.73,1.14,1.95,1.67.22.53-.54,2.72-2.26,4.19-1.71,1.48-3.18,1.12-3.21,1.07-.01-.06,1.86-.72,1.89-.98.02-.26-1.59.54-2.36.83-.77.29-2.68.46-2.68.46,0,0,0,.01,0,.04Z"/>
            </g>
            <g>
              <g>
                <path class="cls-50" d="M31.76,14.71s-.03,0-.05-.01l-5.78-3.08s-.05-.04-.05-.07c0-.03,0-.06.02-.08.01-.01,1.14-1.41,2.23-2.56.85-.9,1.46-1.43,1.81-1.55.63-.23,1.04-.24,1.44-.25.23,0,.46-.01.74-.06.1-.02.21-.05.32-.08.21-.06.43-.12.67-.12.69,0,1.27.51,1.87,1.64.19.36.37.67.52.93l.14.25c.54.92.77,1.41.22,2.24-.12.19-.29.41-.51.65-1.41,1.59-3.54,2.13-3.56,2.14,0,0-.02,0-.02,0Z"/>
                <path class="cls-6" d="M33.11,6.96c.52,0,1.1.3,1.78,1.59.25.48.48.86.67,1.18.53.92.74,1.36.22,2.13-.12.19-.29.4-.5.64-1.4,1.59-3.51,2.1-3.51,2.1l-5.48-2.92-.3-.16s1.13-1.39,2.23-2.55c.7-.74,1.39-1.39,1.77-1.53.97-.35,1.4-.17,2.16-.3.3-.05.62-.19.97-.19M33.11,6.76c-.25,0-.49.06-.7.12-.11.03-.21.06-.31.07-.27.05-.49.05-.72.06-.41,0-.83.02-1.47.25-.37.14-.97.65-1.85,1.58-1.09,1.15-2.23,2.55-2.24,2.56-.04.05-.05.11-.04.17.01.06.05.11.1.14l.3.16,5.48,2.92s.06.02.1.02c.02,0,.03,0,.05,0,.09-.02,2.19-.55,3.62-2.17.23-.26.4-.48.52-.67.58-.88.32-1.41-.22-2.34l-.14-.24c-.15-.27-.33-.57-.52-.93-.62-1.17-1.23-1.7-1.96-1.7h0Z"/>
              </g>
              <path class="cls-8" d="M30.62,7.83s1.36.05,1.6.18-.94.65-1.51.41-.09-.6-.09-.6Z"/>
              <circle class="cls-8" cx="32.69" cy="7.82" r=".29"/>
              <path class="cls-29" d="M25.98,11.53l5.78,3.08s2.11-.52,3.51-2.1c1.09-1.24.94-1.63.28-2.78-.04.06-.09.07-.16,0-.43-.38-1.47-1.59-2.51-1.29-1.04.3-1.37.92-2.17.48-.42-.23-1.53-.11-2.51.05-1.1,1.16-2.23,2.55-2.23,2.55Z"/>
              <path class="cls-19" d="M32.99,8.24c.02-.08.1-.53.33-.59s1.04.57,1.45,1.51-.55.27-1.07-.23-.74-.36-.74-.36"/>
              <path class="cls-8" d="M25.98,11.53l.3.16c1.15-1.26,4.02-4.29,4.87-4.08,1.08.26,1.91-.28,2.1-.32s1.27.59,1.79,2.07c.32.89.58,1.86.73,2.5.51-.78.31-1.21-.22-2.13-.18-.32-.41-.71-.67-1.18-1.15-2.17-2-1.53-2.76-1.4-.76.13-1.18-.05-2.16.3-.38.14-1.07.79-1.77,1.53-1.1,1.16-2.23,2.55-2.23,2.55Z"/>
            </g>
            <g>
              <g>
                <path class="cls-51" d="M34.99,15.26s-.05,0-.07-.03l-4.95-4.48s-.04-.06-.03-.09.02-.06.05-.08c.01,0,1.27-.63,2.33-.95.14-.04.23-.07.33-.09.13-.04.26-.06.38-.08.06,0,.12-.01.18-.01.6,0,1.09.46,1.6.95.42.4.85.81,1.41,1.06.32.14.61.26.87.36.83.32,1.37.53,1.41,1.24.02.38-.49.83-1.56,1.37-.23.12-.46.23-.69.33-.67.3-1.23.5-1.23.5-.01,0-.02,0-.03,0Z"/>
                <path class="cls-6" d="M33.21,9.56c1.02,0,1.69,1.43,2.97,2,1.34.6,2.17.67,2.22,1.51.03.39-.72.88-1.51,1.28-.23.12-.46.23-.68.32h0c-.66.3-1.22.5-1.22.5l-4.95-4.48s1.25-.63,2.31-.95c.11-.03.22-.06.32-.09.13-.04.25-.06.37-.08.06,0,.11-.01.16-.01M33.21,9.36c-.06,0-.13,0-.19.01-.12.02-.25.04-.39.08-.09.02-.19.05-.3.08-1.1.33-2.32.94-2.37.97-.06.03-.1.09-.11.15,0,.07.02.13.06.18l4.95,4.48s.09.05.14.05c.02,0,.05,0,.07-.01.02,0,.57-.2,1.23-.5.23-.1.46-.21.69-.33,1.13-.57,1.65-1.04,1.62-1.47-.05-.77-.65-1-1.48-1.32-.26-.1-.55-.21-.86-.35-.54-.24-.97-.65-1.38-1.04-.53-.5-1.03-.98-1.67-.98h0Z"/>
              </g>
              <path class="cls-29" d="M30.05,10.68l4.95,4.48s.99-.36,1.9-.82c-.33-.41-.71-.87-.91-1.11-.42-.49.1-1.04-.29-1.46-.39-.42-1.3.73-2.35.15-.63-.34-.84-1.82-.66-2.29-1.11.27-2.64,1.03-2.64,1.03Z"/>
              <path class="cls-8" d="M32.36,9.73c.51.05.99.2,1.33.52,1.09,1.04,3.23,2.1,4.13,2.38.89.28-1.8,2.02-1.8,2.02,0,0,.07,0,.19.01h0c.22-.1.45-.21.68-.33.79-.4,1.53-.88,1.51-1.28-.05-.84-.88-.9-2.22-1.51-1.34-.6-2.02-2.15-3.13-1.99-.11.02-.24.04-.37.08-.11.02-.21.06-.32.09Z"/>
              <path class="cls-8" d="M32.93,10.05s1.74.89,1.52,1.16-1.38-.54-1.6-.83.08-.33.08-.33Z"/>
              <circle class="cls-8" cx="34.7" cy="11.52" r=".21"/>
              <path class="cls-8" d="M36.02,12.53s1.25.14,1.12.53-.81.06-1.05-.21-.06-.32-.06-.32Z"/>
            </g>
            <g>
              <g>
                <path class="cls-41" d="M25.96,15.11s-.05-.01-.07-.03c-.02-.02-.56-.59-.77-1.13-.06-.13-.09-.25-.09-.36-.03-.63.27-2.05,1.57-2.95.27-.19.55-.33.82-.44.3-.12.58-.18.82-.21h-.01s-.06-.04-.07-.07,0-.07.02-.1c.01-.01.35-.36.78-.36.05,0,.1,0,.15.01.03,0,.07.02.11.03.52.13,1.61.63,1.65.66.04.02.06.05.06.09s-.02.07-.06.09c-.01,0-1.45.69-1.8,1.05-.27.29-.32,1.39-.32,1.79-.04.15-.36,1.26-.92,1.26-.37-.07-.57-.31-.73-.5-.09-.11-.2-.24-.26-.24-.27.35-.57.9-.66,1.09l-.13.26s-.04.05-.08.05c0,0-.01,0-.02,0Z"/>
                <path class="cls-6" d="M28.95,9.56s.08,0,.13.01c.03,0,.07.01.1.03.52.13,1.64.65,1.64.65,0,0-1.46.69-1.83,1.08-.36.39-.34,1.86-.34,1.86,0,0-.32,1.16-.82,1.16-.02,0-.05,0-.07,0-.44-.1-.68-.73-.91-.73-.05,0-.1.03-.15.1-.18.26-.44.74-.6,1.04-.08.15-.13.26-.13.26,0,0-.54-.57-.75-1.09-.05-.11-.08-.23-.08-.33-.02-.58.24-1.97,1.53-2.86.27-.19.55-.33.8-.42.49-.19.93-.24,1.23-.24.2,0,.35.02.41.03l-.85-.2s.32-.33.71-.33M28.95,9.36h0c-.47,0-.84.37-.86.39-.04.05-.06.11-.05.17-.2.04-.43.1-.66.19-.28.1-.56.25-.84.45-1.34.92-1.64,2.39-1.61,3.04,0,.12.04.26.1.4.22.55.77,1.13.79,1.15.04.04.09.06.15.06,0,0,.02,0,.03,0,.06,0,.12-.05.15-.11l.13-.26c.26-.48.46-.82.59-1.01,0,0,0,0,0,0,0,0,.1.11.16.18.17.2.38.45.69.52.04,0,.08.01.11.01.62,0,.95-1.09,1.02-1.3,0-.02,0-.04,0-.06,0-.58.08-1.49.29-1.72.28-.29,1.37-.84,1.77-1.03.07-.03.12-.11.12-.18,0-.08-.05-.15-.12-.18-.05-.02-1.14-.53-1.67-.66-.04-.01-.09-.02-.12-.03-.05,0-.11-.01-.16-.01h0Z"/>
              </g>
              <path class="cls-29" d="M25.21,13.91c.21.52.75,1.09.75,1.09,0,0,.45-.89.73-1.29.28-.41.53.51,1.06.62.54.12.89-1.15.89-1.15,0,0-.02-1.47.34-1.86.37-.39,1.83-1.08,1.83-1.08,0,0-1.29-.59-1.74-.68-.45-.08-.84.32-.84.32l.88.21c-.13-.02-.81-.13-1.67.2.63.1,1.5.21,1.67.13.26-.13-.74.82-1.28,1.04s-.17.57-1.01.82c-.65.19-1.33,1-1.62,1.63Z"/>
              <path class="cls-8" d="M25.21,13.91c.21.52.75,1.09.75,1.09,0,0,.05-.1.13-.26-.21-.29-.51-.76-.57-1.12-.09-.57.08-1.78,1.17-2.68,1.04-.86,2.76-.75,2.88-.74-.07-.05-.69-.47-.63-.54.02-.02.11-.05.24-.08-.04-.01-.07-.02-.1-.03-.45-.08-.84.32-.84.32l.85.2c-.17-.03-.83-.11-1.64.21-.26.1-.53.23-.8.42-1.29.89-1.55,2.28-1.53,2.86,0,.1.03.22.08.33Z"/>
              <path class="cls-16" d="M28.06,12.01s.5,2.21-.25,1.97-.7-1.81-.7-1.81"/>
              <path class="cls-8" d="M25.95,12.14s.32-.81.98-1.28.59.03.06.48-1,1.24-1.04.79Z"/>
            </g>
            <g>
              <g>
                <path class="cls-42" d="M29.67,18.17c-.39,0-.76-.05-1.1-.15-1.89-.56-2.93-3-3-3.7-.04-.43.28-.89.56-1.21.15-.16.26-.27.26-.27.02-.02.06-.02.09-.02,0,0,1.41.21,1.41.21.05,0,.08.05.09.1,0,.02.05,1.77.6,2.61.5.76,1.98,1.4,3.36,1.46.09,0,.17,0,.25,0,.13,0,.26,0,.39-.02h0s.08.03.1.07c.01.04,0,.09-.05.12,0,0-.15.08-.4.19-.5.23-1.51.61-2.59.61h0Z"/>
                <path class="cls-6" d="M26.47,12.92h.03s1.39.21,1.39.21c0,0,.04,1.79.62,2.66.5.76,1.97,1.44,3.44,1.51.09,0,.18,0,.26,0,.13,0,.26,0,.39-.02,0,0-.14.08-.39.19-.52.24-1.51.6-2.55.6-.35,0-.71-.04-1.07-.15-1.87-.56-2.86-2.98-2.92-3.62-.04-.4.29-.86.53-1.13.14-.16.26-.26.26-.26M26.49,12.72c-.05,0-.12.02-.15.05,0,0-.12.11-.27.28-.29.33-.63.82-.59,1.29.07.72,1.13,3.22,3.07,3.79.35.1.72.15,1.12.15,1.1,0,2.12-.39,2.63-.62.25-.11.4-.2.4-.2.08-.05.12-.15.09-.24-.03-.08-.11-.14-.19-.14,0,0-.01,0-.02,0-.12.01-.25.02-.37.02-.08,0-.17,0-.25,0-1.51-.07-2.86-.77-3.28-1.42-.54-.81-.59-2.53-.59-2.55,0-.1-.08-.18-.17-.19l-1.39-.21s-.02,0-.04,0h0Z"/>
              </g>
              <path class="cls-29" d="M26.72,13.45s.08,1.78.32,2.22c.24.45.71.27,2.1,1.33.81.62,2.13.59,3.09.46.24-.11.39-.19.39-.19-1.66.15-3.52-.62-4.1-1.49-.58-.87-.62-2.66-.62-2.66l-1.42-.21s-.11.1-.26.26l.5.28Z"/>
              <path class="cls-8" d="M28.61,17.93c1.39.41,2.92-.14,3.62-.46.24-.11.39-.19.39-.19-.22.02-.44.02-.66.01l-.85.49s-2.33.19-3.18-.49c-.86-.68-1.91-3.13-1.91-3.18,0-.02.25-.62.49-1.19h-.03s-.11.1-.26.26c-.24.28-.57.73-.53,1.13.06.64,1.05,3.06,2.92,3.62Z"/>
              <path class="cls-8" d="M27.9,16.45s1.23.62,1.23.81-1.06,0-1.28-.31.05-.49.05-.49Z"/>
              <ellipse class="cls-8" cx="26.5" cy="14.19" rx=".18" ry=".41" transform="translate(-2.82 7.55) rotate(-15.41)"/>
            </g>
            <g>
              <g>
                <g>
                  <path class="cls-43" d="M28.27,14.92s-.05,0-.06-.02c-.02-.01-.46-.38-.69-.98-.13-.32-.17-.66-.12-.99.06-.4.23-.8.49-1.16.44-.62,1.11-1.1,1.83-1.32.04-.01.09-.03.14-.03.15-.03.32-.05.51-.05.67,0,1.46.18,2.01.34.49.13.84.26.84.26.04.02.6.51,1.04,1.02.13.16.26.32.35.46.04.06.06.11.09.16.09.2.11.38.04.53-.07.15-.2.23-.3.26,0,0-.11,0-.11,0-.21-.04-.65-.13-.94-.13-.07,0-.13,0-.17.02-.09.02-.28.05-.54.08-.62.08-1.66.22-2.5.5-.89.3-1.49.74-1.71.92l-.12.1s-.04.03-.07.03Z"/>
                  <path class="cls-6" d="M30.36,10.47c.63,0,1.41.17,1.98.33.49.13.83.26.83.26,0,0,.56.48,1,.99.13.15.25.31.35.46.03.05.06.1.08.14.21.44-.08.62-.2.65-.02,0-.03,0-.04,0,0,0,0,0,0,0-.05,0-.62-.14-.98-.14-.07,0-.14,0-.19.02-.3.08-1.85.18-3.05.59-.89.3-1.5.73-1.74.93-.08.07-.13.11-.13.11,0,0-.43-.35-.66-.94-.1-.27-.16-.58-.11-.94.06-.4.22-.78.47-1.11.43-.6,1.09-1.07,1.78-1.28.04-.01.08-.02.13-.03.15-.03.31-.04.49-.04M30.36,10.27c-.2,0-.37.02-.53.05-.05,0-.1.02-.14.04-.75.23-1.44.73-1.89,1.36-.27.37-.44.78-.5,1.2-.05.35-.01.7.12,1.04.24.62.7,1,.72,1.02.04.03.08.05.13.05.05,0,.1-.02.14-.05,0,0,.04-.04.12-.1.21-.17.81-.6,1.68-.9.83-.28,1.86-.42,2.48-.5.27-.04.46-.06.55-.09.02,0,.06-.01.14-.01.28,0,.71.09.87.12l.08.02s.1,0,.11,0c.14-.04.3-.14.38-.32.08-.18.07-.38-.04-.62-.02-.05-.05-.11-.09-.17-.09-.14-.21-.3-.36-.47-.44-.52-.99-1-1.02-1.02-.02-.02-.04-.03-.06-.04-.01,0-.36-.13-.85-.26-.56-.16-1.36-.34-2.04-.34h0Z"/>
                </g>
                <path class="cls-29" d="M27.61,13.88c.23.58.66.94.66.94,0,0,.68-.64,1.87-1.04,1.2-.4,2.75-.51,3.05-.59.3-.08,1.11.11,1.17.12.06,0,.48-.14.24-.65l-1.38-.22.96-.38c-.44-.51-1-.99-1-.99,0,0-2.35-.85-3.43-.52-.69.21-1.35.68-1.78,1.28.1.5.2,1.26.01,1.54-.12.18-.25.37-.37.51Z"/>
                <path class="cls-8" d="M34.03,12.31c.26.38.35.74.37,1,.12-.03.4-.2.2-.65-.02-.04-.04-.09-.08-.14-.09-.14-.22-.3-.35-.46-.44-.51-1-.99-1-.99,0,0-.35-.13-.83-.26.47.32,1.31.95,1.68,1.5Z"/>
                <path class="cls-8" d="M27.61,13.88c.23.58.66.94.66.94,0,0,.04-.04.13-.11-.31-.34-.58-.85-.55-1.57.03-1.08,1.19-2.06,2.03-2.63-.04,0-.09.02-.13.03-.69.21-1.35.68-1.78,1.28-.24.34-.41.71-.47,1.11-.05.35,0,.67.11.94Z"/>
              </g>
              <g>
                <g>
                  <path class="cls-44" d="M31.49,17.08c-.93,0-2.66-.31-3.28-1.48-.12-.22-.18-.45-.17-.67.02-1.2,1.74-2.02,1.81-2.05.01,0,.1-.01.11-.01l1.66-.11s.24-.08.62-.11c.12-.01.24-.02.38-.02.72,0,1.34.21,1.81.62.23.2.38.33.52.47.44.42.87.9.77,1.32-.07.28-.36.48-.88.62-1.2.32-1.59.65-1.98.97-.1.08-.2.17-.32.25-.18.13-.56.21-1.04.21h0Z"/>
                  <path class="cls-6" d="M32.62,12.72c.54,0,1.2.12,1.74.59.18.16.36.31.51.46.81.77,1.21,1.43-.07,1.78-1.53.41-1.78.84-2.33,1.24-.16.12-.53.19-.98.19-1.07,0-2.64-.39-3.2-1.43-.12-.22-.16-.43-.16-.62.02-1.15,1.75-1.96,1.75-1.96h.08s1.66-.12,1.66-.12c0,0,.25-.08.62-.11.11-.01.24-.02.37-.02M32.62,12.52c-.14,0-.27,0-.39.02-.39.04-.65.12-.66.12l-1.61.1h-.08s-.05.01-.07.02c-.08.04-1.85.88-1.87,2.14,0,.24.05.48.18.72.65,1.21,2.43,1.53,3.37,1.53.29,0,.83-.03,1.1-.23.12-.08.22-.17.32-.26.38-.31.76-.63,1.94-.95.56-.15.88-.38.96-.7.12-.47-.34-.99-.8-1.42-.14-.14-.3-.28-.46-.42l-.06-.05c-.48-.42-1.13-.64-1.87-.64h0Z"/>
                </g>
                <path class="cls-29" d="M28.14,14.93c.25.06.52.23.78.58.96,1.3,2.68,1.18,2.41.86-.27-.31-.92-1.45-.22-1.1.71.35,1.62.43,1.81-1,.11-.81,1.1-.73,1.95-.5-.16-.15-.33-.31-.51-.46-1.11-.97-2.73-.46-2.73-.46l-1.73.12s-1.74.81-1.75,1.96Z"/>
                <path class="cls-22" d="M28.89,14.76s.53,1.39,1.42,1.54.12-.93.12-.93"/>
                <path class="cls-20" d="M32.12,13.89s-.82.64-1.97.11-1.45-.07-.87.39,1.85,1.03,2.46.43c.62-.6.69-.68.69-.68"/>
                <path class="cls-8" d="M28.3,15.55c.79,1.47,3.62,1.64,4.17,1.24.55-.4.8-.83,2.33-1.24,1.28-.35.89-1.01.07-1.78-.16-.15-.33-.31-.51-.46-.68-.59-1.54-.63-2.11-.57l-.05.08s1.29.11,2.29,1.17c1,1.05-.11,1.05-1.37,1.59-1.26.53-.88.8-1.2.99-.31.19-2.4.07-3.23-1.01-.68-.87.74-2.15,1.29-2.6h-.08s-1.74.81-1.75,1.97c0,.2.04.41.16.62Z"/>
                <path class="cls-21" d="M33.2,13.39s1.69.83,1.27,1.41-2.31,1.04-2.31,1.04"/>
                <ellipse class="cls-8" cx="33.89" cy="14.84" rx=".54" ry=".23" transform="translate(-2.22 6.81) rotate(-11.11)"/>
              </g>
              <g>
                <g>
                  <path class="cls-56" d="M32.31,13.02c-.31,0-.79-.1-1.26-.58-.93-.93-.55-1.89-.53-1.93.02-.04.05-.06.09-.06,0,0,2.22.28,2.22.28.01,0,.11.04.12.05.13.06.46.26.62.66.04.1.06.2.06.3,0,.35-.24.49-.25.49l-.17.22-.37.46c-.19.08-.36.11-.52.11h0Z"/>
                  <path class="cls-6" d="M30.61,10.55l2.2.28s.03.01.08.04h0c.14.07.43.25.57.61.04.1.05.19.06.26,0,.29-.2.4-.2.4l-.04.05s-.01.02-.01.02l-.15.18-.37.46c-.12.04-.27.08-.44.08-.35,0-.77-.13-1.19-.55-.89-.89-.51-1.82-.51-1.82M30.61,10.34c-.08,0-.16.05-.19.13-.02.04-.42,1.06.55,2.04.5.5,1,.61,1.33.61.18,0,.35-.03.51-.09.03-.01.07-.03.09-.06l.37-.46.15-.18s0-.01.02-.02h.01c.12-.09.28-.28.27-.58,0-.11-.02-.22-.07-.33-.17-.43-.52-.64-.66-.71,0,0-.01,0-.02,0-.06-.03-.09-.04-.09-.04l-2.24-.29s-.02,0-.03,0h0Z"/>
                </g>
                <path class="cls-29" d="M31.12,12.37c.62.63,1.26.61,1.64.48l.37-.46c-.18.01-.4,0-.57-.03-.38-.08-.59-.21-.04-.2.55.01.72-.21.72-.21,0,0-.27-.13-.11-.25.1-.07.27-.02.4.04,0-.08-.01-.16-.06-.26-.19-.49-.65-.64-.65-.64l-2.2-.28s-.38.93.51,1.82Z"/>
                <path class="cls-8" d="M31.73,11.04s1.13.09,1.41.52c.23.36.16.57.14.63l.04-.05s.21-.11.2-.4c0-.08-.01-.16-.06-.26-.14-.35-.42-.54-.57-.61h0c-.55.08-1.16.17-1.16.17Z"/>
                <ellipse class="cls-8" cx="32.65" cy="11.93" rx=".25" ry=".16" transform="translate(-1.69 6.52) rotate(-11.11)"/>
              </g>
              <g>
                <g>
                  <path class="cls-45" d="M30.83,13.87c-1.14-.09-1.89-.68-2.06-1.6-.15-.86.3-1.31.54-1.56l.19-.2c.24-.25.79-.38,1.1-.44.15-.03.24-.04.24-.04h.01s.07.02.08.05c.02.03.02.07,0,.11,0,0-.45.76-.28,1.57.17.78,1.95.97,1.97.97.04,0,.07.03.08.06.01.03,0,.07-.01.1,0,0-.06.08-.18.2-.12.12-.28.26-.48.4-.37.25-.75.38-1.11.38,0,0-.08,0-.12,0Z"/>
                  <path class="cls-6" d="M30.87,10.14h0M30.87,10.14s-.48.78-.29,1.64c.19.86,2.06,1.05,2.06,1.05,0,0-.06.08-.17.19h0c-.11.11-.27.25-.46.39-.28.19-.65.36-1.05.36-.04,0-.08,0-.12,0-1-.08-1.79-.57-1.96-1.51-.14-.76.22-1.17.52-1.47.07-.07.14-.14.2-.2.21-.22.73-.35,1.05-.41.14-.03.24-.04.24-.04M30.88,9.94h0s-.02,0-.03,0c-.02,0-.11.02-.25.04-.39.07-.91.21-1.15.47l-.11.11-.08.08c-.26.26-.73.73-.57,1.64.18.97.96,1.58,2.15,1.68.04,0,.09,0,.13,0,.38,0,.77-.13,1.16-.4.21-.15.38-.3.48-.4,0,0,.01-.01.02-.02.12-.12.19-.21.19-.21.05-.06.06-.14.03-.2-.03-.07-.09-.11-.16-.12-.45-.05-1.76-.31-1.88-.89-.15-.7.2-1.37.26-1.48.03-.03.04-.08.04-.12,0-.11-.09-.2-.2-.2h0ZM30.87,10.34h0,0Z"/>
                </g>
                <path class="cls-29" d="M30.02,12.28c1.08.82,1.96.87,1.96.87l.03.25c.39-.27.64-.58.64-.58,0,0-1.87-.19-2.06-1.05s.29-1.64.29-1.64c0,0-.98.13-1.28.45-.06.06-.12.12-.2.2-.03.48.07,1.08.63,1.5Z"/>
                <ellipse class="cls-8" cx="30.5" cy="13" rx=".19" ry=".47" transform="translate(11.77 40.36) rotate(-78.69)"/>
                <ellipse class="cls-8" cx="29.54" cy="12.19" rx=".1" ry=".26" transform="translate(-2.41 11.3) rotate(-20.84)"/>
                <path class="cls-8" d="M28.87,12.25c.17.94.96,1.43,1.96,1.51.44.04.85-.15,1.16-.36.2-.14.35-.28.46-.39-1.66.93-3.36-.08-3.29-1.14.04-.75.88-1.36,1.45-1.7-.31.06-.84.19-1.05.41-.06.06-.12.12-.2.2-.3.3-.65.7-.52,1.47Z"/>
              </g>
              <g>
                <path class="cls-57" d="M31.28,11c.32.35.79.26.79.26l.05.05.33.34h.01s.89-.37.65-.94c-.11-.24-.36-.34-.59-.37-.22-.03-.42,0-.42,0-.43-.28-.71-.21-.85-.04-.15.19-.14.52.03.7Z"/>
                <path class="cls-29" d="M31.28,11c.32.35.79.26.79.26l.05.05s0,0,0,0c.05-.04.3.13.55,0,.25-.13.25-.45.25-.45,0,0-.14.24-.32.32-.18.08-.27-.11-.03-.34.23-.23-.06-.47-.06-.47v-.02c-.22-.03-.41,0-.41,0-.9-.58-1.14.32-.82.66Z"/>
                <path class="cls-8" d="M31.29,10.49s.08-.15.26-.17c.19-.02.52.32.52.32,0,0,.49-.03.63.25.11.24-.15.63-.25.76h.01s.89-.37.65-.94c-.11-.24-.36-.34-.59-.37-.22-.03-.42,0-.42,0-.43-.28-.71-.21-.85-.04.02.1.03.19.03.19Z"/>
                <g>
                  <path class="cls-49" d="M32.07,11.26s-.47.09-.79-.26-.08-1.24.82-.66c0,0,.8-.11,1.01.37.25.57-.64.95-.64.95"/>
                  <path class="cls-6" d="M32.07,11.27c-.42.16-1.06-.13-1-.65.02-.23.19-.47.42-.49.14-.08.76.18.59.14.41-.08.99,0,1.13.48.14.46-.43.88-.77.91.32-.21.69-.53.57-.85-.1-.33-.56-.4-.93-.39-.18-.1-.37-.25-.59-.22-.21.02-.31.25-.28.43,0,.43.49.58.85.65h0Z"/>
                </g>
              </g>
              <g>
                <path class="cls-47" d="M32.23,11.89s-.12-.07-.26-.21c-.16-.17-.34-.43-.36-.8l-.12-.53-.02-.06s0,0-.02-.02c-.05-.08-.25-.34-.51-.32-.27.02-.77.28-.81.9,0,.07,0,.16,0,.24.09.79,1.02,1.16,2.08.8Z"/>
                <path class="cls-29" d="M32.23,11.89s-.58-.33-.62-1.01l-.12-.53c-.18-.04-.41-.03-.51.18-.18.38.03.9-.21.82-.15-.05-.44-.32-.63-.52,0,.07,0,.16,0,.24.09.79,1.02,1.16,2.08.8Z"/>
                <ellipse class="cls-8" cx="31.22" cy="11.39" rx=".11" ry=".2" transform="translate(10.33 37.25) rotate(-71.11)"/>
                <path class="cls-8" d="M32.23,11.89s-.12-.07-.26-.21c-.52,0-1.36-.04-1.45-.34-.14-.43.08-.92.43-1.06.19-.08.38-.05.51-.01-.05-.08-.25-.34-.51-.32-.27.02-.77.28-.81.9,0,.07,0,.16,0,.24.09.79,1.02,1.16,2.08.8Z"/>
                <g>
                  <path class="cls-46" d="M31.43,12.13c-.77,0-1.32-.4-1.39-1.03-.05-.44.1-.73.24-.89.21-.25.49-.35.66-.36h0c.38,0,.61.38.62.4l.15.62c.03.63.56.94.57.94.03.02.05.06.05.1,0,.04-.03.07-.07.09-.28.1-.56.14-.83.14Z"/>
                  <path class="cls-6" d="M30.98,9.95c.29,0,.5.35.5.35l.14.59c.04.68.62,1.01.62,1.01-.28.09-.55.14-.8.14-.7,0-1.22-.35-1.29-.94-.09-.79.5-1.12.81-1.14,0,0,.02,0,.02,0M30.98,9.74s-.03,0-.04,0c-.2.01-.51.12-.74.4-.15.18-.31.49-.26.97.08.68.66,1.12,1.49,1.12.28,0,.57-.05.86-.15.08-.03.13-.09.14-.17,0-.08-.03-.16-.1-.2-.02-.01-.48-.28-.51-.84l-.14-.62s-.01-.04-.02-.06c-.03-.05-.28-.45-.67-.45h0Z"/>
                </g>
              </g>
              <g>
                <path class="cls-48" d="M31.85,11.28s-.04,0-.06-.02c-.16-.12-.25-.19-.29-.24-.02,0-.03-.01-.04-.02-.18-.17-.26-.3-.23-.4.01-.04.09-.1.12-.11h.03c.12,0,.2.03.27.06.05.02.11.04.14.04.03-.07.13-.12.25-.12.1,0,.22.04.27.14.02.04.04.13-.07.24-.2.21-.3.37-.3.37-.02.02-.04.04-.07.04,0,0-.01,0-.02,0Z"/>
                <path class="cls-6" d="M32.04,10.58c.13,0,.26.07.12.21-.21.22-.32.39-.32.39,0,0-.29-.21-.28-.23.01-.02.15-.23.13-.23h0s-.18.2-.18.2c0,0-.32-.3-.15-.33.01,0,.02,0,.03,0,.12,0,.28.11.38.11.03,0,.06-.01.08-.04.03-.05.1-.07.18-.07M32.04,10.38c-.12,0-.23.04-.3.1-.02,0-.04-.01-.06-.02-.09-.03-.18-.07-.28-.07-.01,0-.06,0-.07,0-.1.02-.17.09-.2.18-.01.05-.06.21.26.5.02.01.03.03.05.04.06.07.16.14.29.23.03.02.08.04.12.04.01,0,.02,0,.04,0,.05-.01.1-.04.13-.09,0,0,.1-.16.29-.36.15-.16.11-.3.09-.35-.05-.12-.19-.2-.36-.2h0Z"/>
              </g>
            </g>
          </g>
          <g>
            <g>
              <g>
                <path class="cls-53" d="M10.44,34.52c-.15,0-.28-.02-.42-.07-.33-.12-.65-.36-.95-.72-.54-.64-.93-1.58-.8-1.94.04-.1.15-.18.37-.26.96-.38,3.87-.71,3.99-.73l6.7.54c.05,0,.1.04.11.09.02.05,0,.1-.03.14-.02.02-.49.52-1.19,1.1l-.29.23c-.81.63-1.99,1.38-3.05,1.38-.25,0-.49-.04-.71-.13-.39-.15-.76-.22-1.14-.22-.59,0-1.09.18-1.54.34-.37.13-.72.26-1.06.26h0Z"/>
                <path class="cls-6" d="M12.64,30.92l6.67.54s-.47.51-1.18,1.08c-.09.07-.19.15-.28.23-.86.67-1.98,1.35-2.97,1.35-.23,0-.45-.04-.66-.12-.43-.17-.83-.23-1.19-.23-1.11,0-1.89.6-2.6.6-.13,0-.25-.02-.37-.06-.33-.12-.64-.37-.89-.68-.55-.65-.88-1.53-.78-1.81.02-.06.13-.12.28-.18.96-.37,3.96-.72,3.96-.72M12.64,30.66s-.02,0-.03,0c-.12.01-3.05.36-4.03.74-.18.07-.38.16-.44.34-.16.46.3,1.46.83,2.08.32.38.66.63,1.01.76.15.05.3.08.46.08.36,0,.72-.13,1.11-.27.46-.17.93-.34,1.49-.34.36,0,.72.07,1.09.21.23.09.49.14.76.14.88,0,1.94-.47,3.14-1.41.08-.06.15-.12.23-.18l.06-.05c.71-.58,1.18-1.09,1.2-1.11.07-.08.09-.18.05-.28s-.13-.16-.23-.17l-6.67-.54s-.01,0-.02,0h0Z"/>
              </g>
              <path class="cls-29" d="M9.17,33.64c.84-.11,1.71-.3,2.24-.65,1.24-.84,2.54.51,3.38.53.61.01,2.2-.52,3.06-.74.85-.66,1.46-1.31,1.46-1.31l-6.67-.54s-4.09.48-4.24.9c-.1.28.23,1.16.78,1.81Z"/>
              <path class="cls-8" d="M10.07,34.32c1.04.38,2.14-1.09,4.15-.31,1.12.43,2.57-.41,3.63-1.23.1-.08.19-.15.28-.23-.63.32-1.56.82-1.95,1.12-.63.47-1.87-.14-2.87-.52-1-.38-2.1.9-3.47.26-.65-.3-.98-1.05-1.15-1.76-.16.06-.26.12-.28.18-.1.28.23,1.16.78,1.81.26.3.56.56.89.68Z"/>
            </g>
            <g>
              <g>
                <path class="cls-52" d="M8.07,32.17c-.51,0-.96-.08-1.33-.23-.07-.03-.14-.06-.21-.09-1.27-.6-1.5-1.35-1.81-2.38-.12-.4-.26-.86-.48-1.37-.11-.25-.18-.54-.21-.87-.16-1.71.84-3.91,1.1-4.46-.19-.11-.53-.4-.64-1.09,0-.01,0-.02,0-.03-.05-.33-.05-.71.02-1.14.24-1.7.55-2.73,1.03-3.45.03-.04.07-.09.11-.13.3-.3,1-.6,2.06-.89l.29-.07s.02,0,.03,0c.03,0,.06.01.09.03.03.03.05.07.05.11l-.47,7.03,4.77,7.72s.03.07.01.11c-.01.04-.04.07-.07.08-.02,0-1.55.72-3.14,1-.43.08-.84.12-1.2.12Z"/>
                <path class="cls-6" d="M8.02,16.1l-.47,7.03,4.79,7.8s-1.51.71-3.11.99c-.4.07-.79.11-1.18.11-.46,0-.9-.06-1.27-.22-.07-.03-.14-.06-.2-.09-1.71-.81-1.44-1.87-2.22-3.69-.11-.25-.17-.53-.2-.83-.17-1.92,1.15-4.51,1.15-4.51,0,0-.54-.15-.69-1.05h0c-.05-.29-.06-.66.01-1.12.27-1.91.61-2.8,1.01-3.39.02-.03.06-.07.09-.1.4-.4,1.49-.72,2-.86,0,0,0,0,0,0,0,0,0,0,0,0,.17-.04.28-.07.28-.07M8.02,15.83s-.04,0-.06,0l-.27.06s-.01,0-.02,0c-1.08.29-1.8.61-2.12.93-.04.04-.09.09-.12.14-.5.74-.81,1.79-1.05,3.51-.06.43-.07.83-.02,1.17,0,.01,0,.03,0,.04.11.63.39.95.6,1.11-.32.69-1.21,2.77-1.06,4.43.03.34.1.65.22.91.22.5.35.96.47,1.36.31,1.03.55,1.84,1.88,2.47.07.03.15.07.22.1.37.16.84.24,1.37.24.37,0,.78-.04,1.22-.12,1.61-.29,3.11-.99,3.17-1.02.07-.03.12-.09.14-.17.02-.07.01-.15-.03-.22l-4.75-7.73.46-6.94c0-.09-.03-.17-.09-.22-.05-.04-.11-.06-.17-.06h0ZM8.02,16.37h0,0Z"/>
              </g>
              <path class="cls-29" d="M6.59,31.72c.07.03.13.06.2.09,1.93.82,5.55-.88,5.55-.88l-4.79-7.8.47-7.03s-1.75.39-2.28.93c.04.44.06.93.06,1.42,0,.61-.54,1.86-1.17,3.19h0c.15.9.69,1.05.69,1.05,0,0-1.32,2.6-1.15,4.51.34.19.71.49,1.08.98,1.24,1.66,1.37,1.15,2.14,2.46.29.5-.14.84-.8,1.08Z"/>
              <ellipse class="cls-8" cx="6.92" cy="30.47" rx=".3" ry=".57" transform="translate(-21.92 18.46) rotate(-54.61)"/>
              <path class="cls-8" d="M6.59,31.72c.07.03.13.06.2.09.68.29,1.58.26,2.45.11-.96-.14-1.81-.29-1.94-.42-.33-.32-1.71-1.73-1.66-2.09.05-.37-.75-1.19-1.02-1.73-.26-.55.61-3.07.61-3.07,0,0,.7-1.66.66-1.7-.04-.04-1.09-1.41-1.16-1.78-.07-.36.75-2.91,1.06-3.37.15-.23,1.07-.94,1.95-1.6-.52.14-1.6.46-2,.86-.03.03-.07.07-.09.1-.4.59-.74,1.48-1.01,3.39-.07.46-.06.83-.01,1.12h0c.15.9.69,1.05.69,1.05,0,0-1.32,2.6-1.15,4.51.02.3.08.58.2.83.78,1.81.51,2.88,2.22,3.69Z"/>
            </g>
            <g>
              <g>
                <path class="cls-54" d="M14.45,31.47s-.04,0-.05-.01c0,0-.55-.24-1.38-.44-.79-.19-1.58-.29-2.36-.29h-.56c-.94,0-1.27-.11-1.59-.56-.06-.08-.13-.18-.2-.3-.22-.33-.52-.79-1.14-1.42l-.32-.33c-1.61-1.62-2.35-2.37-2.13-4.61.12-1.26.72-2.63,1.2-3.56.22-.42.44-.79.62-1.08.1-.15.42-.66.54-.77.02-.02.06-.04.1-.04.11,0,.38,0,7.4,13.21.03.05.02.11-.02.16-.03.03-.06.04-.1.04Z"/>
                <path class="cls-6" d="M7.16,18.2c.3,0,7.28,13.13,7.28,13.13,0,0-.55-.24-1.41-.45-.65-.16-1.48-.29-2.38-.29-.08,0-.16,0-.24,0-.11,0-.22,0-.32,0-.96,0-1.21-.13-1.48-.51-.25-.34-.52-.89-1.35-1.73-1.84-1.87-2.64-2.51-2.42-4.83.12-1.18.65-2.49,1.18-3.51.22-.41.43-.78.61-1.07.26-.41.45-.68.51-.74,0,0,0,0,0,0M7.16,17.93c-.07,0-.14.03-.19.07-.12.11-.4.54-.56.79-.23.38-.44.74-.62,1.09-.48.94-1.09,2.33-1.21,3.61-.23,2.31.52,3.07,2.17,4.72l.32.33c.61.62.9,1.07,1.12,1.4.08.12.14.22.21.3.34.48.71.62,1.7.62.1,0,.21,0,.32,0,.08,0,.16,0,.24,0,.75,0,1.56.1,2.32.29.82.2,1.36.43,1.36.43.04.02.07.02.11.02.07,0,.15-.03.2-.09.08-.08.09-.21.04-.31-7.06-13.28-7.31-13.28-7.52-13.28h0Z"/>
              </g>
              <path class="cls-29" d="M10.41,30.59c2.24-.06,4.03.74,4.03.74,0,0-7.08-13.32-7.29-13.13-.1.1-.61.82-1.13,1.81.02.96,0,2.09-.14,2.55-.28.87-.21,3.04,1.44,4.26,1.65,1.22,2.3,2.51,2.24,2.68-.03.08-.45.32-.95.58.29.42.57.53,1.8.5Z"/>
              <path class="cls-8" d="M10.41,30.59c1-.03,1.92.12,2.63.29.59-.22.85-.41.48-.52-1.38-.41-3.71.23-4.1-.11-.4-.34-1.1-2.09-2.06-2.69-.96-.59-2.35-2.92-1.99-3.89.25-.69.92-3.3,1.28-4.73-.18.29-.4.66-.61,1.07-.53,1.03-1.07,2.33-1.18,3.51-.23,2.33.57,2.97,2.42,4.83.83.85,1.1,1.39,1.35,1.73.29.42.57.53,1.8.5Z"/>
            </g>
            <g>
              <g>
                <path class="cls-58" d="M21.69,27.02c-.06-.01-.07-.09-.07-.15l-.56-14.63s.02-.08.05-.11c.02-.02.05-.03.08-.03.01,0,.02,0,.04,0,.02,0,1.86.52,3.2,1.12.56.25.97.48,1.21.7.54.48.6,1.05.68,1.7.06.54.13,1.16.5,1.85l.07.14c.77,1.42,1.15,2.14.12,4.04-.67,1.23-.7,1.86-.72,2.32,0,.1,0,.19-.02.27-.01.11-.04.25-.11.39-.3.65-4.31,2.31-4.35,2.32-.02.03-.04.04-.07.04-.02,0-.03,0-.05,0Z"/>
                <path class="cls-6" d="M21.19,12.24s1.83.51,3.18,1.11c.5.22.93.45,1.18.68.95.85.32,1.99,1.15,3.52.82,1.53,1.22,2.16.19,4.05-.83,1.52-.7,2.16-.76,2.65-.01.12-.04.23-.09.35-.26.56-4.02,2.15-4.28,2.26,0,0-.01,0-.01,0l-.53-13.99-.02-.64M21.19,11.97c-.06,0-.12.02-.17.06-.07.05-.11.14-.1.22l.02.64.53,13.99c0,.12.08.22.19.25.03,0,.05.01.08.01.05,0,.1-.02.15-.04.21-.08,4.07-1.68,4.39-2.38.08-.16.1-.31.12-.43.01-.09.01-.18.02-.29.02-.45.05-1.06.71-2.26,1.07-1.97.67-2.71-.12-4.17l-.07-.14c-.36-.67-.43-1.27-.48-1.8-.07-.65-.14-1.27-.72-1.79-.25-.23-.67-.47-1.25-.72-1.35-.6-3.14-1.11-3.22-1.13-.02,0-.05,0-.07,0h0Z"/>
              </g>
              <path class="cls-29" d="M21.75,26.87s4.02-1.68,4.29-2.27c.06-.12.08-.23.09-.35-.5-.4-1.19-1.09-1.2-1.87-.01-1.22.4-3.31.36-4.61-.03-1.3-1.52-.16-1-3.01.1-.53.12-1,.08-1.41-1.35-.6-3.18-1.11-3.18-1.11l.56,14.63Z"/>
              <path class="cls-8" d="M21.76,26.86c.27-.11,4.02-1.7,4.28-2.26.06-.12.08-.23.09-.35.05-.49-.07-1.13.76-2.65,1.03-1.9.63-2.52-.19-4.05-.82-1.53-.2-2.67-1.15-3.52-.25-.22-.68-.46-1.18-.68-1.35-.6-3.18-1.11-3.18-1.11l.02.64c1.64.69,3.49,1.51,3.74,1.89.46.7.32,2,.63,2.33.31.34,1.27,1.62,1.25,2.29-.02.67-1.25.63-1.26,2.09,0,1.45.34,2.44.13,2.69-.2.23-3.73,2.54-3.94,2.69Z"/>
            </g>
            <g>
              <g>
                <path class="cls-55" d="M16.49,32.44c-.58,0-1.09-.04-1.54-.1-.48-.08-.85-.19-1.11-.33-.33-.18-.81-.61-1.44-1.27-.46-.48-.96-1.04-1.46-1.61-1.4-1.62-2.75-3.33-2.76-3.35-.02-.03-.03-.07-.03-.1,0-.04.03-.07.06-.09l6.39-4.54,7.61-3.14s.07-.02.11-.02c.01,0,.02,0,.03,0,.01,0,1.23.46,1.17,2.11-.02.56.05.97.12,1.37.05.3.1.58.11.9.01.53-.1,1.07-.34,1.71-.27.72.04,1.2.37,1.71.47.72.95,1.46-.56,2.75-1.58,1.34-1.98,2.04-2.28,2.55-.16.27-.3.51-.56.74-.5.45-2.36.71-3.88.71h0Z"/>
                <path class="cls-6" d="M22.3,18.01s1.14.4,1.08,1.98c-.04.99.22,1.54.23,2.28.01.45-.06.96-.33,1.66-.71,1.89,2.29,2.33-.16,4.41-2.44,2.08-2.12,2.65-2.85,3.29-.44.39-2.18.68-3.79.68-.54,0-1.06-.03-1.52-.1-.43-.07-.8-.17-1.06-.31-.33-.18-.84-.65-1.41-1.24-.46-.48-.96-1.04-1.46-1.61-1.42-1.63-2.76-3.35-2.76-3.35l.71-.5,5.69-4.04,7.58-3.13.04-.02M22.3,17.74s-.07,0-.1.02l-.04.02-7.58,3.13s-.04.02-.05.03l-5.69,4.04-.71.5c-.06.04-.1.11-.11.18-.01.07,0,.15.05.21.01.02,1.36,1.74,2.77,3.36.6.69,1.07,1.2,1.47,1.62.64.67,1.14,1.1,1.47,1.29.28.15.66.27,1.15.35.46.07.98.11,1.56.11,1.52,0,3.43-.26,3.97-.75.28-.25.42-.49.59-.77.29-.5.69-1.18,2.25-2.51,1.61-1.37,1.07-2.2.59-2.93-.32-.5-.6-.93-.35-1.59.25-.66.36-1.22.35-1.76,0-.33-.06-.62-.11-.92-.07-.39-.14-.8-.12-1.34.06-1.75-1.21-2.22-1.26-2.24-.03-.01-.06-.02-.09-.02h0Z"/>
              </g>
              <path class="cls-23" d="M18.47,29.04s-.61-1.95.82-2.77c1.43-.83,1.73-1.53,2.02-1.77s.65-.22.3.58-1.45,1.35-1.98,1.61c-.53.26-.74,1.7-.74,1.7"/>
              <path class="cls-29" d="M13.91,31.89c.26.14.63.24,1.06.31.2-.16.39-.38.54-.66.93-1.69-.27-3-1.8-1.6-.48.44-.88.64-1.21.7.57.6,1.08,1.06,1.41,1.24Z"/>
              <path class="cls-29" d="M16.95,30.42c.86-.12.32-1.29,1.32-3.12,1-1.82,3.52-2.87,3.4-3.2-.12-.34,1.36.29.06,1.5-1.31,1.2-3.06,1.26-2.69,2.8.38,1.54,1.26-.16,2.38-1.22,1.12-1.06,1.51-2.62,1.64-3.91.05-.46.27-.78.55-1.01-.01-.47-.12-.87-.19-1.36-.04-.27-.06-.57-.05-.92.06-1.57-1.08-1.98-1.08-1.98l-7.62,3.14-6.39,4.54s.95,1.21,2.09,2.57c.22.26.44.52.67.78,1.02.14,2.54-1.05,3.37-1.23,2.33-.52,1.67,2.72,2.53,2.61Z"/>
              <path class="cls-29" d="M10.38,28.26c.44-.12.88-.24,1.3-.36,1.63-.47,4.18-.41,4.92-.19.74.22.97-.7,1.52-1.55.54-.84,1.39-2.55,3.46-3.7.97-.54,1.53-1.1,1.85-1.56-.04-.27-.06-.57-.05-.92.06-1.57-1.08-1.98-1.08-1.98l-7.62,3.14-6.39,4.54s.95,1.21,2.09,2.57Z"/>
              <path class="cls-8" d="M13.91,31.89c.26.14.63.24,1.06.31,1.81.28,4.72-.05,5.31-.58.72-.64.4-1.21,2.85-3.29,2.45-2.08-.55-2.52.16-4.41.27-.71.34-1.22.33-1.66-.02-.74-.27-1.29-.23-2.28.06-1.57-1.08-1.98-1.08-1.98l-.04.02c.19.51.45,1.2.69,1.82.48,1.2-.19,2.61-.15,3.59.03.98-.68,1.68.5,2.68,1.17.99-.13,1.67-.21,1.7-.08.03-1.69.73-2.16,1.58-.47.85-.17,1.64-1.53,1.95s-4.19.65-6.27-.83c-1.56-1.11-3.34-3.97-4.13-5.32l-.71.5s1.34,1.71,2.76,3.35c.5.57,1,1.13,1.46,1.61.57.6,1.08,1.06,1.41,1.24Z"/>
            </g>
            <ellipse class="cls-8" cx="18.93" cy="30.46" rx="1.06" ry=".48" transform="translate(-8.03 6.81) rotate(-16.87)"/>
            <ellipse class="cls-8" cx="12.67" cy="29.24" rx=".4" ry=".73" transform="translate(-15.89 15.1) rotate(-40.23)"/>
            <g>
              <g>
                <path class="cls-33" d="M14.74,26.44l-4.41-1.72c-.06-.02-.1-.09-.08-.16l2.69-11.44c.04-.08.72-1.18,1.78-2.09.06-.05.12-.1.18-.14.27-.19.48-.26.7-.26.16,0,.32.04.48.08.21.05.44.12.76.12.28,0,.58-.05.91-.14.8-.22,1.4-.36,1.96-.36.98,0,1.69.46,2.32,1.48.71,1.17,2.21,4.29.7,7.9-.05.11-.11.23-.17.35-.71,1.34-2.36,2.9-4.9,4.63-1.52,1.03-2.8,1.73-2.81,1.74-.02.01-.04.02-.06.02-.02,0-.03,0-.05,0Z"/>
                <path class="cls-6" d="M19.71,10.46c.86,0,1.56.36,2.2,1.42,1.07,1.76,1.98,4.7.69,7.78-.05.11-.1.22-.16.34-.86,1.63-3.05,3.35-4.86,4.58-1.53,1.04-2.8,1.73-2.8,1.73l-4.41-1.72,2.29-9.72.4-1.72s.68-1.11,1.74-2.02c.07-.06.14-.11.2-.16.23-.16.41-.21.59-.21.34,0,.65.2,1.24.2.26,0,.56-.04.95-.15.73-.21,1.36-.36,1.92-.36M19.71,10.19h0c-.57,0-1.19.14-2,.37-.33.09-.61.14-.88.14-.3,0-.51-.06-.72-.11-.17-.05-.34-.09-.52-.09-.25,0-.48.08-.74.26,0,0-.04.03-.04.03-.06.04-.12.09-.18.14-1.08.92-1.77,2.04-1.8,2.08-.01.02-.03.05-.03.08l-.4,1.72-2.29,9.72c-.03.13.04.26.16.31l4.41,1.72s.06.02.1.02c.04,0,.09-.01.13-.03.01,0,1.3-.71,2.82-1.75,2.56-1.74,4.22-3.32,4.94-4.68.07-.13.13-.24.17-.36,1.53-3.66.01-6.83-.71-8.02-.65-1.07-1.4-1.55-2.43-1.55h0Z"/>
              </g>
              <path class="cls-29" d="M10.38,24.59l4.41,1.72s6.07-3.32,7.66-6.31c-.32-.3-.58-.67-.39-1,.4-.72-.94-1-.56-2.58.39-1.58.87-2.92-.36-4.26-1.23-1.34-2.28-.68-4.24-.03-1.26.41-1.72-.46-1.89-1.14-.06.05-.13.1-.2.16-1.06.91-1.74,2.02-1.74,2.02l-2.69,11.44Z"/>
              <path class="cls-25" d="M20.48,11.78s-.5-.45-2.38.33c-1.88.79-1.44.98-1.4,1.02s2.72-.82,3.39-.8.91.17.91.17"/>
              <path class="cls-24" d="M20.86,17.72s.29-4.15.84-3.66.41,3.25.3,3.62-.58.44-.58.44"/>
              <path class="cls-8" d="M17.59,24.58c1.81-1.23,4-2.95,4.86-4.58.06-.12.12-.23.16-.34,1.29-3.08.38-6.02-.69-7.78-1.07-1.76-2.28-1.58-4.13-1.06-1.72.48-1.9-.44-2.78.16-.06.05-.13.1-.2.16-1.06.91-1.74,2.02-1.74,2.02l-.4,1.72.44-.12s1.07-2.97,1.99-3.39c.93-.41.26.82,2.27.03,2.01-.79,2.72-.49,3.42-.18.7.31,1.97,3.13,1.66,6.13-.3,3-2.05,4-2.13,3.99-.06-.04,1.14-2.41.92-2.68-.22-.27-1.04,1.99-1.52,2.98-.47.99-2.17,2.91-2.17,2.91,0,0,.01.01.04.04Z"/>
            </g>
            <g>
              <g>
                <path class="cls-32" d="M7.07,23.39s-.05,0-.08-.02c-.03-.02-.05-.06-.06-.1,0-.02-.19-2.41-.19-4.52,0-1.66.1-2.72.32-3.16.4-.8.79-1.18,1.16-1.56.23-.22.44-.44.66-.74.08-.11.16-.24.24-.36.34-.55.76-1.24,1.97-1.24.52,0,1.14.12,1.9.38.52.17.97.31,1.37.43l.36.11c1.37.4,2.04.65,2.27,1.96.06.29.09.64.1,1.1.1,2.83-1.47,5.32-1.49,5.34l-8.5,2.39s-.02,0-.04,0Z"/>
                <path class="cls-6" d="M11.09,11.82c.47,0,1.07.11,1.86.37.68.23,1.25.39,1.73.53,1.36.4,1.96.63,2.18,1.86.06.3.09.65.1,1.09.1,2.82-1.47,5.26-1.47,5.26l-7.99,2.21-.43.12s-.18-2.38-.19-4.51c0-1.36.07-2.62.31-3.1.62-1.24,1.2-1.45,1.81-2.28.45-.61.71-1.55,2.09-1.55M11.09,11.55c-1.28,0-1.72.72-2.08,1.3-.08.12-.15.24-.23.35-.21.29-.42.5-.65.72-.38.38-.78.78-1.19,1.59-.23.47-.34,1.52-.34,3.23,0,2.12.19,4.51.19,4.53,0,.08.05.15.11.2.05.03.1.05.15.05.02,0,.05,0,.07-.01l.43-.12,7.99-2.21c.06-.02.12-.06.16-.11.07-.1,1.61-2.54,1.51-5.42-.02-.47-.05-.83-.11-1.13-.24-1.38-.98-1.66-2.36-2.07l-.36-.11c-.4-.12-.85-.25-1.36-.42-.77-.26-1.41-.39-1.94-.39h0Z"/>
              </g>
              <path class="cls-8" d="M8.15,15.41s1.36-1.2,1.72-1.29-.32,1.49-1.08,1.79-.63-.5-.63-.5Z"/>
              <circle class="cls-8" cx="10.15" cy="13.5" r=".38"/>
              <path class="cls-29" d="M7.07,23.26l8.42-2.33s1.57-2.44,1.47-5.26c-.08-2.2-.58-2.45-2.28-2.94.02.09-.03.15-.15.16-.77.03-2.88-.19-3.61,1.05-.73,1.24-.48,2.15-1.66,2.46-.61.16-1.59,1.3-2.38,2.36,0,2.13.19,4.51.19,4.51Z"/>
              <path class="cls-27" d="M10.82,13.64c-.06-.09-.39-.61-.23-.88s1.54-.4,2.79.13c1.26.54-.28.77-1.25.76s-1.05.33-1.05.33"/>
              <path class="cls-8" d="M7.07,23.26l.43-.12c-.04-2.27-.05-7.84.97-8.42,1.28-.74,1.59-2.02,1.74-2.24s1.77-.59,3.64.36c1.12.57,2.27,1.27,3.01,1.75-.22-1.22-.81-1.46-2.18-1.86-.48-.14-1.05-.3-1.73-.53-3.1-1.04-3.35.35-3.95,1.18-.61.83-1.19,1.04-1.81,2.28-.24.48-.31,1.74-.31,3.1,0,2.13.19,4.51.19,4.51Z"/>
            </g>
            <g>
              <g>
                <path class="cls-36" d="M10.22,18.83s-.08-.02-.11-.06c-.03-.04-.03-.08-.02-.12,0-.02.65-1.78,1.38-3.06.1-.17.16-.28.24-.39.09-.15.19-.29.29-.42.57-.73,1.52-.73,2.52-.73l.11.13v-.13c.68,0,1.52,0,2.28-.27.44-.16.83-.31,1.17-.45.64-.26,1.15-.47,1.6-.47.34,0,.63.12.9.37.37.34.29,1.25-.25,2.77-.11.33-.24.65-.36.95-.37.89-.73,1.6-.73,1.61-.02.04-.07.07-.12.07,0,0-8.91.2-8.91.2Z"/>
                <path class="cls-6" d="M19.69,13c.29,0,.55.1.81.34.39.36.11,1.5-.29,2.62-.11.33-.24.64-.36.94h0c-.37.9-.72,1.6-.72,1.6l-8.9.2s.63-1.75,1.37-3.04c.08-.13.15-.26.23-.38.09-.15.19-.29.29-.41.52-.66,1.41-.68,2.42-.68h.11c.75,0,1.56,0,2.33-.28,1.28-.45,2.08-.92,2.73-.92M19.69,12.73v.27s0-.27,0-.27c-.47,0-.99.21-1.65.48-.34.14-.72.3-1.16.45-.74.26-1.54.26-2.24.26h-.11c-.99,0-2.02,0-2.63.78-.11.14-.21.28-.3.44-.07.1-.14.22-.21.35-.76,1.33-1.38,3.05-1.41,3.12-.03.08-.02.18.03.25.05.07.13.11.22.11,0,0,0,0,0,0l8.9-.2c.1,0,.19-.06.23-.15.01-.03.36-.71.72-1.6,0,0,0-.01,0-.02.12-.3.25-.62.37-.95.57-1.59.64-2.52.22-2.91-.29-.27-.62-.41-.99-.41h0Z"/>
              </g>
              <path class="cls-29" d="M10.22,18.7l8.9-.2s.63-1.25,1.09-2.54c-.7-.09-1.48-.19-1.9-.23-.86-.09-.86-1.1-1.62-1.15-.76-.04-.59,1.9-2.14,2.31-.92.24-2.49-1-2.74-1.61-.83,1.29-1.6,3.42-1.6,3.42Z"/>
              <path class="cls-8" d="M11.59,15.66c.53-.42,1.14-.72,1.77-.72,2.01,0,5.06-.94,6.18-1.49,1.12-.54.11,3.61.11,3.61,0,0,.07-.06.2-.17h0c.12-.3.25-.62.36-.94.4-1.12.67-2.26.29-2.62-.82-.77-1.68-.07-3.54.58-1.85.65-3.93-.23-4.86.95-.1.12-.19.26-.29.41-.08.12-.15.25-.23.38Z"/>
              <path class="cls-8" d="M12.43,15.45s2.51-.74,2.54-.27-1.83.74-2.31.66-.23-.39-.23-.39Z"/>
              <circle class="cls-8" cx="15.49" cy="15.24" r=".28"/>
              <path class="cls-8" d="M17.7,15s1.35-1.01,1.57-.51-.73.81-1.21.76-.36-.25-.36-.25Z"/>
            </g>
            <g>
              <g>
                <path class="cls-37" d="M10.23,26.78s-1.08-.05-1.78-.38c-.17-.07-.31-.16-.42-.27-.6-.58-1.62-2.23-1.19-4.3.09-.43.22-.83.4-1.18.18-.38.39-.7.6-.95h-.02s-.04.03-.07.03-.05,0-.07-.02c-.04-.02-.07-.07-.07-.12,0-.03.01-.82.58-1.19.03-.02.08-.05.13-.08.62-.35,2.14-.86,2.2-.88.01,0,.03,0,.04,0,.04,0,.07.01.1.04.04.04.05.09.03.14,0,.02-.77,1.99-.77,2.67,0,.54.97,1.64,1.34,2.03.11.2.88,1.71.17,2.14-.16.1-.36.15-.61.15-.15,0-.31-.02-.45-.03-.11-.01-.22-.02-.31-.02-.12,0-.15.02-.16.03-.01.02-.02.06,0,.12.05.31.17.83.37,1.54l.11.37s0,.09-.02.12c-.03.03-.06.05-.11.05h0Z"/>
                <path class="cls-6" d="M10.57,17.57s-.78,2.01-.78,2.72c0,.71,1.38,2.12,1.38,2.12,0,0,.82,1.55.19,1.93-.16.1-.35.13-.54.13-.27,0-.55-.06-.75-.06s-.34.06-.3.31c.07.42.25,1.13.37,1.55.06.22.11.37.11.37,0,0-1.05-.05-1.73-.37-.15-.07-.29-.15-.38-.24-.56-.54-1.58-2.13-1.15-4.17.09-.44.23-.82.39-1.15.5-1.05,1.21-1.58,1.4-1.71l-1.01.59s0-.75.52-1.08c.03-.02.08-.05.12-.07.62-.35,2.18-.87,2.18-.87M10.57,17.3s-.06,0-.09.01c-.06.02-1.59.54-2.23.89-.05.03-.1.06-.14.08-.62.4-.64,1.26-.64,1.3,0,.08.04.16.1.22-.16.22-.32.49-.47.79-.18.36-.31.76-.41,1.2-.45,2.12.61,3.82,1.23,4.42.12.12.28.22.47.3.71.33,1.78.39,1.82.39,0,0,0,0,.01,0,.08,0,.16-.04.21-.1.05-.07.07-.16.05-.24,0,0-.04-.15-.11-.37-.19-.7-.32-1.21-.36-1.52.01,0,.02,0,.04,0,.09,0,.19.01.29.02.15.02.31.03.46.03.28,0,.5-.05.68-.16.8-.49.06-1.99-.09-2.29-.01-.02-.03-.04-.05-.06-.54-.55-1.3-1.52-1.3-1.93,0-.54.55-2.08.76-2.62.04-.1.02-.21-.06-.28-.05-.05-.12-.08-.19-.08h0ZM10.57,17.84h0,0Z"/>
              </g>
              <path class="cls-29" d="M8.5,26.28c.68.32,1.73.37,1.73.37,0,0-.38-1.28-.48-1.93-.1-.65.98,0,1.6-.38.63-.38-.19-1.93-.19-1.93,0,0-1.37-1.41-1.38-2.12,0-.71.78-2.72.78-2.72,0,0-1.79.61-2.31.94-.51.33-.52,1.08-.52,1.08l1.04-.6c-.14.09-.9.62-1.43,1.73.69-.48,1.65-1.17,1.73-1.4.13-.36.04,1.47-.29,2.18s.36.71-.23,1.72c-.45.78-.36,2.19-.07,3.06Z"/>
              <path class="cls-8" d="M8.5,26.28c.68.32,1.73.37,1.73.37,0,0-.04-.15-.11-.37-.48-.09-1.19-.26-1.58-.56-.62-.47-1.55-1.8-1.33-3.66.21-1.79,1.98-3.26,2.11-3.37-.12.02-1.1.18-1.1.06,0-.04.07-.15.16-.29-.04.02-.09.05-.12.07-.51.33-.52,1.08-.52,1.08l1.01-.59c-.19.13-.9.65-1.4,1.71-.16.33-.29.71-.39,1.15-.43,2.05.6,3.63,1.15,4.17.1.1.23.18.38.24Z"/>
              <path class="cls-26" d="M9.52,21.81s2.52,1.68,1.57,2.14-2.34-1.11-2.34-1.11"/>
              <path class="cls-8" d="M7.59,23.88s-.43-1.07-.23-2.14.59-.51.51.41.17,2.12-.28,1.72Z"/>
            </g>
            <g>
              <g>
                <path class="cls-35" d="M13.43,27.63c-1.79,0-3.65-.84-4.19-1.3-.44-.38-.55-1.12-.57-1.68,0-.3,0-.5,0-.5,0-.04.02-.07.05-.1l1.57-1.1s.05-.02.08-.02c.03,0,.07.01.1.04.02.02,1.67,1.66,2.98,1.97.16.04.34.05.54.05,1.24,0,2.87-.69,4.06-1.73.22-.19.42-.39.61-.6.03-.03.06-.05.1-.05.02,0,.04,0,.06.02.06.03.08.1.06.16,0,0-.06.22-.21.55-.34.84-1.34,2.91-3.14,3.83-.61.31-1.32.47-2.11.47h0Z"/>
                <path class="cls-6" d="M18.76,22.74s-.06.21-.2.54c-.38.94-1.36,2.88-3.08,3.76-.64.33-1.35.45-2.05.45-1.84,0-3.63-.87-4.1-1.27-.41-.35-.51-1.09-.52-1.59,0-.29,0-.49,0-.49l.03-.02,1.54-1.08s1.68,1.69,3.04,2c.17.04.36.06.57.06,1.2,0,2.88-.66,4.15-1.76.22-.19.43-.4.62-.61M18.76,22.47c-.08,0-.15.03-.2.09-.16.19-.35.37-.6.59-1.15,1-2.78,1.7-3.97,1.7-.19,0-.36-.02-.51-.05-1.26-.29-2.89-1.91-2.91-1.93-.05-.05-.12-.08-.19-.08-.05,0-.11.02-.15.05l-1.54,1.08c-.07.05-.14.14-.14.22,0,0-.02.21,0,.52.02.59.14,1.37.62,1.78.52.45,2.37,1.34,4.27,1.34.81,0,1.55-.16,2.18-.48,1.85-.94,2.86-3.04,3.21-3.9.14-.34.21-.56.21-.56.04-.12-.02-.25-.13-.31-.04-.02-.09-.03-.13-.03h0ZM18.76,23.01h0,0Z"/>
              </g>
              <path class="cls-29" d="M9.54,24.44s1.71,1.65,2.35,1.86c.64.22.94-.39,3.25-.64,1.35-.15,2.6-1.38,3.41-2.39.14-.32.2-.54.2-.54-1.47,1.67-3.98,2.63-5.34,2.32-1.36-.31-3.04-2-3.04-2l-1.57,1.1s-.02.2,0,.49l.74-.19Z"/>
              <path class="cls-8" d="M15.48,27.04c1.72-.88,2.7-2.82,3.08-3.76.14-.32.2-.54.2-.54-.19.22-.4.42-.62.61l-.38,1.25s-2.08,2.32-3.53,2.45c-1.46.13-4.72-1.28-4.77-1.32-.02-.02-.32-.83-.62-1.61l-.03.02s-.02.2,0,.49c.02.49.11,1.23.52,1.59.64.56,3.83,2,6.15.82Z"/>
              <path class="cls-8" d="M13.43,26.26s1.77-.53,1.93-.35-1.04.97-1.53.87-.41-.52-.41-.52Z"/>
              <ellipse class="cls-8" cx="10" cy="25.36" rx=".24" ry=".54" transform="translate(-16.88 20.83) rotate(-58.91)"/>
            </g>
            <g>
              <g>
                <g>
                  <path class="cls-34" d="M12.18,24.47c-.23,0-.84-.03-1.44-.32-.42-.2-.76-.48-1.02-.85-.31-.44-.52-.99-.59-1.57-.14-1,.06-2.08.56-2.96.03-.05.06-.11.1-.16.54-.78,1.77-1.54,2.7-2.03.6-.32,1.05-.52,1.05-.52.05-.01.3-.02.66-.02.33,0,.82,0,1.29.06.27.03.54.07.77.13.09.02.16.05.23.08.27.11.45.27.52.48.07.2.02.4-.06.52-.01.02-.07.08-.09.1-.7.44-1.08.73-1.19.91-.06.1-.23.3-.45.58-.52.65-1.4,1.73-1.96,2.78-.56,1.07-.75,2-.82,2.46l-.02.21c0,.07-.06.12-.12.12h-.12Z"/>
                  <path class="cls-6" d="M14.2,16.18c.36,0,.83.01,1.28.06.27.03.53.07.75.12.08.02.15.04.21.07.61.24.49.67.4.81-.02.02-.03.04-.04.05-.07.05-1.03.61-1.24.96-.21.35-1.62,1.88-2.41,3.37-.58,1.11-.77,2.08-.83,2.5-.02.14-.02.22-.02.22,0,0-.04,0-.11,0-.24,0-.81-.03-1.39-.31-.35-.16-.7-.42-.97-.81-.31-.44-.5-.96-.57-1.51-.14-.98.07-2.04.55-2.88.03-.05.06-.1.09-.15.53-.76,1.76-1.51,2.66-1.99.59-.32,1.05-.52,1.05-.52,0,0,.24-.01.6-.01M14.2,15.91c-.36,0-.61.01-.61.01-.03,0-.07,0-.1.02-.02,0-.47.2-1.06.52-.94.5-2.19,1.26-2.75,2.07-.04.05-.07.11-.1.16-.52.92-.73,2.03-.58,3.05.08.6.29,1.16.62,1.62.27.39.63.69,1.08.9.63.3,1.26.33,1.5.33.08,0,.13,0,.13,0,.13-.01.24-.12.25-.25,0,0,0-.08.02-.21.05-.36.23-1.32.8-2.41.55-1.04,1.42-2.12,1.94-2.76.23-.29.39-.48.46-.59.06-.09.27-.32,1.08-.82.05-.03.08-.05.09-.06.04-.02.07-.07.1-.11.1-.17.16-.41.08-.66-.08-.25-.29-.43-.6-.56-.07-.03-.15-.06-.25-.08-.22-.05-.48-.1-.78-.13-.47-.05-.97-.06-1.31-.06h0Z"/>
                </g>
                <path class="cls-29" d="M10.8,24.03c.75.36,1.5.3,1.5.3,0,0,.07-1.24.86-2.73.79-1.49,2.19-3.02,2.41-3.37.21-.35,1.17-.91,1.24-.96.06-.04.34-.58-.37-.86l-1.54,1.06.58-1.25c-.89-.09-1.88-.05-1.88-.05,0,0-3.05,1.33-3.79,2.65-.48.84-.69,1.9-.55,2.88.55.39,1.35,1.03,1.43,1.48.05.29.09.59.11.84Z"/>
                <path class="cls-8" d="M15.56,16.62c.6.13,1.01.39,1.28.62.08-.14.2-.57-.4-.81-.06-.03-.13-.05-.21-.07-.22-.05-.48-.09-.75-.12-.89-.09-1.88-.05-1.88-.05,0,0-.45.2-1.05.52.74-.12,2.14-.28,3.01-.09Z"/>
                <path class="cls-8" d="M10.8,24.03c.75.36,1.5.3,1.5.3,0,0,0-.08.02-.22-.62-.04-1.34-.29-1.97-1.01-.96-1.07-.74-3.08-.45-4.41-.03.05-.06.1-.09.15-.48.84-.69,1.9-.55,2.88.07.55.26,1.07.57,1.51.27.39.62.64.97.81Z"/>
              </g>
              <g>
                <g>
                  <path class="cls-65" d="M13.8,25.28c-.3,0-.59-.04-.85-.13-.32-.11-.58-.27-.78-.5-1.09-1.18-.17-3.55-.13-3.65l.1-.12,1.5-1.63h0s.17-.3.5-.67c.54-.62,1.44-1.38,2.67-1.43h.13c.26-.01.5-.02.74-.02.87,0,1.73.07,2.02.58.19.33.1.8-.28,1.42-.86,1.41-.94,2.09-1.02,2.75-.02.18-.04.35-.08.54-.17.9-2.52,2.87-4.5,2.87h0Z"/>
                  <path class="cls-6" d="M17.66,17.26s.05,0,.07,0c1.5,0,2.48.28,1.56,1.79-1.1,1.8-.95,2.45-1.12,3.34-.14.78-2.39,2.76-4.37,2.76-.28,0-.55-.04-.81-.13-.31-.1-.55-.26-.73-.46-1.04-1.13-.11-3.51-.11-3.51l.07-.08,1.5-1.63s.17-.3.5-.68c.5-.58,1.38-1.33,2.57-1.39.29-.01.58-.02.85-.02M17.66,16.99c-.24,0-.49,0-.75.02h-.11c-1.28.06-2.21.84-2.76,1.48-.29.33-.46.6-.51.69l-1.48,1.61-.07.08s-.04.05-.05.08c-.04.1-.99,2.55.16,3.79.21.24.5.42.84.53.28.09.58.14.89.14,2.11,0,4.46-2.05,4.63-2.98.03-.19.06-.36.08-.54.08-.65.16-1.32,1.01-2.7.41-.66.5-1.17.29-1.55-.32-.57-1.23-.65-2.08-.65h-.07Z"/>
                </g>
                <path class="cls-29" d="M12.27,24.56c.3-.17.72-.25,1.29-.15,2.13.38,3.67-1.32,3.13-1.37-.54-.05-2.22-.55-1.22-.86,1-.32,1.96-1.06.84-2.63-.63-.88.4-1.71,1.42-2.27-.29,0-.6.01-.92.02-1.96.09-3.07,2.06-3.07,2.06l-1.57,1.7s-.94,2.38.11,3.51Z"/>
                <path class="cls-14" d="M12.84,23.7s1.79.85,2.79.18c1-.67-.74-1.01-.74-1.01"/>
                <path class="cls-15" d="M15.18,19.9s-.2,1.38-1.81,1.92c-1.61.54-1.46,1.27-.49,1.17s2.73-.7,2.78-1.84c.04-1.15.05-1.3.05-1.3"/>
                <path class="cls-8" d="M12.99,25.02c2.12.7,5.01-1.74,5.18-2.63.16-.89.01-1.53,1.12-3.34.92-1.51-.07-1.79-1.56-1.79-.29,0-.6.01-.92.02-1.2.05-2.07.81-2.57,1.39l.03.13s1.34-1.08,3.28-.97c1.94.1.86,1.12.13,2.79-.73,1.68-.12,1.59-.25,2.06-.13.47-2.26,2.27-4.06,1.99-1.46-.22-1.26-2.76-1.14-3.7l-.07.08s-.94,2.38.11,3.51c.18.2.41.36.73.46Z"/>
                <path class="cls-13" d="M15.76,18.43s2.4-.75,2.52.19-1.28,3.13-1.28,3.13"/>
                <ellipse class="cls-8" cx="17.76" cy="19.19" rx=".72" ry=".31" transform="translate(-8.17 22.55) rotate(-54.61)"/>
              </g>
              <g>
                <g>
                  <path class="cls-62" d="M12.8,19.48c-1.75-.04-2.27-1.33-2.29-1.38-.02-.06,0-.12.05-.16l2.39-1.75s.08-.04.16-.06v.02c.15-.06.31-.1.51-.1.24,0,.47.05.69.15.13.06.24.13.33.23.33.33.21.7.21.71l.04.37.06.78c-.14.33-.68,1.19-2.06,1.19,0,0-.1,0-.1,0Z"/>
                  <path class="cls-6" d="M13.63,16.19c.19,0,.41.03.63.14.13.06.22.13.29.2.27.27.18.58.18.58v.08s0,.03,0,.03l.02.31.06.78c-.23.46-.81,1.04-1.92,1.04-.03,0-.06,0-.1,0-1.68-.04-2.16-1.29-2.16-1.29l2.39-1.75s.04-.02.12-.04h0c.1-.04.27-.07.47-.07M13.63,15.92c-.24,0-.43.05-.56.08,0,0-.02,0-.03.01-.08.02-.13.05-.13.05l-2.44,1.77c-.1.07-.14.2-.09.31.02.06.57,1.42,2.41,1.47h.1c1.46,0,2.02-.91,2.16-1.19.02-.04.03-.09.03-.14l-.06-.78-.02-.31h0s0-.02,0-.03v-.02c.04-.19.02-.52-.26-.79-.1-.11-.23-.19-.37-.26-.23-.11-.48-.16-.74-.16h0Z"/>
                </g>
                <path class="cls-29" d="M12.8,19.35c1.18.04,1.78-.57,2.02-1.04l-.06-.78c-.17.18-.38.38-.58.5-.44.27-.77.34-.22-.16.54-.49.5-.87.5-.87,0,0-.39.12-.33-.15.03-.16.25-.26.42-.32-.07-.07-.16-.14-.29-.2-.63-.29-1.22-.02-1.22-.02l-2.39,1.75s.48,1.25,2.16,1.29Z"/>
                <path class="cls-8" d="M12.18,17.49s1.17-.95,1.85-.79c.56.14.68.4.71.48v-.08s.09-.3-.18-.58c-.07-.07-.16-.14-.29-.2-.46-.22-.9-.13-1.1-.07h0c-.46.59-.97,1.23-.97,1.23Z"/>
                <ellipse class="cls-8" cx="13.88" cy="17.52" rx=".33" ry=".21" transform="translate(-8.44 18.69) rotate(-54.61)"/>
              </g>
              <g>
                <g>
                  <path class="cls-63" d="M11.86,21.88c-.51,0-.98-.16-1.41-.48-.94-.69-.92-1.55-.9-2.01v-.37c0-.46.42-1.09.67-1.43.12-.16.2-.26.2-.26.03-.03.06-.05.1-.05.01,0,.02,0,.03,0,.05.01.09.05.1.1,0,.01.26,1.15,1.17,1.77.14.09.31.14.52.14.96,0,2.27-1,2.28-1.01.02-.02.05-.03.08-.03.02,0,.04,0,.05.01.04.02.08.06.08.11,0,0,.01.14,0,.35,0,.19-.03.49-.1.83-.15.66-.43,1.16-.85,1.49-.67.54-1.37.82-2.04.82h0Z"/>
                  <path class="cls-6" d="M10.52,17.42s.26,1.2,1.23,1.86c.17.12.37.16.59.16,1.02,0,2.37-1.04,2.37-1.04,0,0,.01.13,0,.34h0c0,.21-.03.5-.09.81-.11.49-.33,1.04-.8,1.41-.62.5-1.29.79-1.96.79-.46,0-.91-.14-1.33-.45-.83-.61-.86-1.33-.85-1.89,0-.14,0-.26,0-.37,0-.41.39-1.02.64-1.36.11-.16.19-.26.19-.26M10.52,17.15c-.08,0-.16.04-.21.1,0,0-.09.1-.21.27-.31.43-.69,1.04-.69,1.51v.21s0,.16,0,.16c-.01.48-.04,1.38.96,2.12.46.33.96.5,1.49.5.7,0,1.43-.29,2.13-.85.44-.35.74-.88.89-1.57.07-.34.09-.63.1-.82,0-.01,0-.02,0-.04,0-.23,0-.37,0-.37,0-.1-.07-.18-.16-.22-.03-.01-.07-.02-.11-.02-.06,0-.12.02-.16.06-.01,0-1.29.98-2.2.98-.18,0-.32-.04-.44-.12-.87-.59-1.11-1.68-1.11-1.69-.02-.1-.1-.18-.2-.21-.02,0-.04,0-.06,0h0Z"/>
                </g>
                <path class="cls-29" d="M11.66,20.28c1.8-.2,2.7-.95,2.7-.95l.26.22c.13-.62.09-1.15.09-1.15,0,0-1.99,1.53-2.96.88s-1.23-1.86-1.23-1.86c0,0-.83,1.02-.83,1.61,0,.11,0,.24,0,.37.41.49,1.06.98,1.98.87Z"/>
                <ellipse class="cls-8" cx="12.79" cy="20.52" rx=".63" ry=".25" transform="translate(-8.97 9.96) rotate(-32.18)"/>
                <ellipse class="cls-8" cx="11.12" cy="20.63" rx=".14" ry=".35" transform="translate(-12.29 21.71) rotate(-64.33)"/>
                <path class="cls-8" d="M10.53,21.3c1.03.76,2.24.5,3.29-.34.46-.37.69-.92.8-1.41.06-.31.09-.59.09-.8-.75,2.43-3.32,3.01-4.23,1.92-.64-.76-.4-2.13-.16-2.98-.25.34-.64.95-.64,1.36,0,.11,0,.24,0,.37-.02.56.01,1.28.85,1.89Z"/>
              </g>
              <g>
                <path class="cls-64" d="M11.71,17.87c.63.04,1-.48,1-.48h.1s.63.03.63.03h.02s.51-1.19-.25-1.51c-.33-.14-.66,0-.91.18-.25.18-.41.38-.41.38-.67.13-.88.44-.86.74.03.32.34.63.67.65Z"/>
                <path class="cls-29" d="M11.71,17.87c.63.04,1-.48,1-.48h.1s0,0,0,0c.01-.08.4-.15.53-.51.12-.36-.17-.67-.17-.67,0,0,.08.36-.02.6-.1.24-.36.14-.34-.3.01-.44-.49-.4-.49-.4v-.02c-.26.18-.42.38-.42.38-1.4.27-.81,1.35-.18,1.39Z"/>
                <path class="cls-8" d="M11.24,17.37s-.06-.22.1-.41c.16-.19.8-.17.8-.17,0,0,.45-.48.84-.33.32.13.43.75.46.97h.02s.51-1.19-.25-1.51c-.33-.14-.66,0-.91.18-.25.18-.41.38-.41.38-.67.13-.88.44-.86.74.11.08.2.15.2.15Z"/>
                <g>
                  <path class="cls-59" d="M12.71,17.4s-.37.52-1,.48-1.22-1.12.18-1.39c0,0,.67-.84,1.32-.56.76.32.25,1.51.25,1.51"/>
                  <path class="cls-6" d="M12.72,17.4c-.26.54-1.15.85-1.56.29-.2-.24-.25-.62-.05-.86.19-.25.48-.36.76-.44l-.06.03c.33-.45.95-.92,1.53-.58.57.35.4,1.17.1,1.6.06-.44.22-1.11-.24-1.36-.4-.23-.91.12-1.26.47-.26.08-.6.08-.77.33-.19.21-.07.53.12.68.41.4,1,.12,1.42-.15h0Z"/>
                </g>
              </g>
              <g>
                <path class="cls-60" d="M13.44,17.86s-.18.05-.44.03c-.31-.01-.72-.1-1.08-.44l-.6-.4-.07-.04s-.01,0-.04,0c-.13-.03-.55-.1-.79.15-.25.26-.49.97.04,1.61.06.08.14.16.23.23.82.69,2.05.19,2.75-1.14Z"/>
                <path class="cls-29" d="M13.44,17.86s-.86.22-1.52-.41l-.6-.4c-.21.13-.43.35-.33.65.18.53.86.84.55.99-.19.09-.72.1-1.09.08.06.08.14.16.23.23.82.69,2.05.19,2.75-1.14Z"/>
                <ellipse class="cls-8" cx="12.01" cy="18.31" rx=".27" ry=".15" transform="translate(-6.53 6.66) rotate(-24.61)"/>
                <path class="cls-8" d="M13.44,17.86s-.18.05-.44.03c-.51.47-1.35,1.2-1.71,1.01-.53-.29-.77-.96-.56-1.42.11-.25.32-.4.48-.48-.13-.03-.55-.1-.79.15-.25.26-.49.97.04,1.61.06.08.14.16.23.23.82.69,2.05.19,2.75-1.14Z"/>
                <g>
                  <path class="cls-61" d="M11.52,19.44c-.34,0-.66-.12-.92-.34-.45-.38-.57-.8-.59-1.08-.03-.43.15-.79.31-.96.14-.15.35-.23.61-.23.19,0,.35.04.36.05l.71.46c.37.35.79.42,1.08.42.2,0,.33-.03.33-.03.01,0,.02,0,.03,0,.04,0,.08.02.11.05.03.04.04.1.01.15-.5.94-1.28,1.52-2.04,1.52Z"/>
                  <path class="cls-6" d="M10.93,16.97c.18,0,.32.04.32.04l.67.44c.39.37.85.44,1.16.44.22,0,.36-.04.36-.04-.49.93-1.24,1.45-1.92,1.45-.3,0-.59-.1-.83-.31-.82-.69-.54-1.54-.27-1.84.14-.15.34-.19.51-.19M13.44,17.86h0M10.93,16.7h0c-.3,0-.54.09-.71.27-.18.19-.38.59-.35,1.06.02.31.15.76.64,1.17.29.24.64.37,1.01.37.81,0,1.63-.6,2.15-1.57.03-.04.05-.1.05-.15,0-.15-.12-.27-.27-.27h0s-.01,0-.02,0c0,0,0,0,0,0h0s-.03,0-.05,0c-.02,0-.13.03-.3.03-.27,0-.65-.06-.97-.37l-.71-.47s-.05-.03-.07-.03c-.02,0-.18-.05-.39-.05h0Z"/>
                </g>
              </g>
              <g>
                <path class="cls-66" d="M11.86,17.72c-.49,0-.55-.13-.58-.17-.02-.04,0-.17.02-.21.08-.11.22-.17.35-.22.06-.02.15-.06.17-.09-.03-.06,0-.17.07-.27.07-.1.21-.21.35-.21.12,0,.25.08.26.32,0,.39.05.63.05.64,0,.04,0,.07-.02.1-.02.03-.05.05-.09.05,0,0-.31.04-.44.04-.01,0-.03,0-.05,0-.02.01-.05.02-.07.02h0Z"/>
                <path class="cls-6" d="M12.25,16.68c.07,0,.12.05.12.18,0,.4.05.66.05.66,0,0-.3.04-.42.04-.03,0-.05,0-.05,0,0-.03-.06-.34-.08-.34,0,0,0,0,0,0-.02.02.01.36.01.36h0c-.06,0-.57,0-.44-.18.13-.18.59-.2.53-.4-.04-.13.16-.33.3-.33M12.25,16.41c-.19,0-.36.13-.46.26-.07.09-.11.19-.11.28-.02.01-.05.02-.07.03-.14.06-.3.12-.4.27-.08.11-.09.24-.03.35.06.12.19.25.7.25.03,0,.06,0,.09-.01.01,0,.03,0,.04,0,.13,0,.46-.04.46-.04.07,0,.14-.05.18-.11.04-.06.06-.13.05-.21,0,0-.04-.24-.04-.62,0-.31-.2-.45-.39-.45h0Z"/>
              </g>
            </g>
          </g>
        </g>
      </g>
    </g>
  </g>
</svg>