<?xml version="1.0" encoding="UTF-8"?>
<svg xmlns="http://www.w3.org/2000/svg" xmlns:xlink="http://www.w3.org/1999/xlink" viewBox="0 0 80.17 36.45">
  <defs>
    <style>
      .cls-1 {
        fill: #ffd7a3;
      }

      .cls-2 {
        fill: url(#linear-gradient-8);
      }

      .cls-3 {
        fill: url(#linear-gradient-7);
      }

      .cls-4 {
        fill: url(#linear-gradient-5);
      }

      .cls-5 {
        fill: url(#linear-gradient-6);
      }

      .cls-6 {
        fill: url(#linear-gradient-9);
      }

      .cls-7 {
        fill: url(#linear-gradient-4);
      }

      .cls-8 {
        fill: url(#linear-gradient-3);
      }

      .cls-9 {
        opacity: .61;
      }

      .cls-9, .cls-10, .cls-11, .cls-12, .cls-13 {
        mix-blend-mode: overlay;
      }

      .cls-9, .cls-12 {
        fill: #1a0306;
      }

      .cls-14 {
        fill: #630506;
      }

      .cls-15 {
        fill: #183006;
      }

      .cls-16 {
        fill: url(#linear-gradient);
      }

      .cls-17 {
        isolation: isolate;
      }

      .cls-10 {
        fill: url(#linear-gradient-2);
      }

      .cls-18 {
        fill: #fff;
      }

      .cls-19 {
        fill: url(#linear-gradient-10);
      }

      .cls-20 {
        fill: url(#linear-gradient-11);
      }

      .cls-21 {
        fill: url(#linear-gradient-12);
      }

      .cls-22 {
        fill: url(#linear-gradient-13);
      }

      .cls-23 {
        fill: url(#linear-gradient-14);
      }

      .cls-13 {
        opacity: .32;
      }
    </style>
    <linearGradient id="linear-gradient" x1="30.51" y1="42.57" x2="31.5" y2="24.19" gradientUnits="userSpaceOnUse">
      <stop offset=".15" stop-color="#53bf0b"/>
      <stop offset="1" stop-color="#2c730e"/>
    </linearGradient>
    <linearGradient id="linear-gradient-2" x1="28.21" y1="21.47" x2="26.37" y2="10.52" gradientUnits="userSpaceOnUse">
      <stop offset=".04" stop-color="#fff"/>
      <stop offset=".53" stop-color="#bfbfbf" stop-opacity="0"/>
    </linearGradient>
    <linearGradient id="linear-gradient-3" x1="58.19" y1="2.44" x2="63.17" y2="13.89" gradientUnits="userSpaceOnUse">
      <stop offset=".2" stop-color="#ffa478"/>
      <stop offset=".23" stop-color="#feb07b"/>
      <stop offset=".29" stop-color="#fcc781"/>
      <stop offset=".35" stop-color="#fad786"/>
      <stop offset=".42" stop-color="#fae089"/>
      <stop offset=".52" stop-color="#fae48a"/>
      <stop offset=".56" stop-color="#fad886"/>
      <stop offset=".65" stop-color="#fcc180"/>
      <stop offset=".75" stop-color="#fdb07b"/>
      <stop offset=".86" stop-color="#fea778"/>
      <stop offset="1" stop-color="#ffa478"/>
    </linearGradient>
    <linearGradient id="linear-gradient-4" x1="-785.29" y1="188.43" x2="-782.06" y2="195.84" gradientTransform="translate(-570.69 -465.41) rotate(-156.26) scale(1 -1)" xlink:href="#linear-gradient-3"/>
    <linearGradient id="linear-gradient-5" x1="-98.61" y1="-143.98" x2="-93.84" y2="-141.58" gradientTransform="translate(231.95 75.42) rotate(-38.46)" xlink:href="#linear-gradient-3"/>
    <linearGradient id="linear-gradient-6" x1="-97.99" y1="-143.68" x2="-94.51" y2="-141.94" gradientTransform="translate(231.95 75.42) rotate(-38.46)" gradientUnits="userSpaceOnUse">
      <stop offset="0" stop-color="#ff3038"/>
      <stop offset="1" stop-color="#b3171a"/>
    </linearGradient>
    <linearGradient id="linear-gradient-7" x1="-96.45" y1="-143.76" x2="-96.23" y2="-139.01" xlink:href="#linear-gradient-6"/>
    <linearGradient id="linear-gradient-8" x1="71.23" y1="-2.91" x2="76.17" y2="8.46" gradientTransform="matrix(1,0,0,1,0,0)" xlink:href="#linear-gradient-6"/>
    <linearGradient id="linear-gradient-9" x1="66.67" y1="-.86" x2="71.61" y2="10.49" gradientTransform="matrix(1,0,0,1,0,0)" xlink:href="#linear-gradient-6"/>
    <linearGradient id="linear-gradient-10" x1="61.52" y1="1.4" x2="66.47" y2="12.78" gradientTransform="matrix(1,0,0,1,0,0)" xlink:href="#linear-gradient-6"/>
    <linearGradient id="linear-gradient-11" x1="54.87" y1="4.29" x2="59.82" y2="15.67" gradientTransform="matrix(1,0,0,1,0,0)" xlink:href="#linear-gradient-6"/>
    <linearGradient id="linear-gradient-12" x1="49.85" y1="6.45" x2="54.79" y2="17.81" gradientTransform="matrix(1,0,0,1,0,0)" xlink:href="#linear-gradient-6"/>
    <linearGradient id="linear-gradient-13" x1="45.81" y1="8.11" x2="50.76" y2="19.5" gradientTransform="matrix(1,0,0,1,0,0)" xlink:href="#linear-gradient-6"/>
    <linearGradient id="linear-gradient-14" x1="42.8" y1="9.23" x2="47.77" y2="20.67" gradientTransform="matrix(1,0,0,1,0,0)" xlink:href="#linear-gradient-6"/>
  </defs>
  <g class="cls-17">
    <g id="Layer_2" data-name="Layer 2">
      <g id="Layer_1-2" data-name="Layer 1">
        <g>
          <g>
            <path class="cls-16" d="M28.05,36.36s-.03,0-.05-.01c0,0-1.74-1.08-3.09-1.9-1.72-.39-3.41-.92-4.99-1.54-.24,1.1-.33,1.1-.39,1.1-.07-.01-.11-.03-1.69-2-2.04-.93-4.07-2.08-6-3.4-.06.94-.09,1.21-.13,1.27,0,.02-.04.02-.07.02,0,0-.04,0-.04,0-.03,0-.09-.03-.1-.05-.22-.3-.76-1.2-1.28-2.06l-.35-.58c-1.05-.82-1.97-1.59-2.77-2.32C2.64,20.93.13,17.29.11,17.26c-.02-.03-.02-.06,0-.09.02-.03.05-.05.08-.05l4.63-.14c.11.09,3.34,4.95,9.14,9.17l2.1.62s.07.05.07.09-.03.08-.06.09l-.66.21c.84.56,1.77,1.11,2.83,1.68.35-.07.81-.16,1.2-.23.52-.09.8-.14.89-.14.1.01.2.11.85.89.34.41.75.89,1.15,1.33.64.22,1.37.46,2.35.74.19-.13.46-.3.7-.44.38-.24.59-.36.7-.38h0c.21,0,.47.35,1.08,1.43,1.52.25,3.17.41,4.84.44.05-.16.06-.4.08-.63.03-.47.07-.91.35-.91.31,0,1.11.96,1.56,1.53,3.39-.21,6.67-.95,9.67-2.21-.36-.94-.28-1.06-.16-1.11.07-.03.35-.07,1.14-.16.64-.07,1.45-.17,2.13-.28,7.87-4.57,11.24-11.83,11.28-11.9l5.66-2.26s.02,0,.03,0c.02,0,.05,0,.07.03.03.03.03.07.02.1-.02.05-2.23,5.49-7.56,10.77-1.05,1.02-2.03,1.89-3.02,2.66l-.13.23c-1.64,2.73-1.98,3.22-2.14,3.22-.04,0-.12-.07-.14-.1-.13-.22-.25-.99-.3-1.41-1.45.93-3,1.75-4.61,2.45-1,1.91-1.05,1.91-1.12,1.91-.07,0-.12,0-.68-1.18-1.49.54-3.06.98-4.66,1.32-.25.49-.82,1.46-.91,1.6-.02.03-.08.06-.11.06-.23,0-.95-.81-1.36-1.29-.71.15-1.5.24-2.34.3-.78.06-1.57.08-2.35.08-1.52,0-3.08-.11-4.62-.32l.37,1.27s0,.08-.03.1c-.02.01-.04.02-.06.02Z"/>
            <path class="cls-15" d="M63.72,14.65c-.13.32-2.37,5.61-7.53,10.74h-.01c-.9.89-1.9,1.8-3,2.65-.7,1.16-2.04,3.42-2.21,3.42-.01,0-.04-.03-.05-.05-.13-.22-.26-1.05-.31-1.52-1.43.93-3.01,1.78-4.72,2.52-.45.84-1.03,1.9-1.09,1.9s-.4-.71-.63-1.2c-1.49.54-3.06,1-4.73,1.34-.31.53-.88,1.5-.97,1.64,0,0-.02.01-.03.01-.17,0-.87-.76-1.29-1.25-.79.12-1.59.21-2.42.27-.79.06-1.58.09-2.35.09-1.64,0-3.22-.12-4.75-.34l.41,1.41s-1.74-1.09-3.09-1.9c-1.78-.41-3.49-.94-5.1-1.59-.09.43-.27,1.14-.32,1.14-.05-.01-.96-1.14-1.62-1.96-2.25-1.03-4.3-2.24-6.15-3.52-.04.57-.09,1.33-.13,1.4-.01,0-.03-.01-.06-.05v-.03c-.26-.32-1.02-1.62-1.62-2.6-.01-.03-.03-.04-.04-.06-.98-.75-1.91-1.51-2.75-2.27C2.65,20.82.19,17.21.19,17.21l4.63-.14s3.21,4.87,9.09,9.15l1.4.41.74.22-.84.27c.93.63,1.94,1.23,3,1.8.88-.14,1.98-.36,2.13-.36,0,0,0,0,.01,0,.1.01,1.05,1.23,1.93,2.2.78.28,1.58.53,2.39.76.62-.34,1.27-.79,1.43-.81,0,0,0,0,0,0,.19,0,.63.77.97,1.38,1.59.3,3.26.47,4.99.49.17-.43.04-1.54.36-1.54.25,0,1.01.89,1.49,1.5,3.77-.19,7.04-1.02,9.86-2.22-.17-.43-.37-1.02-.25-1.07.14-.06,1.94-.22,3.24-.43,8.03-4.65,11.35-11.95,11.35-11.95l5.61-2.21M63.72,14.46s-.05,0-.07.01l-5.61,2.21s-.08.05-.1.1c-.03.07-3.38,7.29-11.24,11.85-.67.1-1.45.2-2.09.27-.86.1-1.08.13-1.17.17-.22.09-.2.38.08,1.14-2.94,1.23-6.15,1.95-9.54,2.13-1.19-1.49-1.48-1.49-1.57-1.49-.37,0-.4.48-.44,1-.01.19-.03.39-.06.54-1.61-.03-3.21-.19-4.73-.47-.62-1.1-.86-1.4-1.09-1.4-.16.02-.36.14-.77.39-.21.13-.46.28-.7.41-.91-.26-1.62-.49-2.26-.72-.39-.43-.79-.91-1.12-1.3-.7-.84-.77-.91-.89-.92,0,0,0,0,0,0-.13,0-.4.05-.93.15-.37.07-.8.14-1.19.21-.98-.53-1.83-1.03-2.61-1.54l.48-.15c.08-.02.13-.1.13-.18,0-.08-.05-.15-.13-.18l-.74-.22-1.37-.4c-5.77-4.2-8.98-9.03-9.01-9.08-.03-.05-.09-.08-.15-.08,0,0,0,0,0,0l-4.63.14c-.07,0-.13.04-.16.1-.03.06-.03.13.01.19.02.04,2.53,3.68,7.01,7.65.79.72,1.71,1.48,2.73,2.26,0,0,0,0,0,0l.37.61c.5.83,1.02,1.69,1.25,2,0,.03.02.06.04.08.05.05.11.11.2.11.07,0,.13-.03.16-.09.04-.07.06-.19.13-1.15,1.88,1.28,3.85,2.4,5.87,3.33,1.57,1.96,1.61,1.97,1.69,1.99.01,0,.02,0,.03,0,.15,0,.25-.07.47-1.07,1.54.61,3.19,1.11,4.9,1.51,1.34.81,3.06,1.88,3.06,1.88.03.02.06.03.1.03.04,0,.08-.01.11-.04.06-.05.09-.13.07-.2l-.33-1.13c1.5.2,3.01.31,4.49.31.78,0,1.58-.03,2.36-.09.8-.06,1.56-.15,2.33-.26,1.07,1.24,1.29,1.24,1.36,1.24.06,0,.15-.04.18-.09.1-.16.7-1.17.94-1.58,1.56-.33,3.07-.76,4.52-1.28.55,1.16.6,1.16.73,1.16.14,0,.17,0,1.22-1.94,1.55-.67,3.04-1.46,4.44-2.35.05.39.16,1.07.3,1.3,0,.01.08.14.21.14.19,0,.34-.13,2.23-3.28l.12-.21c.97-.76,1.94-1.61,2.96-2.61.02,0,.03-.02.04-.03,5.34-5.3,7.55-10.75,7.58-10.8.03-.07.01-.15-.04-.2-.04-.04-.08-.05-.13-.05h0ZM63.72,14.83h0,0Z"/>
          </g>
          <path class="cls-13" d="M63.73,14.63s-3.02,7.47-10.56,13.4c-.7,1.16-2.04,3.42-2.21,3.42-.01,0-.04-.03-.05-.05.98-1.2,1.18-3.63.17-3.63-1.12,0-6.69,3.64-9.69,4.65-3,1.02-12.68,1.87-19.41-.76-6.75-2.65-10.25-5.1-10.62-4.64-.31.39.09,2.18.22,2.73-.26-.34-1.06-1.67-1.65-2.66C3.66,22.31.19,17.21.19,17.21l4.63-.14s3.21,4.87,9.09,9.15l2.13.63-.84.27c.93.63,1.94,1.23,3,1.8.9-.14,2.04-.37,2.15-.36.1.01,1.05,1.23,1.93,2.2.78.28,1.58.53,2.39.76.62-.34,1.27-.79,1.43-.81.18-.03.63.76.98,1.38,1.59.3,3.26.47,4.99.49.17-.43.04-1.54.36-1.54.25,0,1.01.89,1.49,1.5,3.77-.19,7.04-1.02,9.86-2.22-.17-.43-.37-1.02-.25-1.07.14-.06,1.94-.22,3.24-.43,8.03-4.65,11.35-11.95,11.35-11.95l5.62-2.22Z"/>
          <path class="cls-10" d="M55.9,25.42c-1.24.94-2.96,2.35-2.96,2.35,0,0-1.72,2.89-1.82,2.96-.1.08-.23-1.46-.23-1.46,0,0-.31.18-1.47.92-1.15.74-3.75,1.91-3.75,1.91,0,0-.87,1.33-.89,1.33,0-.03-.28-.87-.32-.88-.08,0-.81.36-2.35.79-1.58.45-2.82.76-2.82.76,0,0-.9,1.33-1.01,1.36-.13,0-.76-.97-.87-1.01-.12-.05-1.41.32-4.32.4-2.91.06-5.82-.4-5.82-.4,0,0-.01.78-.04.8-.06,0-1.96-1.12-2.02-1.15-.05-.04-1.25-.27-3.02-.81-1.77-.56-2.39-1.1-2.39-1.1,0,0-.44,1-.5,1-.09,0-1.16-1.55-1.25-1.62s-1.16-.45-3.02-1.43c-1.85-.98-3.37-2.16-3.37-2.16,0,0-.17.94-.21,1.02-.05,0-.42-.92-1.36-2.08-.57-.69-1.89-1.81-1.96-1.93.49-.26,3.02.21,3.21.21.28,0,2.41,1.4,2.63,1.42.12.01.75,0,1.33-.01l-1.4-.41c-5.88-4.28-9.09-9.15-9.09-9.15l-4.63.14s2.47,3.62,6.98,7.61c.84.76,1.77,1.53,2.75,2.27.59,1,1.4,2.33,1.65,2.66v.03s.05.05.06.05c.04-.06.09-.83.13-1.4,1.85,1.28,3.9,2.48,6.15,3.52.66.83,1.56,1.95,1.62,1.96.05,0,.23-.71.32-1.14,1.62.65,3.32,1.18,5.1,1.59,1.34.81,3.09,1.9,3.09,1.9l-.41-1.41c2.25.32,4.61.44,7.1.26.83-.06,1.63-.16,2.42-.27.45.53,1.23,1.37,1.32,1.24.09-.14.66-1.11.97-1.64,1.67-.35,3.24-.8,4.73-1.34.23.49.58,1.2.63,1.2s.63-1.06,1.09-1.9c1.71-.74,3.28-1.59,4.72-2.52.05.48.18,1.31.31,1.53.01.03.04.05.05.05.17,0,1.51-2.26,2.21-3.42,1.1-.85,2.09-1.76,3-2.65-.08-.05-.17-.04-.27.04Z"/>
        </g>
        <g>
          <g>
            <g>
              <path class="cls-8" d="M57.91,25.24s-.06-.01-.09-.04c-.03-.03-.04-.06-.04-.1.02-.88.12-1.75.29-2.6.01-.06.07-.11.13-.11,0,0,7.01,1.15,7.01,1.15l-6.91-1.52s-.06-.03-.08-.06c-.02-.03-.02-.07-.02-.1.21-.85.5-1.67.87-2.44.02-.03.04-.06.08-.07.01,0,.03,0,.04,0,.02,0,.04,0,.06.01l5.9,3.03-5.72-3.38c-.06-.04-.08-.12-.05-.18.44-.76.98-1.46,1.61-2.07.03-.02.06-.04.09-.04s.07.01.09.04l4,4.08c-.11-.21-.24-.39-.39-.55-.49-.54-.98-1.08-1.47-1.62-.65-.7-1.29-1.4-1.92-2.12-.02-.03-.03-.06-.03-.1,0-.04.02-.07.05-.09.32-.27.63-.5.94-.7.39-.25.78-.47,1.17-.67.02,0,.04-.01.06-.01.05,0,.09.02.11.07.61,1.15,1.5,2.82,1.66,3.1.4.69.75,1.42,1.08,2.12.11.24.23.48.35.73l.03-.02c-.11-.23-.23-.46-.34-.7-.31-.63-.64-1.28-.87-1.96-.11-.32-.84-2.2-1.43-3.49-.01-.03-.02-.07,0-.1.01-.03.04-.06.07-.07.8-.35,1.61-.63,2.42-.82,0,0,.02,0,.03,0,.03,0,.05,0,.07.02.03.02.05.05.06.09l.72,4.71c-.06-1-.15-1.99-.25-2.96l-.11-1.17c-.02-.25-.04-.47-.04-.67,0-.06.04-.12.11-.13.88-.17,1.77-.26,2.66-.26h0s.07.02.1.04c.02.03.04.06.03.1-.07.7-.19,1.4-.31,2.07l-.13.74-.78,4.7,1.64-7.55c.01-.06.07-.1.13-.1h0c1.33.05,2.34.26,2.83.38.04,0,.07.04.09.07.02.04.02.08,0,.11-.4.79-.8,1.58-1.19,2.35-1.11,2.21-2.15,4.29-3.31,6.34-.43.77-1.42,1.48-2.19,1.59-2.37.33-4.72.53-7.21.74,0,0-1.68.15-1.69.15Z"/>
              <path class="cls-14" d="M69.89,13.62c-.09.94-.28,1.87-.44,2.81-.27,1.64-.55,3.28-.82,4.92.08.01.16.03.24.04.55-2.55,1.11-5.11,1.69-7.76,1.27.05,2.26.25,2.8.38-1.54,3.02-2.93,5.91-4.49,8.69-.39.7-1.33,1.41-2.1,1.52-2.91.4-5.85.62-8.88.89.02-.76.1-1.64.28-2.58,2.65.44,5.22.86,7.77,1.28.01-.07.02-.14.04-.22-2.53-.56-5.07-1.11-7.68-1.69.19-.8.48-1.62.86-2.41,2.19,1.13,4.31,2.22,6.42,3.3.04-.07.07-.13.11-.2-2.06-1.22-4.13-2.45-6.23-3.68.42-.73.94-1.42,1.59-2.04,1.53,1.57,3.02,3.08,4.49,4.59-.16-.47-.38-.89-.69-1.23-1.12-1.25-2.28-2.47-3.39-3.74.29-.24.6-.48.93-.69.39-.25.77-.46,1.16-.66.61,1.15,1.51,2.82,1.67,3.1.56.96,1,1.98,1.49,2.98.08-.06.16-.12.24-.18-.43-.91-.92-1.8-1.25-2.74-.12-.35-.85-2.22-1.43-3.5.82-.36,1.62-.63,2.4-.81.34,2.24.68,4.48,1.03,6.72.03-2.08-.22-4.13-.41-6.18-.02-.25-.04-.47-.04-.67.94-.18,1.83-.25,2.64-.26M69.89,13.36h0c-.9,0-1.8.09-2.69.26-.13.02-.21.14-.21.26,0,.2.02.43.04.68,0,.06.01.12.02.18l-.12-.79c-.01-.07-.05-.14-.11-.18-.04-.03-.09-.04-.15-.04-.02,0-.04,0-.06,0-.82.19-1.64.47-2.44.83-.06.03-.11.08-.14.15-.02.07-.02.14,0,.2.37.8.79,1.83,1.08,2.58-.28-.52-.72-1.35-1.32-2.47-.05-.09-.14-.14-.23-.14-.04,0-.08,0-.12.03-.43.22-.82.44-1.18.67-.32.21-.64.44-.96.71-.05.05-.09.11-.09.18s.02.14.06.19c.18.2.35.4.53.6l-.56-.57c-.05-.05-.12-.08-.19-.08s-.13.02-.18.07c-.64.62-1.2,1.33-1.64,2.1-.07.12-.03.28.09.35l1.92,1.14-1.97-1.01s-.08-.03-.12-.03c-.03,0-.06,0-.08.01-.07.02-.12.07-.15.13-.38.77-.67,1.6-.88,2.46-.02.07,0,.14.03.2s.1.1.16.12l2.14.47-2.18-.36s-.03,0-.04,0c-.12,0-.23.09-.26.21-.17.86-.26,1.74-.29,2.63,0,.07.03.15.08.2.05.05.11.07.18.07,0,0,.02,0,.02,0l1.66-.14c2.49-.21,4.85-.42,7.23-.75.81-.11,1.84-.85,2.29-1.65,1.16-2.06,2.2-4.14,3.31-6.34.39-.78.78-1.56,1.19-2.36.04-.07.04-.15,0-.23-.03-.07-.1-.13-.17-.14-.49-.12-1.51-.34-2.86-.39,0,0,0,0-.01,0-.12,0-.23.08-.25.2l-.51,2.36c.01-.07.02-.14.04-.21.12-.68.24-1.38.31-2.08,0-.07-.02-.15-.07-.2-.05-.05-.12-.08-.19-.08h0ZM69.89,13.88h0,0Z"/>
            </g>
            <g>
              <path class="cls-7" d="M68,28.88c-.66,0-1.29-.14-1.88-.42-.06-.03-.09-.1-.06-.16l.34-.88c.43-1.1.85-2.21,1.3-3.31.07-.17.31-.39.5-.39,1.19.01,2.38.04,3.56.07l1.01.03c.07,0,.12.06.13.12.05,1.24-.42,2.44-1.33,3.38-.96.99-2.26,1.56-3.57,1.56h0Z"/>
              <path class="cls-14" d="M68.19,23.85h0c1.53.02,3.05.06,4.57.1.1,2.67-2.28,4.8-4.77,4.8-.61,0-1.23-.13-1.82-.41.54-1.39,1.07-2.79,1.63-4.19.05-.14.25-.3.38-.3M68.19,23.59c-.25,0-.54.25-.62.47-.44,1.09-.86,2.19-1.28,3.28l-.35.91c-.05.13,0,.27.13.33.61.29,1.26.44,1.93.44,1.35,0,2.68-.58,3.66-1.6.93-.96,1.41-2.2,1.36-3.47,0-.14-.12-.25-.25-.25l-.94-.02c-1.2-.03-2.42-.06-3.63-.08h0Z"/>
            </g>
          </g>
          <g class="cls-11">
            <path class="cls-1" d="M69.73,13.77c-.07.63-.18,1.27-.29,1.88-.04.25-.09.5-.13.75l-.54,3.22-.28,1.7c-.01.08.04.16.12.17l.16.03h.08s.02.02.03.02c.07,0,.13-.05.15-.12l.43-1.98,1.23-5.66c1.1.05,1.96.21,2.46.33-.38.74-.74,1.47-1.1,2.19-1.1,2.2-2.15,4.28-3.3,6.32-.39.69-1.3,1.35-1.99,1.45-2.37.33-4.72.53-7.21.74-.49.04-.99.09-1.49.13.03-.76.11-1.51.25-2.25l3.5.58,4.13.68s.02,0,.02,0c.07,0,.14-.05.15-.12l.04-.22c.01-.08-.04-.15-.12-.17l-7.53-1.65c.19-.73.44-1.43.75-2.09l3.33,1.71,2.96,1.52s.05.02.07.02c.05,0,.1-.03.13-.08l.05-.09.06-.11c.04-.07.02-.16-.05-.2l-6.1-3.61c.38-.65.85-1.25,1.39-1.78l1,1.02,3.38,3.46s.07.05.11.05c.03,0,.05,0,.08-.02.06-.04.09-.11.06-.18-.18-.53-.42-.95-.72-1.29-.49-.54-.98-1.08-1.48-1.62-.6-.65-1.22-1.33-1.82-2,.27-.22.53-.41.8-.58.31-.2.65-.39,1.01-.58.96,1.79,1.48,2.77,1.6,2.97.39.68.74,1.4,1.07,2.11.14.29.27.58.41.86.02.04.06.07.1.08.01,0,.02,0,.04,0,.03,0,.06,0,.09-.03l.24-.18c.06-.04.08-.12.05-.18-.13-.27-.26-.53-.39-.8-.31-.62-.63-1.27-.86-1.93-.11-.31-.8-2.09-1.38-3.37.68-.29,1.38-.53,2.08-.7l.49,3.18.52,3.38c.01.07.07.13.15.13,0,0,0,0,.01,0,.08,0,.14-.07.14-.15.02-1.7-.14-3.39-.3-5.03-.04-.39-.07-.77-.11-1.16-.02-.19-.03-.37-.04-.53.77-.14,1.54-.22,2.32-.23M69.89,13.62c-.8,0-1.69.08-2.64.26,0,.2.02.42.04.67.19,2.05.44,4.09.41,6.18-.34-2.24-.68-4.48-1.03-6.72-.78.18-1.58.45-2.4.81.58,1.27,1.31,3.15,1.43,3.5.33.94.83,1.83,1.25,2.74-.08.06-.16.12-.24.18-.49-1-.93-2.02-1.49-2.98-.16-.28-1.05-1.95-1.67-3.1-.38.2-.77.41-1.16.66-.34.21-.64.45-.93.69,1.11,1.26,2.27,2.48,3.39,3.74.31.34.53.76.69,1.23-1.47-1.5-2.95-3.02-4.49-4.59-.65.63-1.18,1.32-1.59,2.04,2.1,1.24,4.16,2.46,6.23,3.68-.04.07-.07.13-.11.2-2.11-1.08-4.23-2.18-6.42-3.3-.39.79-.67,1.61-.86,2.41,2.61.57,5.15,1.13,7.68,1.69-.01.07-.02.14-.04.22-2.55-.42-5.12-.84-7.77-1.28-.18.94-.26,1.82-.28,2.58,3.03-.27,5.97-.49,8.88-.89.77-.11,1.71-.82,2.1-1.52,1.57-2.78,2.95-5.67,4.49-8.69-.54-.14-1.53-.33-2.8-.38-.58,2.65-1.14,5.21-1.69,7.76-.08-.01-.16-.03-.24-.04.27-1.64.55-3.28.82-4.92.16-.93.35-1.87.44-2.81h0Z"/>
            <path class="cls-1" d="M68.19,24c1.21.01,2.44.04,3.62.08l.8.02c0,1.11-.44,2.18-1.25,3.03-.9.94-2.13,1.48-3.37,1.48-.57,0-1.12-.11-1.63-.34l.3-.78c.42-1.09.84-2.19,1.28-3.28.04-.09.19-.21.24-.21M68.19,23.85c-.13,0-.33.17-.38.3-.56,1.39-1.1,2.8-1.63,4.19.59.28,1.21.41,1.82.41,2.49,0,4.87-2.13,4.77-4.8-1.51-.04-3.04-.08-4.57-.1h0Z"/>
          </g>
          <g>
            <g>
              <path class="cls-4" d="M67.91,26.41c-.82,0-1.47-.23-1.91-.69-.17-.17-.31-.37-.43-.59-.96-1.72-.07-4.23-.06-4.25.01-.01.04-.03.06-.03h0s.04,0,.05,0c-.01-.03.25-.06.63-.06.63,0,1.57.07,2.42.42.66.27,1.17.67,1.5,1.18.5.77.35,1.72.14,2.38-.22.69-.56,1.23-.6,1.29-.25.1-.99.33-1.8.33Z"/>
              <path class="cls-14" d="M66.25,20.86c.61,0,1.55.07,2.39.42.58.23,1.11.6,1.47,1.16.47.72.36,1.61.13,2.32-.23.71-.57,1.25-.59,1.27h0s-.84.3-1.74.3c-.65,0-1.36-.15-1.87-.67-.17-.18-.31-.37-.42-.57-.93-1.67-.09-4.1-.06-4.2h0s0,0,0,0h0s.29-.03.68-.03M66.25,20.73c-.36,0-.6.02-.67.03,0,0,0,0-.01,0-.03,0-.06,0-.08.03-.02.02-.04.05-.05.08-.07.19-.87,2.61.07,4.29.12.23.27.42.44.6.46.47,1.12.71,1.96.71s1.56-.23,1.77-.3c.01,0,.04-.02.05-.02,0,0,.02-.02.03-.03,0,0,.37-.56.61-1.31.31-.97.26-1.81-.15-2.43-.34-.53-.85-.93-1.53-1.21-.86-.35-1.8-.43-2.44-.43h0Z"/>
            </g>
            <path class="cls-9" d="M70.11,22.44c.47.72.36,1.61.13,2.32-.23.71-.57,1.25-.59,1.27h0c-.05.02-2.41.87-3.61-.37-.17-.18-.31-.37-.42-.57.78-.07,1.6-.35,2.25-1.05.77-.82.89-1.85.77-2.77.58.23,1.11.6,1.47,1.16Z"/>
            <g>
              <g>
                <g>
                  <path class="cls-5" d="M67.92,25.64c-.3,0-.57-.04-.8-.13-.26-.08-.48-.22-.66-.41-.13-.13-.23-.27-.31-.42-.19-.33-.3-.71-.35-1.18-.08-.94.18-1.83.24-2,.06-.04.21-.05.43-.05.17,0,.39,0,.63.04.38.04.76.12,1.09.23.59.21,1.03.54,1.31.97.24.42.31.84.23,1.33-.09.59-.36,1.11-.51,1.37-.17.08-.5.18-.9.22-.12.01-.25.02-.38.02Z"/>
                  <path class="cls-14" d="M66.47,21.51c.17,0,.38,0,.62.03.33.03.71.1,1.08.23.5.18.97.47,1.28.95l.04.07c.23.39.25.83.19,1.23-.11.73-.51,1.35-.52,1.37h0s0,0,0,0h0s0,0,0,0c-.02,0-.38.13-.85.18-.12.01-.25.02-.38.02-.26,0-.53-.03-.79-.12-.23-.08-.46-.21-.64-.4-.12-.13-.22-.26-.3-.41-.21-.36-.31-.76-.34-1.16-.09-.99.22-1.93.24-1.98h0s0,0,0,0h0s0,0,0,0c.02,0,.16-.02.38-.02M66.47,21.42c-.18,0-.32,0-.37.01,0,0,0,0-.01,0,0,0-.01,0-.02,0,0,0-.02,0-.03.01-.01,0-.02.02-.03.03,0,.01-.01.03-.01.04-.07.22-.31,1.08-.23,1.99.04.47.16.86.35,1.2.08.14.19.29.32.42.19.19.42.34.68.42.24.09.51.13.81.13.13,0,.26,0,.39-.02.4-.04.72-.13.85-.18,0,0,0,0,.01,0,.02,0,.03-.02.05-.03,0,0,0,0,.01-.01,0,0,0,0,0-.01.16-.27.43-.8.52-1.39.07-.5,0-.93-.2-1.28l-.04-.07c-.29-.44-.73-.78-1.33-.99-.34-.12-.7-.2-1.1-.24-.21-.02-.42-.03-.63-.03h0Z"/>
                </g>
                <path class="cls-12" d="M67.87,23.86l-.74,1.61c-.23-.08-.46-.21-.64-.4-.12-.13-.22-.26-.3-.41l1.43-1.07.25.26Z"/>
                <path class="cls-12" d="M68.12,24.1l1.04,1.3s-.38.13-.85.18l-.19-1.48Z"/>
                <path class="cls-12" d="M66.07,21.52h0c.22.29,1.28,1.74,1.28,1.74l-1.51.25c-.09-.99.22-1.93.24-1.98h0Z"/>
                <path class="cls-12" d="M68.17,21.77l-.43,1.23-.65-1.46c.33.03.71.1,1.08.23Z"/>
                <path class="cls-12" d="M69.49,22.79c.23.39.25.83.19,1.23l-1.45-.62-.09-.16,1.36-.45Z"/>
                <path class="cls-3" d="M66.94,22.72s0,1.31.34,1.54.84.38,1.07.2.32-.91.02-1.19-1.43-.55-1.43-.55Z"/>
              </g>
              <g class="cls-11">
                <path class="cls-18" d="M66.47,21.6c.2,0,.41.01.61.03.38.04.73.11,1.05.23.56.2.97.51,1.23.91l.04.07c.18.32.24.71.18,1.17-.08.56-.34,1.06-.49,1.31-.13.04-.43.13-.8.16-.13.01-.25.02-.37.02-.28,0-.53-.04-.76-.12-.24-.08-.44-.2-.61-.38-.12-.13-.22-.26-.29-.39-.18-.31-.29-.68-.33-1.12-.08-.84.14-1.63.21-1.89.06,0,.17,0,.31,0M66.47,21.51c-.22,0-.36.01-.38.02h0s0,0,0,0h0s0,0,0,0c-.02.05-.32.99-.24,1.98.04.4.13.8.34,1.16.08.14.18.28.3.41.19.19.41.32.64.4.26.09.53.12.79.12.13,0,.26,0,.38-.02.48-.05.83-.17.85-.18h0s0,0,0,0h0s0,0,0,0c.01-.02.41-.64.52-1.37.06-.4.04-.84-.19-1.23l-.04-.07c-.31-.48-.79-.77-1.28-.95-.37-.13-.74-.2-1.08-.23-.24-.03-.45-.03-.62-.03h0Z"/>
              </g>
            </g>
            <g class="cls-11">
              <path class="cls-18" d="M66.25,20.86v.1c.62,0,1.53.07,2.35.41.63.26,1.11.63,1.42,1.12.46.72.32,1.61.12,2.24-.2.63-.5,1.12-.56,1.22-.22.07-.92.28-1.68.28s-1.38-.22-1.79-.64c-.16-.16-.29-.34-.4-.55-.85-1.52-.19-3.69-.07-4.06.1,0,.31-.03.61-.03v-.1M66.25,20.86c-.39,0-.65.03-.68.03h0s0,0,0,0h0c-.04.1-.88,2.53.06,4.2.11.21.25.4.42.57.5.52,1.21.67,1.87.67.91,0,1.71-.29,1.74-.3h0s.36-.57.59-1.28c.23-.71.33-1.6-.13-2.32-.36-.56-.89-.92-1.47-1.16-.84-.35-1.78-.42-2.39-.42h0Z"/>
            </g>
          </g>
          <g>
            <g>
              <path class="cls-2" d="M74.35,12.94c-1.09-.4-2.17-.71-3.22-.92-.03,0-.06-.02-.08-.05s-.02-.06-.02-.09c.94-4.4,1.71-7.85,2.47-11.21l.03-.12c.01-.06.08-.14.13-.14,0,0,0,0,0,0,1.57.22,3.12.56,4.62,1l1.66.6s.06.04.07.07c.01.03.01.07,0,.1l-1.69,3.27c-1.3,2.52-2.57,4.98-3.85,7.44-.02.04-.06.06-.11.06-.01,0-.03,0-.04,0Z"/>
              <path class="cls-14" d="M73.67.53c1.73.24,3.28.61,4.6,1,.55.2,1.1.39,1.66.59-1.91,3.69-3.71,7.2-5.53,10.71-1.02-.37-2.1-.7-3.23-.92.8-3.71,1.6-7.38,2.47-11.21.01-.06.02-.11.04-.17M73.67.29c-.11,0-.21.08-.23.19v.06s-.04.11-.04.11c-.76,3.35-1.52,6.81-2.47,11.21-.01.06,0,.13.03.18s.09.09.15.1c1.04.2,2.11.51,3.2.91.03,0,.05.01.08.01.09,0,.17-.05.21-.13,1.28-2.47,2.55-4.93,3.86-7.46l1.68-3.25c.03-.06.04-.13,0-.2s-.08-.11-.14-.14l-1.66-.59c-1.52-.45-3.08-.79-4.65-1.01-.01,0-.02,0-.03,0h0Z"/>
            </g>
            <g>
              <path class="cls-6" d="M70.34,11.89c-.78-.12-1.56-.18-2.3-.18-.33,0-.66.01-.99.04h0c-.06,0-.11-.05-.12-.11-.37-3.73-.75-7.45-1.12-11.16,0-.06.04-.12.1-.13,1.2-.16,2.42-.24,3.64-.24.9,0,1.81.04,2.71.13.03,0,.06.02.08.04.02.02.03.05.03.09,0,.07,0,.1,0,.14-.45,2.61-.88,5.24-1.31,7.87l-.55,3.34c-.02.05-.1.17-.16.17,0,0,0,0,0,0Z"/>
              <path class="cls-14" d="M69.56.24c.93,0,1.83.05,2.7.13,0,.05,0,.08,0,.13-.64,3.72-1.24,7.48-1.85,11.21,0,.02-.02.05-.03.07-.76-.11-1.53-.18-2.31-.18-.33,0-.66.01-1,.04-.37-3.73-.75-7.45-1.12-11.16,1.25-.16,2.46-.23,3.63-.23M69.56,0c-1.23,0-2.46.08-3.66.24-.13.02-.22.13-.21.26.38,3.71.75,7.43,1.12,11.16.01.12.11.21.24.21,0,0,.01,0,.02,0,.32-.02.65-.04.98-.04.74,0,1.5.06,2.28.18.01,0,.02,0,.04,0,.1,0,.19-.06.22-.15.01-.03.03-.06.04-.1l.55-3.35c.43-2.63.86-5.26,1.31-7.87,0-.04,0-.08,0-.12,0-.06-.01-.14-.05-.19-.04-.05-.1-.09-.16-.1-.9-.08-1.82-.13-2.72-.13h0Z"/>
            </g>
            <g>
              <path class="cls-19" d="M63.02,12.75s-.03,0-.04,0c-.03-.01-.05-.03-.07-.06-1.44-3.35-2.88-6.66-4.39-10.13-.03-.06,0-.13.06-.16,1.93-.84,3.94-1.46,5.99-1.83,0,0,.01,0,.02,0,.02,0,.05,0,.07.02.03.02.04.05.05.08,0,0,1.28,8.43,1.68,11.04,0,.03,0,.06-.02.09-.02.03-.05.04-.08.05-1.12.15-2.21.46-3.22.91-.02,0-.03,0-.05,0Z"/>
              <path class="cls-14" d="M64.59.68c.58,3.8,1.13,7.43,1.68,11.04-1.09.15-2.18.44-3.25.92-1.44-3.35-2.88-6.66-4.39-10.13,2.03-.89,4.03-1.47,5.97-1.82M64.59.44s-.03,0-.04,0c-2.06.37-4.08.99-6.02,1.84-.12.05-.17.19-.12.31,1.51,3.47,2.95,6.78,4.39,10.13.03.06.07.1.13.13.03.01.06.02.09.02.03,0,.07,0,.1-.02,1-.45,2.07-.75,3.18-.9.06,0,.12-.04.16-.09.04-.05.05-.12.04-.18-.41-2.68-.82-5.37-1.24-8.14l-.44-2.89c0-.06-.04-.12-.1-.16-.04-.03-.09-.04-.14-.04h0Z"/>
            </g>
            <g>
              <path class="cls-20" d="M59.56,15.04s-.06,0-.08-.03c-.1-.08-.19-.18-.3-.3-.96-1.15-1.98-2.28-2.97-3.38-.42-.46-.84-.93-1.25-1.4l-2.89-3.34s-.03-.05-.03-.09.02-.06.04-.08c1.48-1.27,3.14-2.38,4.94-3.3l.28-.14s.04-.01.05-.01c.04,0,.08.02.11.06,1.65,3.25,3.3,6.53,4.97,9.88.03.06,0,.13-.05.16l-.14.07c-.08.04-.16.08-.24.13-.85.49-1.65,1.08-2.37,1.73-.02.02-.05.03-.08.03Z"/>
              <path class="cls-14" d="M57.36,3.1c1.65,3.25,3.3,6.53,4.97,9.88-.13.07-.26.13-.38.2-.91.53-1.69,1.12-2.39,1.75-.09-.08-.19-.17-.29-.29-1.36-1.62-2.8-3.18-4.22-4.78-.93-1.08-1.89-2.18-2.89-3.34,1.4-1.2,3.02-2.31,4.91-3.29.09-.05.19-.09.28-.14M57.36,2.86s-.07,0-.11.03l-.12.06c-.05.03-.11.05-.16.08-1.8.93-3.47,2.04-4.96,3.32-.05.04-.08.1-.08.16,0,.06.02.12.06.17l1.48,1.72,1.4,1.62c.42.47.83.93,1.24,1.39.99,1.1,2.01,2.24,2.98,3.39.11.13.21.23.31.31.04.04.1.06.16.06s.11-.02.16-.06c.71-.65,1.5-1.23,2.35-1.72.08-.05.16-.09.24-.13l.14-.07c.11-.06.16-.2.1-.32-1.88-3.77-3.46-6.91-4.97-9.88-.04-.08-.13-.13-.21-.13h0Z"/>
            </g>
            <g>
              <path class="cls-21" d="M56.96,18.22c-.1-.04-.21-.1-.33-.17-1.95-1.19-3.91-2.33-5.82-3.43-.51-.31-1.02-.61-1.54-.92-.67-.4-1.35-.8-2.05-1.23-.05-.03-.07-.11-.04-.16,1.04-1.81,2.34-3.46,3.85-4.93.02-.02.05-.03.08-.03s.06.01.08.03l.38.38c2.16,2.16,4.18,4.19,6.22,6.21.67.67,1.09,1.11,1.23,1.53.01.04,0,.09-.03.12-.74.77-1.38,1.63-1.9,2.55-.02.04-.06.06-.1.06-.02,0-.03,0-.05,0Z"/>
              <path class="cls-14" d="M51.13,7.46c2.3,2.3,4.45,4.45,6.6,6.6.69.69,1.08,1.1,1.2,1.48-.78.82-1.41,1.68-1.92,2.57-.1-.04-.2-.1-.32-.16-1.91-1.17-3.86-2.3-5.82-3.43-1.16-.7-2.33-1.39-3.58-2.15.98-1.7,2.24-3.36,3.83-4.9M51.13,7.23c-.06,0-.12.02-.16.07-1.52,1.47-2.82,3.14-3.87,4.96-.06.11-.03.25.08.32.71.43,1.4.84,2.07,1.25.51.3,1.01.6,1.51.91,1.93,1.12,3.91,2.27,5.81,3.43.13.07.24.13.35.18.03.01.06.02.09.02.08,0,.16-.04.21-.12.52-.91,1.16-1.76,1.89-2.53.06-.06.08-.15.05-.24-.14-.45-.57-.89-1.26-1.58-2.05-2.04-4.09-4.08-6.27-6.26l-.34-.34s-.11-.07-.17-.07h0Z"/>
            </g>
            <g>
              <path class="cls-22" d="M55.44,22c-3.29-.69-6.75-1.46-10.89-2.41-.06-.01-.1-.08-.09-.14.46-2.08,1.15-4.07,2.06-5.89.01-.03.04-.05.07-.06.01,0,.02,0,.04,0,.02,0,.04,0,.05.01l2.18,1.13c2.66,1.37,5.25,2.71,7.84,4.05.06.03.08.1.05.16-.47.95-.85,1.98-1.12,3.06-.01.05-.06.09-.12.09,0,0-.04,0-.04,0,0,0-.03,0-.03,0Z"/>
              <path class="cls-14" d="M46.62,13.62c3.44,1.78,6.73,3.47,10.02,5.18-.52,1.04-.88,2.08-1.13,3.09,0,0,0,0,0,0-.01,0-.03,0-.04,0,0,0,0,0-.01,0-3.65-.77-7.27-1.58-10.89-2.4.42-1.89,1.07-3.89,2.05-5.86M46.62,13.38s-.05,0-.07.01c-.06.02-.11.06-.14.12-.91,1.83-1.61,3.82-2.07,5.92-.03.13.05.25.18.28,4.14.95,7.6,1.71,10.9,2.41.02,0,.04,0,.06,0,.11,0,.25-.08.27-.18.27-1.08.64-2.1,1.11-3.04.06-.12.01-.26-.1-.32-2.69-1.4-5.39-2.79-8.17-4.22l-1.85-.95s-.07-.03-.11-.03h0Z"/>
            </g>
            <g>
              <path class="cls-23" d="M43.92,27.24s-.07-.01-.09-.03c-.02-.02-.05-.05-.05-.08-.08-2.11.05-4.22.4-6.27,0-.06.06-.1.12-.1,0,0,11.05,1.84,11.05,1.84.03,0,.06.02.08.05.02.03.02.06.02.09-.21,1.09-.33,2.22-.34,3.35,0,.06-.05.11-.11.12-3.58.32-7.28.65-10.92,1.02l-.12.02h-.04Z"/>
              <path class="cls-14" d="M44.3,20.87c3.8.63,7.42,1.24,11.03,1.84-.25,1.27-.33,2.43-.34,3.37-3.64.32-7.28.65-10.92,1.02-.03.01-.05,0-.08.01-.01,0-.02,0-.03,0-.01,0-.03,0-.04,0,0,0-.01,0-.02,0-.06-1.64-.01-3.82.4-6.25M44.3,20.63c-.11,0-.21.08-.23.2-.35,2.06-.48,4.18-.4,6.3,0,.06.03.12.08.17.04.04.1.06.16.06,0,0,.01,0,.02,0,0,0,.09,0,.1,0,.02,0,.04,0,.06-.01,0,0,.01,0,.02,0h0c3.63-.37,7.31-.7,10.88-1.01.12-.01.25-.12.25-.24,0-1.13.12-2.25.33-3.33.01-.06,0-.13-.04-.18-.04-.05-.09-.09-.16-.1-3.61-.6-7.23-1.21-11.03-1.84-.01,0-.03,0-.04,0h0Z"/>
            </g>
          </g>
          <g class="cls-11">
            <path class="cls-18" d="M73.86.81c1.47.22,2.93.54,4.33.95l1.39.5-1.55,3c-1.27,2.46-2.51,4.86-3.76,7.26-.95-.34-1.9-.61-2.82-.81.92-4.26,1.66-7.64,2.4-10.91M73.67.53c-.01.06-.02.12-.04.17-.87,3.83-1.67,7.5-2.47,11.21,1.13.22,2.22.55,3.23.92,1.82-3.51,3.63-7.02,5.53-10.71-.56-.2-1.11-.4-1.66-.59-1.32-.39-2.88-.76-4.6-1h0Z"/>
            <path class="cls-18" d="M69.56.49c.8,0,1.61.03,2.42.1-.44,2.57-.86,5.15-1.28,7.73l-.52,3.17c-.72-.1-1.44-.15-2.12-.15-.26,0-.52,0-.77.02-.35-3.57-.71-7.12-1.07-10.68,1.1-.13,2.23-.2,3.35-.2M69.56.24c-1.17,0-2.38.07-3.63.23.38,3.71.75,7.43,1.12,11.16.33-.02.67-.04,1-.04.78,0,1.55.06,2.31.18,0-.02.03-.05.03-.07.62-3.73,1.22-7.49,1.85-11.21.01-.05,0-.09,0-.13-.87-.08-1.77-.13-2.7-.13h0Z"/>
            <path class="cls-18" d="M64.38.97l.4,2.64c.41,2.68.8,5.3,1.2,7.89-.98.15-1.93.42-2.83.8-1.38-3.2-2.75-6.37-4.2-9.67,1.75-.75,3.58-1.31,5.43-1.66M64.59.68c-1.93.35-3.94.94-5.97,1.82,1.51,3.47,2.95,6.78,4.39,10.13,1.07-.48,2.16-.77,3.25-.92-.55-3.6-1.1-7.24-1.68-11.04h0Z"/>
            <path class="cls-18" d="M57.25,3.43c1.45,2.85,2.96,5.86,4.75,9.44-.06.03-.12.06-.17.09-.8.47-1.56,1.01-2.26,1.63-.03-.03-.07-.07-.1-.11-.97-1.16-2-2.3-2.99-3.4-.41-.46-.83-.92-1.24-1.38l-1.4-1.62-1.32-1.53c1.41-1.18,2.98-2.22,4.67-3.09.02,0,.04-.02.05-.03M57.36,3.1c-.09.05-.19.09-.28.14-1.9.97-3.51,2.09-4.91,3.29,1,1.16,1.96,2.26,2.89,3.34,1.42,1.6,2.86,3.16,4.22,4.78.1.11.19.21.29.29.69-.63,1.48-1.22,2.39-1.75.13-.07.25-.13.38-.2-1.67-3.35-3.32-6.62-4.97-9.88h0Z"/>
            <path class="cls-18" d="M51.13,7.81l.16.16c2.18,2.18,4.22,4.22,6.27,6.26.54.54.92.93,1.08,1.25-.66.7-1.24,1.47-1.73,2.3-.03-.02-.06-.03-.09-.05-1.91-1.16-3.89-2.31-5.82-3.43-.5-.3-1.01-.6-1.52-.91-.61-.36-1.22-.73-1.86-1.12.96-1.62,2.14-3.13,3.49-4.47M51.13,7.46c-1.59,1.54-2.85,3.2-3.83,4.9,1.25.76,2.42,1.45,3.58,2.15,1.95,1.13,3.9,2.27,5.82,3.43.11.06.22.12.32.16.51-.89,1.14-1.76,1.92-2.57-.12-.38-.51-.8-1.2-1.48-2.15-2.15-4.3-4.29-6.6-6.6h0Z"/>
            <path class="cls-18" d="M46.74,13.96l1.62.84c2.71,1.4,5.33,2.75,7.95,4.11-.4.84-.73,1.75-.98,2.7-3.18-.67-6.51-1.41-10.46-2.31.43-1.88,1.06-3.67,1.87-5.34M46.62,13.62c-.98,1.98-1.64,3.97-2.05,5.86,3.62.83,7.25,1.64,10.89,2.4,0,0,0,0,.01,0,.01,0,.03,0,.04,0,0,0,0,0,0,0,.25-1,.61-2.05,1.13-3.09-3.29-1.71-6.58-3.4-10.02-5.18h0Z"/>
            <path class="cls-18" d="M44.5,21.16c3.62.6,7.09,1.18,10.53,1.76-.17.96-.27,1.94-.29,2.94-3.47.31-7.05.63-10.6.99-.06-1.92.06-3.83.36-5.69M44.3,20.87c-.41,2.43-.46,4.61-.4,6.25,0,0,.01,0,.02,0,.01,0,.03,0,.04,0,0,0,.02,0,.03,0,.03-.01.05,0,.08-.01,3.64-.37,7.28-.7,10.92-1.02,0-.94.09-2.11.34-3.37-3.61-.6-7.23-1.21-11.03-1.84h0Z"/>
          </g>
        </g>
      </g>
    </g>
  </g>
</svg>