<?xml version="1.0" encoding="UTF-8"?>
<svg xmlns="http://www.w3.org/2000/svg" xmlns:xlink="http://www.w3.org/1999/xlink" viewBox="0 0 75.2 29.39">
  <defs>
    <style>
      .cls-1 {
        fill: url(#linear-gradient-8);
      }

      .cls-2 {
        fill: url(#linear-gradient-7);
      }

      .cls-3 {
        fill: url(#linear-gradient-9);
      }

      .cls-4 {
        fill: url(#linear-gradient-3);
      }

      .cls-5 {
        fill: #183006;
      }

      .cls-6 {
        fill: url(#radial-gradient);
      }

      .cls-7 {
        opacity: .69;
      }

      .cls-7, .cls-8 {
        fill: #d97788;
        mix-blend-mode: multiply;
      }

      .cls-9 {
        fill: url(#linear-gradient);
      }

      .cls-10 {
        isolation: isolate;
      }

      .cls-8 {
        opacity: .4;
      }

      .cls-11 {
        fill: url(#linear-gradient-2);
      }

      .cls-11, .cls-12, .cls-13, .cls-14, .cls-15, .cls-16 {
        mix-blend-mode: overlay;
      }

      .cls-12 {
        fill: url(#linear-gradient-4);
      }

      .cls-13 {
        fill: url(#linear-gradient-6);
      }

      .cls-14 {
        fill: url(#linear-gradient-5);
      }

      .cls-17 {
        fill: #fff;
      }

      .cls-15 {
        fill: url(#linear-gradient-12);
      }

      .cls-18 {
        fill: url(#linear-gradient-10);
      }

      .cls-19 {
        fill: url(#linear-gradient-11);
      }

      .cls-20 {
        fill: url(#linear-gradient-13);
      }

      .cls-21 {
        fill: url(#linear-gradient-14);
      }

      .cls-22 {
        fill: url(#linear-gradient-15);
      }

      .cls-23 {
        fill: url(#linear-gradient-16);
      }

      .cls-16 {
        opacity: .32;
      }
    </style>
    <linearGradient id="linear-gradient" x1="49.32" y1="33.53" x2="50.09" y2="19.27" gradientUnits="userSpaceOnUse">
      <stop offset=".15" stop-color="#53bf0b"/>
      <stop offset="1" stop-color="#2c730e"/>
    </linearGradient>
    <linearGradient id="linear-gradient-2" x1="47.54" y1="17.17" x2="46.12" y2="8.7" gradientUnits="userSpaceOnUse">
      <stop offset=".04" stop-color="#fff"/>
      <stop offset=".53" stop-color="#bfbfbf" stop-opacity="0"/>
    </linearGradient>
    <linearGradient id="linear-gradient-3" x1="318.72" y1="-533.76" x2="316.99" y2="-521.64" gradientTransform="translate(601.36 -149.75) rotate(-136.75)" gradientUnits="userSpaceOnUse">
      <stop offset="0" stop-color="#53bf0b"/>
      <stop offset="1" stop-color="#2c730e"/>
    </linearGradient>
    <linearGradient id="linear-gradient-4" x1="319.24" y1="-532.18" x2="315.99" y2="-519.05" gradientTransform="translate(601.36 -149.75) rotate(-136.75)" xlink:href="#linear-gradient-2"/>
    <linearGradient id="linear-gradient-5" x1="585.5" y1="-484.03" x2="585.53" y2="-482.9" gradientTransform="translate(590.19 -463.3) rotate(-180)" xlink:href="#linear-gradient-2"/>
    <linearGradient id="linear-gradient-6" x1="585.1" y1="-484.02" x2="585.13" y2="-482.89" gradientTransform="translate(589.43 -463.3) rotate(-180)" xlink:href="#linear-gradient-2"/>
    <linearGradient id="linear-gradient-7" x1="8.04" y1=".08" x2="7.37" y2="13.59" gradientUnits="userSpaceOnUse">
      <stop offset=".04" stop-color="#222336"/>
      <stop offset=".41" stop-color="#1b1b2e"/>
      <stop offset=".95" stop-color="#161629"/>
    </linearGradient>
    <linearGradient id="linear-gradient-8" x1="25.66" y1="18.99" x2="25.16" y2="29.14" xlink:href="#linear-gradient-7"/>
    <linearGradient id="linear-gradient-9" x1="72.54" y1="43.42" x2="91.64" y2="43.42" gradientTransform="translate(-49.28 -29.68) rotate(8.78)" gradientUnits="userSpaceOnUse">
      <stop offset=".2" stop-color="#ffa478"/>
      <stop offset=".23" stop-color="#feb07b"/>
      <stop offset=".29" stop-color="#fcc781"/>
      <stop offset=".35" stop-color="#fad786"/>
      <stop offset=".42" stop-color="#fae089"/>
      <stop offset=".52" stop-color="#fae48a"/>
      <stop offset=".56" stop-color="#fad886"/>
      <stop offset=".65" stop-color="#fcc180"/>
      <stop offset=".75" stop-color="#fdb07b"/>
      <stop offset=".86" stop-color="#fea778"/>
      <stop offset="1" stop-color="#ffa478"/>
    </linearGradient>
    <linearGradient id="linear-gradient-10" x1="29.66" y1="1.21" x2="28.91" y2="16.33" xlink:href="#linear-gradient-7"/>
    <linearGradient id="linear-gradient-11" x1="63.4" y1="23.29" x2="103.24" y2="23.29" xlink:href="#linear-gradient-9"/>
    <radialGradient id="radial-gradient" cx="46.42" cy="11.72" fx="46.42" fy="11.72" r="8.15" gradientTransform="translate(-16.4 -8.9) rotate(2.83)" gradientUnits="userSpaceOnUse">
      <stop offset=".04" stop-color="#c46a52"/>
      <stop offset=".14" stop-color="#ba634c"/>
      <stop offset=".47" stop-color="#a1533c"/>
      <stop offset=".76" stop-color="#914933"/>
      <stop offset="1" stop-color="#8c4630"/>
    </radialGradient>
    <linearGradient id="linear-gradient-12" x1="48.35" y1="11.28" x2="42.55" y2="26.03" gradientTransform="translate(-16.4 -8.9) rotate(2.83)" xlink:href="#linear-gradient-2"/>
    <linearGradient id="linear-gradient-13" x1="29.47" y1="4.21" x2="28.51" y2="23.64" xlink:href="#linear-gradient-7"/>
    <linearGradient id="linear-gradient-14" x1="66.25" y1="33.57" x2="99.46" y2="33.57" xlink:href="#linear-gradient-9"/>
    <linearGradient id="linear-gradient-15" x1="68.75" y1="36.22" x2="97.14" y2="36.22" xlink:href="#linear-gradient-9"/>
    <linearGradient id="linear-gradient-16" x1="26.73" y1="15.88" x2="66.24" y2="15.88" gradientTransform="translate(-16.4 -8.9) rotate(2.83)" xlink:href="#linear-gradient-9"/>
  </defs>
  <g class="cls-10">
    <g id="Layer_2" data-name="Layer 2">
      <g id="Layer_1-2" data-name="Layer 1">
        <g>
          <g>
            <path class="cls-9" d="M47.42,28.71s-.03,0-.05-.01c0,0-1.35-.84-2.39-1.47-1.32-.3-2.62-.7-3.83-1.18-.19.85-.25.85-.32.85-.07-.01-.1-.02-1.32-1.56-1.57-.71-3.13-1.59-4.61-2.61-.05.76-.07.91-.1.96-.01.02-.06.02-.09.03,0,0,0,0,0,0-.03,0-.07-.03-.09-.04-.18-.24-.59-.93-.99-1.6l-.28-.46c-.81-.63-1.53-1.23-2.14-1.79-3.46-3.06-5.4-5.88-5.41-5.91-.02-.03-.02-.06,0-.09.02-.03.05-.05.08-.05l3.58-.11c.1.08,2.6,3.84,7.09,7.1l1.62.48s.07.05.07.09-.03.08-.06.09l-.47.15c.63.42,1.34.84,2.15,1.28.26-.06.61-.12.91-.18.35-.06.63-.11.7-.11.09,0,.16.08.68.7.26.31.58.69.89,1.03.49.17,1.07.35,1.81.56.13-.1.34-.23.52-.34.3-.18.46-.28.55-.29h0c.18,0,.37.25.85,1.12,1.15.18,2.42.31,3.71.33.03-.12.04-.3.06-.47.03-.37.05-.72.29-.72s.79.65,1.22,1.2c2.6-.17,5.12-.74,7.44-1.71-.28-.73-.21-.82-.11-.87.06-.03.28-.05.89-.12.5-.06,1.12-.13,1.64-.21,6.08-3.53,8.68-9.14,8.71-9.2l4.39-1.76s.02,0,.03,0c.02,0,.05,0,.07.03.03.03.03.07.02.1-.02.04-1.73,4.25-5.85,8.34-.81.79-1.57,1.46-2.34,2.06l-.08.15c-1.37,2.28-1.56,2.52-1.68,2.52-.04,0-.11-.06-.12-.09-.11-.18-.2-.78-.23-1.06-1.11.71-2.3,1.34-3.54,1.88-.77,1.48-.8,1.48-.88,1.48-.07,0-.11,0-.54-.91-1.15.42-2.36.76-3.59,1.01-.18.37-.62,1.12-.69,1.23-.02.03-.07.05-.1.05-.18,0-.68-.54-1.07-1-.53.12-1.15.19-1.79.24-.62.04-1.22.07-1.82.07-1.17,0-2.36-.08-3.55-.25l.28.95s0,.08-.03.1c-.02.01-.04.02-.06.02Z"/>
            <path class="cls-5" d="M75.02,11.89c-.1.25-1.83,4.34-5.83,8.31h-.01c-.7.69-1.47,1.39-2.32,2.05-.54.9-1.58,2.65-1.71,2.65-.01,0-.03-.02-.04-.04-.1-.17-.2-.81-.24-1.18-1.11.72-2.33,1.38-3.65,1.95-.35.65-.8,1.47-.84,1.47s-.31-.55-.49-.93c-1.15.42-2.37.77-3.66,1.04-.24.41-.68,1.16-.75,1.27,0,0-.01.01-.02.01-.13,0-.67-.59-1-.97-.61.09-1.23.16-1.87.21-.61.04-1.22.07-1.82.07-1.27,0-2.49-.1-3.67-.27l.32,1.09s-1.35-.84-2.39-1.47c-1.38-.32-2.7-.73-3.95-1.23-.07.33-.21.88-.25.88-.04-.01-.74-.88-1.25-1.52-1.74-.8-3.33-1.73-4.76-2.72-.03.44-.07,1.03-.1,1.08-.01,0-.02-.01-.05-.04v-.02c-.2-.25-.79-1.25-1.25-2.01,0-.02-.02-.03-.03-.05-.76-.58-1.48-1.17-2.13-1.76-3.49-3.09-5.4-5.89-5.4-5.89l3.58-.11s2.48,3.77,7.03,7.08l1.08.32.57.17-.65.21c.72.49,1.5.95,2.32,1.39.68-.11,1.53-.28,1.65-.28,0,0,0,0,0,0,.08.01.81.95,1.49,1.7.6.22,1.22.41,1.85.59.48-.26.98-.61,1.11-.63,0,0,0,0,0,0,.14,0,.49.6.75,1.07,1.23.23,2.52.36,3.86.38.13-.33.03-1.19.28-1.19.19,0,.78.69,1.15,1.16,2.92-.15,5.45-.79,7.63-1.72-.13-.33-.29-.79-.19-.83.11-.05,1.5-.17,2.51-.33,6.21-3.6,8.78-9.25,8.78-9.25l4.34-1.71M75.02,11.71s-.05,0-.07.01l-4.34,1.71s-.08.05-.1.1c-.03.06-2.61,5.62-8.67,9.15-.51.08-1.12.15-1.61.21-.68.08-.84.1-.92.13-.19.08-.19.3.03.9-2.26.94-4.71,1.49-7.31,1.63-.92-1.16-1.15-1.16-1.24-1.16-.32,0-.35.41-.38.81,0,.13-.02.27-.04.38-1.23-.03-2.44-.15-3.6-.36-.49-.86-.67-1.09-.87-1.09-.14.02-.29.11-.62.31-.16.1-.34.21-.52.31-.69-.2-1.23-.37-1.72-.55-.3-.33-.6-.69-.86-1-.56-.67-.61-.72-.72-.73,0,0,0,0,0,0-.11,0-.29.03-.73.11-.28.05-.61.11-.91.16-.72-.39-1.35-.76-1.93-1.14l.28-.09c.08-.02.13-.1.13-.18,0-.08-.05-.15-.13-.18l-.57-.17-1.05-.31c-4.45-3.25-6.93-6.98-6.96-7.01-.03-.05-.09-.08-.15-.08,0,0,0,0,0,0l-3.58.11c-.07,0-.13.04-.16.1-.03.06-.03.13.01.19.02.03,1.96,2.85,5.43,5.92.61.56,1.32,1.14,2.11,1.75,0,0,0,0,0,0l.28.47c.38.64.78,1.3.96,1.54,0,.03.02.05.04.07.04.04.09.09.18.09.07,0,.13-.03.16-.09.03-.06.05-.12.1-.84,1.43.97,2.94,1.82,4.48,2.53,1.21,1.52,1.24,1.53,1.32,1.55.01,0,.02,0,.04,0,.15,0,.22-.06.39-.81,1.18.46,2.44.85,3.74,1.15,1.04.63,2.36,1.45,2.36,1.45.03.02.06.03.1.03.04,0,.08-.01.11-.04.06-.05.09-.13.07-.2l-.24-.81c1.14.15,2.29.23,3.42.23.61,0,1.22-.02,1.83-.07.61-.05,1.19-.11,1.78-.2.83.96,1,.96,1.07.96.06,0,.14-.04.17-.09.07-.11.47-.79.72-1.21,1.19-.25,2.34-.58,3.45-.97.42.88.46.88.59.88.14,0,.16,0,.97-1.51,1.17-.51,2.31-1.11,3.37-1.78.04.31.12.78.23.96.03.06.1.13.2.13.16,0,.23,0,1.76-2.56l.09-.15c.75-.58,1.5-1.24,2.28-2.02.01,0,.03-.02.04-.03,4.13-4.1,5.85-8.33,5.87-8.37.03-.07.01-.15-.04-.2-.04-.04-.08-.05-.13-.05h0ZM75.02,12.08h0,0Z"/>
          </g>
          <path class="cls-16" d="M75.03,11.88s-2.34,5.78-8.17,10.37c-.54.9-1.58,2.65-1.71,2.65-.01,0-.03-.02-.04-.04.76-.93.91-2.81.13-2.81-.87,0-5.18,2.82-7.5,3.6-2.32.79-9.81,1.45-15.02-.59-5.22-2.05-7.93-3.95-8.22-3.59-.24.3.07,1.69.17,2.11-.2-.26-.82-1.29-1.28-2.06-4.84-3.7-7.53-7.65-7.53-7.65l3.58-.11s2.48,3.77,7.03,7.08l1.65.49-.65.21c.72.49,1.5.95,2.32,1.39.7-.11,1.58-.29,1.66-.28.08.01.81.95,1.49,1.7.6.22,1.22.41,1.85.59.48-.26.98-.61,1.11-.63.14-.02.49.59.76,1.07,1.23.23,2.52.36,3.86.38.13-.33.03-1.19.28-1.19.19,0,.78.69,1.15,1.16,2.92-.15,5.45-.79,7.63-1.72-.13-.33-.29-.79-.19-.83.11-.05,1.5-.17,2.51-.33,6.21-3.6,8.78-9.25,8.78-9.25l4.35-1.72Z"/>
          <path class="cls-11" d="M68.97,20.23c-.96.73-2.29,1.82-2.29,1.82,0,0-1.33,2.24-1.41,2.29-.08.06-.18-1.13-.18-1.13,0,0-.24.14-1.14.71-.89.57-2.9,1.48-2.9,1.48,0,0-.67,1.03-.69,1.03,0-.02-.22-.67-.25-.68-.06,0-.63.28-1.82.61-1.22.35-2.18.59-2.18.59,0,0-.7,1.03-.78,1.05-.1,0-.59-.75-.67-.78-.09-.04-1.09.25-3.34.31-2.25.05-4.5-.31-4.5-.31,0,0-.01.6-.03.62-.05,0-1.52-.87-1.56-.89-.04-.03-.97-.21-2.34-.63-1.37-.43-1.85-.85-1.85-.85,0,0-.34.77-.39.77-.07,0-.9-1.2-.97-1.25s-.9-.35-2.34-1.11c-1.43-.76-2.61-1.67-2.61-1.67,0,0-.13.73-.16.79-.07,0-.81-1.29-.95-1.54.38-.2.98-.51,1.13-.51.22,0,1.6.2,1.77.22.09.01.58,0,1.03-.01l-1.08-.32c-4.55-3.31-7.03-7.08-7.03-7.08l-3.58.11s1.91,2.8,5.4,5.89c.65.59,1.37,1.18,2.13,1.76.46.77,1.08,1.8,1.28,2.06v.02s.04.04.05.04c.03-.05.07-.64.1-1.08,1.43.99,3.02,1.92,4.76,2.72.51.64,1.21,1.51,1.25,1.52.04,0,.18-.55.25-.88,1.25.5,2.57.91,3.95,1.23,1.04.63,2.39,1.47,2.39,1.47l-.32-1.09c1.74.25,3.57.34,5.49.2.64-.05,1.26-.12,1.87-.21.35.41.95,1.06,1.02.96.07-.11.51-.86.75-1.27,1.29-.27,2.51-.62,3.66-1.04.18.38.45.93.49.93s.49-.82.84-1.47c1.32-.57,2.54-1.23,3.65-1.95.04.37.14,1.01.24,1.18.01.02.03.04.04.04.13,0,1.17-1.75,1.71-2.65.85-.66,1.62-1.36,2.32-2.05-.06-.04-.13-.03-.21.03Z"/>
        </g>
        <g>
          <g>
            <g>
              <path class="cls-4" d="M12.5,24s-.11-.03-.13-.05c-.04-.04-.05-.1-.04-.18,0-.07.03-.17.06-.29.03-.11.06-.22.08-.35-.82.2-1.66.3-2.49.3-.54,0-1.1-.04-1.64-.13-.15.12-.73.45-1.54.45h-.15c-.37-.02-.51-.06-.55-.18-.04-.13.09-.23.27-.37.1-.08.22-.17.31-.28-.01,0-.15-.04-.21-.06-1.69-.58-3.12-1.63-4.14-3.04-.09-.03-1.19-.59-1.39-.78-.07-.07-.08-.13-.07-.17.02-.13.16-.2.35-.3.09-.05.19-.1.28-.17-.45-.99-.68-2.05-.7-3.14-.21-.23-.51-.68-.61-1.2-.12-.63-.11-1.21.02-1.38.02-.02.09-.06.12-.06.09,0,.16.07.28.19.11.11.26.26.45.38.29-1.12.85-2.14,1.65-3.06.63-.73,1.42-1.37,2.37-1.91,2.05-1.15,4.61-1.71,7.65-1.71h.27s.09.04.09.09l.24,2.24s0,.06-.03.08c-.02.02-.04.03-.07.03,0,0,0,0-.01,0,0,0-.52-.06-1.31-.06-2.17,0-6.04.41-7.92,3.11.06-.02.12-.05.19-.07.33-.13.46-.18.52-.18.03.02.11.07.11.1,0,.07-.04.1-.17.2-.29.22-.97.73-1.45,1.78-.03.06-.15.31-.15.31-.24,1.03-.19,2.04.16,2.99.25-.18.68-.46.86-.46.03,0,.09.03.11.05.06.09.03.23-.06.57-.1.35-.23.83-.16,1.17.63.81,1.53,1.49,2.58,1.95.31-.08.73-.21,1.07-.31.25-.08.46-.14.55-.15.03,0,.17.04.19.07.08.13-.04.35-.23.71-.03.05-.05.1-.08.14.61.13,1.19.19,1.76.19.45,0,.93-.04,1.45-.13.41-.37.85-.87,1.02-1.05.08-.09.13-.12.22-.12.22,0,.58.23.7.71,2.96-1.01,5.1-2.98,5.12-3,.02-.02.04-.03.07-.03.01,0,.02,0,.03,0,.03.01.06.04.06.08l.17,2.17c-.04.09-1.65,1.7-4.17,2.78-.18.2-.91.95-1.53,1.33l-.09.06c-.17.1-.27.14-.34.14Z"/>
              <path class="cls-5" d="M12.72,6.61c.09,0,.18,0,.27,0l.24,2.23s-.52-.06-1.32-.06c-2.14,0-6.3.41-8.16,3.4.38-.14.86-.35.95-.35,0,0,0,0,.01,0,.08.05-.95.51-1.61,1.94-.06.1-.1.21-.14.3-.28,1.15-.18,2.23.2,3.18.26-.19.75-.51.9-.51h0c.2,0-.35,1.08-.21,1.71.65.86,1.56,1.55,2.64,2.02.64-.14,1.45-.42,1.67-.45.01,0,.02,0,.03,0,.23,0-.15.58-.31.9.61.13,1.24.22,1.91.22.5,0,.98-.05,1.47-.13.53-.45,1.05-1.05,1.13-1.14.02-.02.05-.03.09-.03.18,0,.55.22.63.74,3.07-1.02,5.26-3.06,5.26-3.06l.17,2.17s-1.58,1.6-4.12,2.69c-.3.32-.98.99-1.54,1.34-.04.03-.08.05-.11.08-.13.07-.21.1-.26.1-.06,0-.08-.05-.07-.12,0-.16.12-.46.15-.78-.81.21-1.68.33-2.6.33-.53,0-1.07-.04-1.63-.13-.24.16-.8.45-1.55.45-.05,0-.1,0-.14,0-1.01-.04-.11-.32.2-.78-.12-.04-.23-.06-.35-.1-1.75-.6-3.13-1.67-4.09-3-.49-.25-1.25-.66-1.4-.8-.2-.18.31-.29.61-.54-.46-1-.71-2.08-.72-3.18-.2-.24-.51-.69-.61-1.22-.15-.79-.07-1.32.05-1.32,0,0,0,0,0,0,.11,0,.34.39.79.63.27-1.12.82-2.19,1.66-3.14.61-.71,1.4-1.35,2.34-1.89.02,0,.04-.02.04-.03,1.85-1.03,4.34-1.67,7.55-1.67M12.72,6.42c-3.05,0-5.62.57-7.64,1.7-.02,0-.03.02-.05.04-.95.54-1.76,1.19-2.39,1.93-.78.89-1.33,1.88-1.64,2.96-.13-.1-.24-.21-.33-.3-.13-.13-.21-.22-.33-.22h0c-.08,0-.15.03-.2.09-.18.22-.16.89-.05,1.46.11.53.41.99.61,1.25.03,1.06.25,2.08.68,3.04-.07.04-.14.08-.21.12-.2.11-.37.2-.4.37,0,.06,0,.16.1.26.19.18,1.13.67,1.41.81,1.03,1.41,2.47,2.45,4.16,3.03.02,0,.04.01.06.02-.06.05-.13.11-.19.15-.2.15-.37.29-.3.48.06.18.27.22.64.24.05,0,.1,0,.15,0,.76,0,1.33-.28,1.59-.44.53.08,1.06.12,1.58.12.79,0,1.59-.09,2.37-.27-.01.07-.03.14-.05.2-.03.13-.06.24-.06.31-.01.09,0,.18.06.24.05.06.12.09.2.09.09,0,.2-.04.36-.13.05-.03.08-.05.13-.09.6-.37,1.3-1.08,1.54-1.33,2.52-1.09,4.08-2.65,4.14-2.71.04-.04.06-.09.05-.15l-.17-2.17c0-.07-.05-.14-.12-.16-.02,0-.05-.01-.07-.01-.05,0-.09.02-.13.05-.02.02-2.1,1.94-4.99,2.95-.16-.46-.53-.68-.77-.68-.12,0-.19.05-.23.09l-.07.07c-.16.18-.59.65-1.01,1.02-.5.08-.96.12-1.39.12-.53,0-1.06-.06-1.62-.16,0-.01.01-.02.02-.03.21-.4.33-.63.23-.81-.05-.08-.13-.12-.22-.12-.01,0-.05,0-.06,0-.11.02-.3.07-.57.15-.32.09-.71.21-1.06.29-1-.44-1.86-1.09-2.48-1.9-.05-.31.07-.75.16-1.08.1-.35.15-.53.05-.66-.04-.05-.12-.09-.18-.09-.18,0-.51.2-.81.4-.31-.9-.34-1.85-.11-2.83,0,0,.03-.05.05-.09.02-.05.05-.11.08-.17.48-1.03,1.14-1.53,1.43-1.75.14-.11.22-.17.21-.29,0-.06-.04-.13-.1-.16-.03-.02-.08-.03-.11-.03-.07,0-.17.03-.43.13,1.92-2.43,5.56-2.81,7.64-2.81.78,0,1.3.06,1.3.06,0,0,.01,0,.02,0,.05,0,.1-.02.13-.06.04-.04.06-.1.06-.16l-.24-2.23c-.01-.1-.09-.17-.19-.17h-.27Z"/>
            </g>
            <path class="cls-16" d="M2.78,10.2c1.86-2.14,5.17-3.64,10.21-3.59l.24,2.23s-6.92-.77-9.48,3.34c.4-.14.92-.37.96-.34.08.05-.95.51-1.61,1.94-.06.1-.1.21-.14.3-.28,1.15-.18,2.23.2,3.18.26-.19.75-.51.9-.51.2,0-.35,1.08-.21,1.71.65.86,1.56,1.55,2.64,2.02.64-.14,1.45-.42,1.67-.45.28-.05-.12.57-.28.9.61.13,1.24.22,1.91.22.5,0,.98-.05,1.47-.13.53-.45,1.05-1.05,1.13-1.14.11-.11.62.08.72.71,3.07-1.02,5.26-3.06,5.26-3.06l.17,2.17s-1.58,1.6-4.12,2.69c-.32.34-1.08,1.08-1.66,1.42-.28.16-.35.12-.34-.02.25-.1.53-.24.8-.46.82-.65,1.23-1.29,1.15-1.39-.08-.1-.61-.47-.73-.67-.12-.19-1.11.27-3.64.51-2.53.23-3.71-.18-5.32-1.41-1.61-1.23-2.98-3.52-2.6-5.82.37-2.31,2.01-3.88,2.99-4.59.98-.71-.41-1.13-1.78-.13-.19.14-.36.27-.52.39Z"/>
            <path class="cls-12" d="M1.12,13.34c.27-1.12.82-2.19,1.66-3.14.61-.71,1.4-1.35,2.34-1.89-.48.41-1.33,1.17-2.21,2.15-1.28,1.44-1.6,3.12-1.67,3.19-.06-.04-.68-.48-.67-.05,0,.44.65,1.59.65,1.59,0,0-.1.4.04,1.36.14.97.64,2.03.64,2.03,0,0-.44.23-.4.3.05.07,1.2.7,1.26.76s.61,1.11,2.11,2.04c1.5.92,2.38.91,2.42.94s-.49.5-.31.59c.16.08,1.19-.36,1.21-.38.03-.02.55.14,2.12.26,1.57.11,2.43-.48,2.55-.36.11.12-.19.81-.15.93,0,.02.07.04.17.06-.04.03-.08.05-.11.08-.28.16-.35.12-.34-.02,0-.16.12-.46.15-.78-1.27.32-2.7.44-4.23.2-.26.17-.87.49-1.69.45-1.01-.04-.11-.32.2-.78-.12-.04-.23-.06-.35-.1-1.75-.6-3.13-1.67-4.09-3-.49-.25-1.25-.66-1.4-.8-.2-.18.31-.29.61-.54-.46-1-.71-2.08-.72-3.18-.2-.24-.51-.69-.61-1.22-.16-.8-.07-1.34.05-1.32.11,0,.34.39.79.63Z"/>
            <ellipse class="cls-14" cx="4.7" cy="21.46" rx=".34" ry=".64" transform="translate(-14.05 10.02) rotate(-46.24)"/>
            <ellipse class="cls-13" cx="4.32" cy="20.57" rx=".2" ry=".33" transform="translate(-13.52 9.47) rotate(-46.24)"/>
          </g>
          <g>
            <g>
              <g>
                <path class="cls-17" d="M11.94,11.08l-.03,2.18c-.66-.1-1.29-.23-1.86-.41C1.95,10.47,1.9,1.19,5.5.61c2.37-.4,4.19.99,5.37,2.35.99,1.15,1.53,2.27,1.53,2.27l-1.11,1.74s-2.2-3.62-3.8-4.3c-1.6-.67-3.61,1.25-1.42,4.93,2.18,3.69,5.87,3.49,5.87,3.49Z"/>
                <path class="cls-2" d="M6.32.55c1.97,0,3.51,1.22,4.56,2.42.99,1.15,1.53,2.27,1.53,2.27l-1.11,1.74s-2.2-3.62-3.8-4.3c-.21-.09-.43-.13-.65-.13-1.42,0-2.68,1.87-.78,5.06,1.96,3.33,5.17,3.49,5.77,3.49.07,0,.1,0,.1,0l-.03,2.18c-.66-.1-1.29-.23-1.86-.41C1.95,10.47,1.9,1.19,5.5.61c.28-.05.55-.07.81-.07M11.94,11.08h0M6.32,0c-.3,0-.6.03-.9.08-1.52.24-2.59,1.78-2.73,3.91-.22,3.44,1.94,7.84,7.21,9.4.54.17,1.18.31,1.93.42.03,0,.05,0,.08,0,.13,0,.25-.05.35-.13.12-.1.19-.25.19-.41l.03-2.13s0-.04,0-.06c0-.3-.24-.55-.54-.55h0s0,0,0,0h0s-.02,0-.02,0h-.07c-.57,0-3.5-.15-5.3-3.22-1.26-2.12-.88-3.25-.66-3.64.22-.38.57-.6.96-.6.15,0,.29.03.44.09,1.18.5,2.96,3.12,3.55,4.08.1.16.27.26.46.26,0,0,0,0,0,0,.19,0,.36-.09.46-.25l1.11-1.74c.1-.16.11-.36.03-.53-.02-.05-.58-1.2-1.6-2.39-1.52-1.73-3.19-2.61-4.97-2.61h0Z"/>
              </g>
              <path class="cls-8" d="M11.94,11.08l-.03,2.18c-.66-.1-1.29-.23-1.86-.41.28-.59-.23-1.39-.23-1.39,0,0-3.73-1.4-4.89-4.49-1.15-3.09-.44-6.6,2.82-5.78,1.09.27,2.17.96,3.12,1.76.99,1.15,1.53,2.27,1.53,2.27l-1.11,1.74s-2.2-3.62-3.8-4.3c-1.6-.67-3.61,1.25-1.42,4.93,2.18,3.69,5.87,3.49,5.87,3.49Z"/>
            </g>
            <g>
              <g>
                <path class="cls-17" d="M34.79,26.37c-.09.48-.36.87-.75,1.09-.34.22-.78.31-1.27.25-1.01-.14-1.28.9-2.3,1.11-1.03.21-1.56-1.2-2.6-1.36-1.06-.16-1.58,1.34-3.54.82-1.95-.52-1.33-1.51-2.31-1.93-.97-.42-1.44.57-2.47.24-1.03-.36-.88-1.44-1.22-1.65-.34-.19-1.03.1-1.71-.16-.26-.09-.48-.37-.6-.75-.2-.62-.1-1.5.7-2.18.01-.01.03-.02.05-.03,1.31-1.08,4.18-2.51,4.18-2.51l12.41,3.19s.75,1.39,1.17,2.56c.19.54.31,1.04.25,1.32Z"/>
                <path class="cls-1" d="M20.96,19.3l12.41,3.19s.75,1.39,1.17,2.56c.19.54.31,1.04.25,1.32-.09.48-.36.87-.75,1.09-.27.18-.61.27-.98.27-.09,0-.19,0-.28-.02-.06,0-.12-.01-.18-.01-.87,0-1.16.92-2.12,1.12-.07.01-.14.02-.21.02-.9,0-1.42-1.23-2.39-1.38-.05,0-.11-.01-.16-.01-.81,0-1.34.94-2.6.94-.24,0-.5-.03-.79-.11-1.95-.52-1.33-1.51-2.31-1.93-.17-.08-.33-.11-.48-.11-.55,0-.96.41-1.56.41-.13,0-.27-.02-.43-.07-1.03-.36-.88-1.44-1.22-1.65-.1-.05-.22-.07-.37-.07-.19,0-.4.02-.64.02s-.47-.02-.7-.12c-.26-.09-.48-.37-.6-.75-.2-.62-.1-1.5.7-2.18.01-.01.03-.02.05-.03,1.31-1.08,4.18-2.51,4.18-2.51M20.96,18.76c-.08,0-.17.02-.24.06-.12.06-2.92,1.45-4.27,2.56-.03.02-.06.04-.09.07-1,.85-1.1,1.98-.85,2.75.16.54.51.95.94,1.1.25.1.54.15.88.15.13,0,.26,0,.39-.01.09,0,.17-.01.25-.01.01,0,.03,0,.04,0,.02.05.04.12.06.17.14.45.38,1.2,1.31,1.52.21.07.41.1.61.1.41,0,.75-.14,1.02-.26.2-.09.38-.16.54-.16.08,0,.17.02.27.06.2.09.26.19.4.46.24.47.58,1.12,1.98,1.49.32.09.64.13.93.13.85,0,1.42-.35,1.88-.63.29-.17.51-.31.72-.31.03,0,.05,0,.08,0,.31.05.6.31.91.59.42.38.89.8,1.56.8.1,0,.21-.01.32-.03.6-.12.99-.45,1.3-.72.3-.26.47-.39.71-.39.03,0,.07,0,.11,0,.13.02.24.02.36.02.48,0,.93-.12,1.28-.36.5-.28.87-.81.99-1.44.04-.22.07-.63-.27-1.6-.43-1.2-1.18-2.58-1.21-2.64-.07-.13-.2-.23-.34-.27l-12.41-3.19s-.09-.02-.14-.02h0Z"/>
              </g>
              <path class="cls-3" d="M34.79,26.37c-.18.91-.99,1.47-2.02,1.34-1.01-.13-1.28.9-2.31,1.11-1.03.21-1.55-1.2-2.6-1.36s-1.57,1.34-3.54.82c-1.95-.53-1.34-1.51-2.31-1.93-.97-.42-1.43.57-2.46.23-1.03-.35-.88-1.44-1.22-1.64-.34-.19-1.04.1-1.71-.16-.67-.24-1.17-1.84.11-2.94.01-.01.03-.02.04-.03.36.02.71.06.99.15.87.3.57,1.42.94,1.51.38.1,1.18-.35,1.62.62.45.96,1.6.4,2.54.57.96.16,1.21,2.07,2.5,2.02,1.3-.05,1.84-1.15,2.97-.93,1.13.21,1.97,1.08,2.49.86.53-.22.83-.97,1.36-.89s1.08.72,2.12-.43c.08-.09.15-.17.23-.25.2.54.31,1.03.26,1.32Z"/>
              <path class="cls-8" d="M34.79,26.37c-.09.48-.36.87-.75,1.09.15-1.07-.65-2.22-1.11-2.54-.68-.5-1.07.54-6.36-.07s-7.33-3.41-8.86-2.79c-.74.3-1.3,1.16-1.68,1.97-.2-.62-.1-1.5.7-2.18.01-.01.03-.02.05-.03,1.31-1.08,4.18-2.51,4.18-2.51l12.41,3.19s.75,1.39,1.17,2.56c.19.54.31,1.04.25,1.32Z"/>
            </g>
            <g>
              <g>
                <path class="cls-17" d="M47.78,12.25s-.04.02-.11.05c-1.09.47-10.79,4.47-18.52,3.43-7.63-1.02-16.84-6.69-19.02-11-.17-.31-.3-.64-.38-.95,0,0-.1-1.35.86-1.77.96-.42,2.46.37,2.46.37,0,0,.49-.85,1.81-1.02,1.31-.15,2.4.97,2.4.97,0,0,.98-1.34,4.18-.96,3.21.37,4.23,2.11,4.23,2.11,0,0,1.07-.81,2.81-.82.45-.01.94.05,1.47.17,2.61.62,3.41,2.24,3.41,2.24,0,0,2.55-1.02,4.9-.25,1.16.37,1.98.95,2.52,1.45.54.5.78.9.78.9,0,0,1.66-.58,2.88-.01,1.24.57,1.65,2.08,1.65,2.08,0,0,1.93-.09,2.68.63.77.73-1.02,2.38-1.02,2.38Z"/>
                <path class="cls-18" d="M20.38,1.3c.33,0,.69.02,1.09.07,3.21.37,4.23,2.11,4.23,2.11,0,0,1.07-.81,2.81-.82.04,0,.07,0,.11,0,.42,0,.87.06,1.36.17,2.61.62,3.41,2.24,3.41,2.24,0,0,1.34-.54,2.98-.54.62,0,1.28.08,1.92.29,1.16.37,1.98.95,2.52,1.45.54.5.78.9.78.9,0,0,.74-.26,1.6-.26.42,0,.87.06,1.28.25,1.24.57,1.65,2.08,1.65,2.08,0,0,.08,0,.21,0,.52,0,1.87.06,2.47.64.77.73-1.02,2.38-1.02,2.38,0,0-.04.02-.11.05-.97.42-8.69,3.6-15.81,3.6-.92,0-1.83-.05-2.71-.17-7.63-1.02-16.84-6.69-19.02-11-.17-.31-.3-.64-.38-.95,0,0-.1-1.35.86-1.77.2-.09.43-.12.66-.12.87,0,1.8.5,1.8.5,0,0,.49-.85,1.81-1.02.08,0,.17-.01.25-.01,1.19,0,2.15.98,2.15.98,0,0,.76-1.03,3.1-1.03M20.38.76c-1.66,0-2.62.48-3.11.84-.45-.34-1.22-.8-2.14-.8-.1,0-.21,0-.31.02-.96.13-1.57.57-1.9.9-.4-.16-1.03-.37-1.65-.37-.33,0-.62.06-.88.17-1.04.46-1.23,1.66-1.19,2.31,0,.03,0,.07.02.1.1.36.24.72.43,1.06,2.37,4.69,12,10.29,19.42,11.28.87.12,1.81.18,2.78.18,7.34,0,15.16-3.27,16.03-3.64l.12-.05c.06-.02.11-.06.15-.1.23-.21,1.39-1.33,1.39-2.32,0-.34-.12-.64-.36-.86-.66-.63-1.89-.77-2.67-.78-.23-.56-.77-1.55-1.81-2.03-.43-.2-.94-.3-1.51-.3s-1.06.1-1.39.18c-.14-.18-.35-.42-.64-.67-.51-.48-1.4-1.14-2.72-1.56-.64-.21-1.34-.31-2.09-.31-1.18,0-2.2.26-2.76.43-.44-.59-1.48-1.64-3.51-2.12-.53-.12-1.03-.19-1.48-.19h-.12c-1.23,0-2.15.38-2.67.65-.55-.61-1.84-1.65-4.3-1.93-.4-.05-.78-.07-1.15-.07h0Z"/>
              </g>
              <path class="cls-19" d="M47.77,12.26s-.04.02-.11.05c.15-.5.36-1.4-.09-1.75-.62-.51-2.41-.55-2.46-.6-.04-.05-.17-1.13-1.59-1.59-1.42-.46-2.59-.04-2.59-.04,0,0-.93-1.56-3.27-2.3-2.35-.73-4.28-.06-4.43-.11-.16-.05-1.73-1.72-3.78-2.12-2.03-.4-3.74.55-3.88.49-.16-.06-1.78-1.53-4.58-1.79-2.79-.28-3.5.76-3.68.74-.17-.04-.78-.66-1.9-.75-1.13-.11-2.1.88-2.1.88,0,0-1.02-.9-2.02-.66-.58.13-.95,1.19-1.14,2.03-.17-.32-.3-.65-.38-.95,0,0-.1-1.34.86-1.77.96-.41,2.46.38,2.46.38,0,0,.49-.86,1.81-1.02,1.3-.16,2.39.97,2.39.97,0,0,.99-1.34,4.19-.96,3.21.37,4.22,2.11,4.22,2.11,0,0,1.67-1.29,4.28-.66,2.61.62,3.41,2.24,3.41,2.24,0,0,2.56-1.01,4.91-.24,2.35.76,3.31,2.34,3.31,2.34,0,0,1.65-.58,2.88,0,1.24.58,1.66,2.07,1.66,2.07,0,0,1.92-.09,2.67.64.77.72-1.03,2.38-1.03,2.38Z"/>
              <path class="cls-8" d="M47.78,12.25s-.04.02-.11.05c-1.09.47-10.79,4.47-18.52,3.43-7.63-1.02-16.84-6.69-19.02-11-.17-.31-.3-.64-.38-.95,0,0-.1-1.35.86-1.77.96-.42,2.46.37,2.46.37,0,0,.49-.85,1.81-1.02,1.31-.15,2.4.97,2.4.97,0,0,.98-1.34,4.18-.96,3.21.37,4.23,2.11,4.23,2.11,0,0,1.07-.81,2.81-.82-.52,1.78-.72,4.17.49,6.74,2.43,5.17,11.38,1.21,11.81-3.13.54.5.78.9.78.9,0,0,1.66-.58,2.88-.01,1.24.57,1.65,2.08,1.65,2.08,0,0,1.93-.09,2.68.63.77.73-1.02,2.38-1.02,2.38Z"/>
              <g>
                <path class="cls-6" d="M46.7,13.74c-.06.31-.29.6-.66.82-2.22,1.41-9.58,1.38-18.08-.18-9.94-1.84-17.67-5.11-17.27-7.29.05-.26.21-.49.46-.69,1.93-1.54,9.5-1.58,18.28.05,4.91.91,9.29,2.16,12.4,3.46,1.49.62,2.69,1.26,3.53,1.87.96.7,1.44,1.37,1.33,1.97Z"/>
                <path class="cls-7" d="M46.7,13.74c-.41,2.18-8.8,2.47-18.74.63-9.94-1.84-17.67-5.11-17.27-7.29.41-2.2,8.8-2.48,18.74-.63,4.91.91,9.29,2.16,12.4,3.46-3.03-.95-10.42-2.99-16.63-2.66-8.03.44,15.44,5.33,18.94,4.94.5-.05.91-.21,1.22-.42.96.7,1.44,1.37,1.33,1.97Z"/>
              </g>
              <path class="cls-15" d="M46.7,13.74c-.06.31-.29.6-.66.82,0-.03.01-.05.02-.09.21-1.41-.66-4.09-16.66-7.5-10.36-2.2-15.75-1.41-18.24-.57,1.93-1.54,9.5-1.58,18.28.05,4.91.91,9.29,2.16,12.4,3.46,1.49.62,2.69,1.26,3.53,1.87.96.7,1.44,1.37,1.33,1.97Z"/>
            </g>
            <g>
              <g>
                <path class="cls-17" d="M48.87,11s-.02.03-.04.05c0,.01-.01.02-.01.03-.22.35-.43.69-.63,1.02-.11.15-.2.3-.29.44-1.28,2.01-2.54,3.75-3.86,5.21-.5.53-.98,1.02-1.47,1.48-.41.37-.84.73-1.27,1.05-.52.39-1.04.75-1.59,1.06-.74.42-1.52.78-2.34,1.05-3.52,1.23-7.84,1.13-13.69-.36-4.02-1.02-6.88-3.04-8.9-5.36-.52-.58-.97-1.18-1.36-1.78-.34-.49-.63-.98-.89-1.47-.42-.74-.78-1.49-1.07-2.24-.82-2.02-1.24-3.89-1.45-5.26-.03-.19-.06-.35-.08-.52-.07-.57-.11-1.01-.13-1.29,0-.08-.01-.15-.01-.22,0-.07,0-.11,0-.11h.01c2.34.78,3.38,2.75,3.62,3.26.03.08.05.12.05.12,0,0,2.76-.8,5.62.03.84.24,1.55.59,2.14.96,1.42.9,2.1,1.93,2.1,1.93,0,0,1.72-1.44,5.27-.9,3.55.55,4.57,3.01,4.57,3.01,0,0,1.78-1.33,5.23-.93,3.44.4,5.48,2.07,5.48,2.07.1-.13.22-.25.35-.36.11-.11.24-.23.37-.32,1.7-1.35,4.09-1.62,4.3-1.63.01-.01.02,0,.02,0Z"/>
                <path class="cls-20" d="M9.75,3.78h.01c2.34.78,3.38,2.75,3.62,3.26.03.08.05.12.05.12,0,0,1.2-.35,2.84-.35.85,0,1.81.09,2.78.38.84.24,1.55.59,2.14.96,1.42.9,2.1,1.93,2.1,1.93,0,0,1.22-1.02,3.71-1.02.47,0,.99.04,1.56.12,3.55.55,4.57,3.01,4.57,3.01,0,0,1.35-1.01,3.96-1.01.39,0,.82.02,1.27.07,3.44.4,5.48,2.07,5.48,2.07.1-.13.22-.25.35-.36.11-.11.24-.23.37-.32,1.7-1.35,4.09-1.62,4.3-1.63.01,0,.02,0,.02,0h0s-.02.03-.04.05c0,.01-.01.02-.01.03-.22.35-.43.69-.63,1.02-.11.15-.2.3-.29.44-1.28,2.01-2.54,3.75-3.86,5.21-.5.53-.98,1.02-1.47,1.48-.41.37-.84.73-1.27,1.05-.52.39-1.04.75-1.59,1.06-.74.42-1.52.78-2.34,1.05-1.61.56-3.39.85-5.4.85-2.39,0-5.11-.4-8.29-1.21-4.02-1.02-6.88-3.04-8.9-5.36-.52-.58-.97-1.18-1.36-1.78-.34-.49-.63-.98-.89-1.47-.42-.74-.78-1.49-1.07-2.24-.82-2.02-1.24-3.89-1.45-5.26-.03-.19-.06-.35-.08-.52-.07-.57-.11-1.01-.13-1.29,0-.08-.01-.15-.01-.22,0-.07,0-.11,0-.11M9.77,3.24c-.29,0-.54.23-.56.52,0,0,0,.06,0,.16,0,.08,0,.16.01.25.02.3.07.75.13,1.31.03.18.05.36.09.55.2,1.27.62,3.24,1.48,5.36.3.77.67,1.55,1.1,2.3.28.54.58,1.04.91,1.51.43.65.91,1.27,1.4,1.83,2.37,2.73,5.46,4.59,9.18,5.53,3.24.82,6,1.23,8.42,1.23,2.07,0,3.89-.29,5.58-.88.83-.28,1.65-.65,2.43-1.09.51-.29,1.04-.64,1.65-1.09.42-.31.86-.67,1.31-1.08.48-.44.97-.94,1.5-1.51,1.28-1.42,2.56-3.15,3.92-5.29.09-.14.18-.28.28-.42l.19-.3c.15-.24.3-.49.46-.74.02-.02.03-.05.04-.07,0-.01.02-.02.02-.04.1-.17.09-.38,0-.54-.1-.17-.28-.27-.47-.27-.05,0-.09,0-.14.02-.48.05-2.8.37-4.52,1.74-.12.09-.26.21-.41.36-.01,0-.02.02-.03.03-.79-.53-2.65-1.58-5.34-1.89-.45-.05-.9-.08-1.33-.08-1.84,0-3.1.47-3.76.8-.54-.83-1.89-2.37-4.69-2.8-.56-.09-1.11-.13-1.64-.13-1.79,0-2.98.5-3.59.84-.35-.41-.99-1.06-1.93-1.66-.72-.45-1.48-.8-2.28-1.02-.91-.26-1.89-.4-2.93-.4-1.11,0-2.02.15-2.54.26-.47-.86-1.62-2.54-3.79-3.26-.05-.02-.1-.03-.15-.03,0,0-.02,0-.02,0h0Z"/>
              </g>
              <g>
                <path class="cls-21" d="M44.04,17.75c-.49.54-.98,1.02-1.47,1.49-3.63.41-8.06.47-13.05-.3-.75-.12-1.51-.25-2.28-.4-7.25-1.44-11.86-3.42-14.72-5.11-.42-.74-.78-1.5-1.07-2.24,2.4,1.76,7.18,4.34,16.04,6.11,6.54,1.32,12.22,1.11,16.55.46Z"/>
                <path class="cls-22" d="M41.29,20.28c-.52.39-1.05.75-1.59,1.06-3.11.2-6.66.11-10.54-.49-.72-.11-1.46-.24-2.21-.39-5.42-1.08-9.36-2.46-12.18-3.79-.51-.58-.97-1.18-1.36-1.78,2.79,1.56,7.14,3.33,13.74,4.64,5.39,1.09,10.2,1.13,14.16.76Z"/>
              </g>
              <path class="cls-23" d="M48.96,10.61c0,.11-.05.25-.12.4,0,.01-.01.02-.01.04,0,.01-.01.02-.01.03-.16.32-.41.7-.63,1.02-.11.15-.2.3-.29.44-1.77-.11-4.24,2.3-4.3,2.29-.04,0-2.53-1.86-5.14-2.18-2.61-.33-5.39,1.02-5.57.99-.16-.04-1.25-2-4.13-2.95-2.89-.96-5.39.8-5.62.78-.14-.03-.95-.79-2.06-1.59-.79-.56-1.74-1.13-2.72-1.48-2.36-.82-5.23.35-5.59.28-.36-.08-1.24-2-2.04-2.47-.22-.13-.47-.23-.73-.3-.03-.19-.06-.35-.08-.52-.08-.54-.12-.97-.13-1.29,0-.08-.01-.15-.01-.22,0-.04,0-.08,0-.11h-.01c0-.22,0-.34,0-.34,2.36.77,3.4,3.04,3.62,3.6.03.08.05.12.05.12,0,0,2.76-.8,5.62.03.84.24,1.55.59,2.14.96,1.42.9,2.1,1.93,2.1,1.93,0,0,1.72-1.44,5.27-.9,3.55.55,4.57,3.01,4.57,3.01,0,0,1.78-1.33,5.23-.93,3.44.4,5.48,2.07,5.48,2.07.1-.13.22-.25.35-.36.11-.11.24-.23.37-.32,1.81-1.5,4.42-2.03,4.42-2.03Z"/>
              <path class="cls-8" d="M37.35,22.39c-3.52,1.23-7.84,1.13-13.69-.36-4.02-1.02-6.88-3.04-8.9-5.36-.52-.58-.97-1.18-1.36-1.78-.34-.49-.63-.98-.89-1.47-.42-.74-.78-1.49-1.07-2.24-.82-2.02-1.24-3.89-1.45-5.26-.03-.19-.06-.35-.08-.52-.08-.54-.12-.97-.13-1.29,0-.08-.01-.15-.01-.22,0-.07,0-.11,0-.11,0-.22,0-.34,0-.34,2.36.77,3.4,3.04,3.62,3.6.03.08.05.12.05.12,0,0,2.76-.8,5.62.03.84.24,1.55.59,2.14.96-.06.54-.11,1.12-.12,1.74-.04,1.29.04,2.72.32,4.22,1.04,5.62,9.46,8.75,15.61,8.33.12,0,.24-.02.36-.04Z"/>
            </g>
          </g>
        </g>
      </g>
    </g>
  </g>
</svg>