<?xml version="1.0" encoding="UTF-8"?>
<svg xmlns="http://www.w3.org/2000/svg" xmlns:xlink="http://www.w3.org/1999/xlink" viewBox="0 0 35.97 45.12">
  <defs>
    <style>
      .cls-1 {
        fill: #200f3b;
      }

      .cls-2 {
        fill: url(#linear-gradient-4);
      }

      .cls-3 {
        fill: url(#linear-gradient-2);
      }

      .cls-4 {
        fill: url(#linear-gradient);
      }

      .cls-5 {
        isolation: isolate;
      }

      .cls-6 {
        fill: #202020;
        opacity: .32;
      }

      .cls-6, .cls-7, .cls-8, .cls-9, .cls-10, .cls-11, .cls-12, .cls-13 {
        mix-blend-mode: overlay;
      }

      .cls-7 {
        fill: url(#linear-gradient-8);
      }

      .cls-8 {
        fill: url(#linear-gradient-3);
      }

      .cls-9 {
        fill: url(#linear-gradient-9);
      }

      .cls-10 {
        fill: url(#linear-gradient-6);
      }

      .cls-11 {
        fill: url(#linear-gradient-5);
      }

      .cls-12 {
        fill: url(#linear-gradient-7);
      }

      .cls-13 {
        fill: url(#linear-gradient-10);
      }
    </style>
    <linearGradient id="linear-gradient" x1="136.45" y1="8.42" x2="121.26" y2="32.8" gradientTransform="translate(-107.51 -23.32) rotate(12.89)" gradientUnits="userSpaceOnUse">
      <stop offset="0" stop-color="#4e3c66"/>
      <stop offset=".03" stop-color="#4d3b64"/>
      <stop offset=".57" stop-color="#413255"/>
      <stop offset="1" stop-color="#3e3050"/>
    </linearGradient>
    <linearGradient id="linear-gradient-2" x1="151.01" y1="25.15" x2="159.8" y2="3.08" gradientTransform="translate(166.5 39.41) rotate(-167.11) scale(1 -1)" gradientUnits="userSpaceOnUse">
      <stop offset=".06" stop-color="#ffa9a8"/>
      <stop offset=".19" stop-color="#ff9c9b"/>
      <stop offset=".43" stop-color="#ff8d8c"/>
      <stop offset=".62" stop-color="#ff8887"/>
    </linearGradient>
    <linearGradient id="linear-gradient-3" x1="135.82" y1="5.22" x2="130.03" y2="32.62" gradientTransform="translate(-107.51 -23.32) rotate(12.89)" gradientUnits="userSpaceOnUse">
      <stop offset=".04" stop-color="#fff"/>
      <stop offset=".53" stop-color="#bfbfbf" stop-opacity="0"/>
    </linearGradient>
    <linearGradient id="linear-gradient-4" x1="116.68" y1="25.84" x2="142.19" y2="29.66" gradientTransform="translate(-107.51 -23.32) rotate(12.89)" gradientUnits="userSpaceOnUse">
      <stop offset=".07" stop-color="#fff"/>
      <stop offset=".17" stop-color="#f2eff4"/>
      <stop offset=".55" stop-color="#c5b9cf"/>
      <stop offset=".84" stop-color="#a997b7"/>
      <stop offset="1" stop-color="#9f8baf"/>
    </linearGradient>
    <linearGradient id="linear-gradient-5" x1="126.47" y1="24.96" x2="132.73" y2="45.52" xlink:href="#linear-gradient-3"/>
    <linearGradient id="linear-gradient-6" x1="120.39" y1="-3.8" x2="129.32" y2="12.07" xlink:href="#linear-gradient-3"/>
    <linearGradient id="linear-gradient-7" x1="41.14" y1="15.74" x2="47.73" y2="24.19" gradientTransform="translate(6.1 -22.37) rotate(40.28)" xlink:href="#linear-gradient-3"/>
    <linearGradient id="linear-gradient-8" x1="138.32" y1="10.44" x2="144.92" y2="18.89" gradientTransform="translate(-72.85 -79.86) rotate(40.28)" xlink:href="#linear-gradient-3"/>
    <linearGradient id="linear-gradient-9" x1="129.23" y1="-3.6" x2="136.06" y2="16.69" xlink:href="#linear-gradient-3"/>
    <linearGradient id="linear-gradient-10" x1="117.98" y1="1.56" x2="124.1" y2="15.13" gradientTransform="translate(-107.51 -23.32) rotate(12.89)" gradientUnits="userSpaceOnUse">
      <stop offset=".04" stop-color="#fff"/>
      <stop offset=".96" stop-color="#bfbfbf" stop-opacity="0"/>
    </linearGradient>
  </defs>
  <g class="cls-5">
    <g id="Layer_2" data-name="Layer 2">
      <g id="Layer_1-2" data-name="Layer 1">
        <g>
          <g>
            <path class="cls-4" d="M7.64,42.92c-.68,0-.85-.17-.98-.55-.02-.07-.05-.16-.1-.25-1.93-3.4-4.65-4.2-5.73-4.39-.25-.04-.39-.04-.4-.04-.08,0-.14-.04-.18-.11s-.04-.14-.01-.21c.79-1.63,1.93-1.97,2.74-1.97.29,0,.55.04.75.09-.36-1.73-.47-4.44-.31-8.06.14-3.2.5-7.16,1.05-11.77C5.43,7.69,6.67.48,6.68.41c.01-.08.06-.14.14-.17.03-.01.06-.02.08-.02.05,0,.09.01.13.04.02.01,1.83,1.32,6.6,4.28,5.34,3.32,7.35,5.67,8.04,6.7l.27-1.79c.01-.08.07-.15.15-.18.02,0,.04,0,.07,0,.06,0,.12.02.16.07.01.01,1.35,1.45,3.16,3.64,2.11,2.58,3.95,5.06,5.46,7.36,3.22,4.92,4.84,8.9,4.81,11.82-.02,1.48-.14,2.44-.21,2.88-.03.24-.06.33-.06.33-.02.07-.07.13-.14.16-.2.07-19.68,6.69-26.99,7.35-.29.02-.52.04-.7.04Z"/>
            <path class="cls-1" d="M6.9.44s1.78,1.29,6.61,4.29c7.16,4.45,8.28,7.16,8.28,7.16l.37-2.41s1.33,1.42,3.15,3.63c1.61,1.97,3.63,4.58,5.45,7.34,2.61,3.99,4.81,8.35,4.77,11.7-.02,1.42-.13,2.38-.21,2.84,0,.02,0,.04,0,.06-.03.17-.05.26-.05.26,0,0-19.57,6.67-26.94,7.34-.28.02-.51.03-.68.03-.85,0-.65-.26-.88-.68-1.99-3.51-4.82-4.31-5.88-4.5-.28-.04-.43-.05-.43-.05.74-1.51,1.77-1.85,2.54-1.85.61,0,1.06.21,1.06.21-.47-1.84-.55-4.87-.4-8.39.16-3.62.57-7.8,1.05-11.75C5.66,7.63,6.9.44,6.9.44M6.9,0c-.06,0-.11.01-.17.03-.14.06-.24.18-.27.34-.01.07-1.26,7.29-2.21,15.27-.55,4.62-.91,8.58-1.05,11.78-.15,3.42-.06,6.03.25,7.79-.14-.02-.3-.03-.47-.03-.88,0-2.1.36-2.94,2.1-.07.14-.06.3.02.42.08.13.22.21.37.21.01,0,.15,0,.37.04,1.04.18,3.69.96,5.57,4.28.04.08.06.15.08.21.17.52.47.7,1.19.7.19,0,.42-.01.72-.04,7.34-.67,26.24-7.09,27.04-7.37.15-.05.25-.17.29-.32,0,0,.02-.1.05-.28,0-.02,0-.06,0-.09.08-.49.19-1.45.21-2.88.03-2.97-1.6-6.99-4.84-11.95-1.52-2.32-3.37-4.8-5.48-7.38-1.81-2.2-3.15-3.64-3.17-3.66-.09-.09-.2-.14-.32-.14-.04,0-.09,0-.13.02-.16.05-.28.19-.31.36l-.19,1.26c-.94-1.21-3.09-3.4-7.78-6.32C8.99,1.4,7.18.1,7.16.08c-.08-.06-.17-.08-.26-.08h0Z"/>
          </g>
          <path class="cls-3" d="M8.32,42.67c-1.35-2.52-2.73-6.06-2.98-10.37-.48-8.56,1.76-25.3,3.15-26.31,4.41,3.43,11.11,16.83,11.11,16.83l-3-1.91,5.67,8.12-2.84-1.88c3.56,5.34,4.13,11.03,4.2,11.89-5.59,1.66-11.82,3.33-15.31,3.65Z"/>
          <path class="cls-6" d="M35.26,35.32s-19.57,6.67-26.94,7.34c-1.64.14-1.28-.14-1.57-.65-2.49-4.41-6.32-4.54-6.32-4.54,1.32-2.71,3.6-1.64,3.6-1.64-.47-1.84-.55-4.87-.4-8.39,2.65-1.51,5.07-1.85,5.66-1.92l-2.44.09s.68-1.55,2.67-2.08c1.99-.52,4.3.07,4.3.07,0,0-.29-.29-1.83-1.4-1.55-1.1-4.44-.36-4.44-.36,0,0,.57-1.6,2.38-2.66,1.81-1.05,5.44-1.18,5.44-1.18l-2.27-6.51s7.04,11.13,13.42,12.52c.97.21,3.48.05,4.23-3.56,2.61,3.99,4.81,8.35,4.77,11.7-.02,2.07-.26,3.16-.26,3.16Z"/>
          <path class="cls-8" d="M35.31,35.01c.05-1.62-.27-5.38-3.42-11.02-3.41-6.11-9.1-12.3-9.1-12.3l-.16,1.99s-3.13-3.36-7.16-6.23C11.45,4.6,7.69,1.82,7.69,1.82c0,0-1.37,6.82-2.46,15.9s-.53,18.9-.53,18.9c0,0-1.24-.57-2.54-.02-.49.22-.93.57-1.29.93-.28-.04-.43-.05-.43-.05,1.32-2.71,3.6-1.64,3.6-1.64-.47-1.84-.55-4.87-.4-8.39C4.14,16.41,6.9.44,6.9.44c0,0,1.78,1.29,6.61,4.29,7.16,4.45,8.28,7.16,8.28,7.16l.37-2.41s4.75,5.1,8.6,10.98c2.61,3.99,4.81,8.35,4.77,11.7-.02,1.42-.13,2.38-.21,2.84Z"/>
          <g>
            <g>
              <path class="cls-2" d="M7.17,44.96s-.05,0-.07-.02c-.05-.03-.09-.08-.09-.13l-.03-.34c-.04-.68-.07-1.93.2-2.75.28-.83,1.17-1.82,1.62-2.28-.15,0-.31-.01-.47-.01-.83,0-2.43.09-5.27.52l-.16.02s-.05.02-.07.02c-.04,0-.07-.02-.11-.05-.06-.05-.04-.15,0-.22.08-.13,1.96-3.13,3.79-3.95,1.29-.57,3.34-.87,4.47-1-1.31-.37-2.81-.55-4.47-.55-2.35,0-4.29.38-4.82.49-.02.01-.05.02-.07.02-.03,0-.06,0-.09-.03-.05-.03-.07-.09-.07-.15,0-.05.28-4.65,4.86-6.81,1.57-.74,3.15-1.12,4.68-1.12,1.09,0,1.95.19,2.5.37-1.09-1.19-2.9-1.84-2.92-1.84-.07-.02-.12-.09-.11-.17,0-.07.06-.14.13-.15.83-.17,1.66-.25,2.49-.25,1.31,0,2.27.21,2.75.34-1.31-3.28-4.77-4.52-4.8-4.53-.06-.02-.1-.08-.11-.14,0-.07.03-.13.08-.16,0,0,.02,0,.04,0h0c1.09-.5,2.16-.75,3.2-.75.81,0,1.6.15,2.35.46.88.36,1.73.94,2.51,1.72.41.76.63,1.22.63,1.22.03.07.02.15-.04.2-.03.03-.07.04-.11.04-.03,0-.06,0-.09-.03l-2.31-1.47,5.19,7.44c.05.07.04.15-.02.21-.03.03-.08.05-.12.05-.03,0-.06,0-.09-.03l-2.19-1.45c3.15,5.09,3.72,10.28,3.8,11.3,0,.08-.04.15-.12.17-.54.16-.73.34-.78.47-.02.05-.07.09-.13.09-1.81.23-4.5.67-7,1.44-4.44,1.39-7.52,3.15-8.35,3.65l-.15.1s-.06.03-.09.03Z"/>
              <path class="cls-1" d="M14.26,19.51c.8,0,1.56.15,2.29.45.87.35,1.7.92,2.46,1.68.38.72.6,1.17.6,1.17l-3.01-1.92,5.67,8.12-2.84-1.88c3.56,5.34,4.13,11.03,4.2,11.89-.51.15-.79.34-.89.56-2.1.27-4.67.72-7.03,1.45-4.58,1.44-7.69,3.25-8.39,3.67-.11.07-.16.1-.16.1,0,0-.01-.13-.03-.33-.04-.6-.07-1.88.19-2.68.36-1.08,1.84-2.47,1.84-2.47-.25-.03-.53-.04-.85-.04-2.05,0-5.22.52-5.44.55h-.01s1.92-3.07,3.72-3.88c1.8-.8,5.22-1.06,5.22-1.06-1.73-.61-3.62-.8-5.29-.8-2.6,0-4.69.46-4.87.5h-.01s.23-4.52,4.77-6.66c1.8-.85,3.37-1.11,4.61-1.11,1.75,0,2.85.51,3,.58-1.03-1.55-3.37-2.37-3.37-2.37.9-.18,1.73-.25,2.45-.25,1.86,0,3.03.44,3.03.44-1.25-3.64-5.02-4.95-5.02-4.95,0,0,.01,0,.01,0,0,0,0,0,0,0,1.09-.5,2.13-.73,3.13-.73M14.26,19.18c-1.05,0-2.13.25-3.23.75-.03.01-.07.02-.1.04-.11.07-.17.19-.15.32.01.13.1.23.22.28.03.01,3.21,1.15,4.58,4.13-.54-.13-1.39-.27-2.47-.27-.83,0-1.68.09-2.52.26-.15.03-.25.15-.26.3-.01.15.08.29.22.34.02,0,1.34.48,2.38,1.35-.51-.12-1.15-.21-1.91-.21-1.56,0-3.15.38-4.75,1.14-4.67,2.2-4.95,6.75-4.96,6.95,0,.12.06.24.16.3.05.03.11.05.17.05.04,0,.08,0,.12-.02.6-.13,2.49-.48,4.76-.48,1.29,0,2.48.11,3.56.34-1.14.16-2.61.45-3.62.89-1.88.84-3.79,3.89-3.87,4.02-.08.13-.06.3.05.41.06.06.15.1.23.1.04,0,.07,0,.11-.02l.11-.02c2.83-.43,4.41-.52,5.24-.52.03,0,.07,0,.1,0-.48.53-1.16,1.35-1.4,2.08-.28.84-.25,2.12-.21,2.81.01.22.03.35.03.35.01.11.08.21.18.27.05.02.1.03.15.03.06,0,.12-.02.18-.05l.16-.1c.83-.5,3.89-2.25,8.31-3.63,2.49-.77,5.16-1.2,6.97-1.44.11-.01.21-.09.26-.19.02-.05.14-.22.68-.38.15-.04.25-.19.24-.34-.08-.99-.61-5.84-3.45-10.75l1.58,1.04c.06.04.12.06.18.06.09,0,.17-.03.24-.1.11-.11.13-.29.03-.42l-4.72-6.76,1.61,1.02c.05.03.12.05.18.05.08,0,.16-.03.22-.08.11-.1.14-.26.08-.39,0,0-.23-.45-.61-1.18-.02-.03-.04-.06-.06-.08-.8-.8-1.66-1.39-2.57-1.75-.77-.31-1.59-.47-2.42-.47h0Z"/>
            </g>
            <path class="cls-6" d="M23.63,39.02c-.51.15-.79.34-.89.56-2.1.27-4.67.72-7.03,1.45-5.23,1.64-8.55,3.77-8.55,3.77,0,0-.01-.13-.03-.33.6-.91,1.82-2.58,3.75-4.29,2.88-2.55,6.7-2.66,6.7-2.66,0,0-4.39-.71-7.98-.59-3.49.13-6.54,2.72-6.73,2.89h-.01s1.92-3.07,3.72-3.88c1.8-.8,5.22-1.06,5.22-1.06-4.42-1.57-9.86-.37-10.16-.3.27-.24,5.1-4.29,10.47-3.18,5.54,1.13,8.35,4.26,8.35,4.26,0,0,.33-.73-.69-3.13-1.02-2.4-5.66-5.94-5.66-5.94,0,0,.65.1,2.35.73,1.69.63,2.26.99,2.23.87-.02-.12-2.64-3.12-1.69-2.85.96.26,2.14,1.05,2.14,1.05,0,0-1.32-3.56-4.62-5.17-1.58-.77-2.69-.97-3.41-.96,3.02-1.38,5.71-.76,7.88,1.39.38.72.6,1.17.6,1.17l-3.01-1.92,5.67,8.12-2.84-1.88c3.56,5.34,4.13,11.03,4.2,11.89Z"/>
            <path class="cls-11" d="M15.7,22.28c-1.96-1.28-2.73-1.48-2.73-1.48,0,0,1.66,1.16,2.59,2.35.93,1.19,1.05,2.51,1.05,2.51,0,0-1.02-.45-2.54-.54-1.53-.08-2.25.05-2.25.05,0,0,1.22.63,2.36,1.67,1.13,1.05,1.26,1.83,1.26,1.83,0,0-1.9-1.68-6.51-.81-4.6.88-6.6,5.59-6.6,5.59,0,0,2.62-2.15,6.39-2.45,3.47-.27,6.56,1.31,7.06,1.57-.51-.2-4.04-1.55-7.86-.89-4.14.71-5.68,2.59-5.68,2.59,0,0,2.7-1.02,6.75-.33,4.05.68,5.46,1.51,5.46,1.51,0,0-4.01-.42-6.92.49-2.92.91-3.97,3.42-3.97,3.42,0,0,2-1.84,4.65-2.28,2.65-.44,4.91,0,4.91,0,0,0-2.8.12-4.93.64-2.13.52-3.04,1.18-3.04,1.18,0,0,3.34-.46,5-.1,0,0-2.01,2.09-2.53,4.28-.15.6-.23,1.15-.28,1.63l-.16.1s-.01-.13-.03-.33c-.04-.6-.07-1.88.19-2.68.36-1.08,1.84-2.47,1.84-2.47-1.86-.21-6.04.47-6.29.51h-.01s1.92-3.07,3.72-3.88c1.8-.8,5.22-1.06,5.22-1.06-4.42-1.57-9.86-.37-10.16-.3h-.01s.23-4.52,4.77-6.66c4.33-2.05,7.34-.65,7.61-.53-1.03-1.55-3.37-2.37-3.37-2.37,3.22-.66,5.48.19,5.48.19-1.25-3.64-5.02-4.95-5.02-4.95t.02,0c1.96-.9,3.79-.95,5.42-.29-.56-.12-1.16-.2-1.78-.22-1.94-.04-3.14.5-3.14.5,0,0,2.18.2,4.29,1.86,1.97,1.55,2.86,3.4,2.96,3.63-.15-.25-1.36-2.25-3.19-3.45Z"/>
          </g>
          <path class="cls-1" d="M23.61,39.14c0-3.96-1.39-7.81-3.46-11.14-.1-.16.1-.36.26-.25,0,0,1.91,1.18,1.91,1.18l-.14.15c-1.59-2.38-4.03-5.72-5.73-8.08-.06-.08-.04-.19.04-.24.06-.04.14-.04.2,0l3.02,1.89-.29.26c-2.46-4.56-4.98-9.13-7.94-13.39-1-1.41-2.12-2.8-3.45-3.88,1.5.85,2.64,2.33,3.73,3.67,3.19,4.14,5.72,8.74,8.03,13.42.05.1.01.22-.09.28-.07.03-.15.03-.2-.01l-2.99-1.94.24-.25,2.77,4.1c.93,1.36,1.88,2.71,2.85,4.05.06.08-.04.2-.13.15,0,0-2-1.04-2-1.03,0,0,.25-.27.25-.27,2.21,3.21,3.68,7.57,3.13,11.34h0Z"/>
          <path class="cls-10" d="M25.31,13.12c-3.92,2.06-10.31,4.61-16.77,3.64-1.4-.21-2.68-.57-3.85-1.07C5.66,7.63,6.9.44,6.9.44c0,0,1.78,1.29,6.61,4.29,7.16,4.45,8.28,7.16,8.28,7.16l.37-2.41s1.33,1.42,3.15,3.63Z"/>
          <ellipse class="cls-12" cx="27.25" cy="17.64" rx="1.14" ry="2.37" transform="translate(-5.06 20.77) rotate(-38.46)"/>
          <ellipse class="cls-7" cx="25.84" cy="19.54" rx=".62" ry="1.26" transform="translate(-6.09 14.08) rotate(-27.39)"/>
          <path class="cls-9" d="M19.94,22.01s-2.83-5.58-6.7-11.05S7.69,4.17,7.79,3.75s6.52,2.98,10.05,6.36,5.43,5.06,5.49,4.92.19-1.51.19-1.51c0,0,4.13,5.14,7.16,9.52,3.03,4.38,2.96,6.13,2.97,6.2"/>
          <path class="cls-13" d="M5.91,22.78s1.96-15.14,2.75-15.31,5.35,6.82,6.05,10.19"/>
        </g>
      </g>
    </g>
  </g>
</svg>