<?xml version="1.0" encoding="UTF-8"?>
<svg xmlns="http://www.w3.org/2000/svg" xmlns:xlink="http://www.w3.org/1999/xlink" viewBox="0 0 49.53 17.1">
  <defs>
    <style>
      .cls-1 {
        fill: #183006;
      }

      .cls-2 {
        fill: url(#linear-gradient);
      }

      .cls-3 {
        isolation: isolate;
      }

      .cls-4 {
        fill: url(#linear-gradient-2);
      }

      .cls-4, .cls-5 {
        mix-blend-mode: overlay;
      }

      .cls-5 {
        opacity: .32;
      }
    </style>
    <linearGradient id="linear-gradient" x1="23.65" y1="21.83" x2="24.42" y2="7.57" gradientUnits="userSpaceOnUse">
      <stop offset=".15" stop-color="#53bf0b"/>
      <stop offset="1" stop-color="#2c730e"/>
    </linearGradient>
    <linearGradient id="linear-gradient-2" x1="21.87" y1="5.46" x2="20.45" y2="-3" gradientUnits="userSpaceOnUse">
      <stop offset=".04" stop-color="#fff"/>
      <stop offset=".53" stop-color="#bfbfbf" stop-opacity="0"/>
    </linearGradient>
  </defs>
  <g class="cls-3">
    <g id="Layer_2" data-name="Layer 2">
      <g id="Layer_1-2" data-name="Layer 1">
        <g>
          <g>
            <path class="cls-2" d="M21.75,17.01s-.03,0-.05-.01c0,0-1.35-.84-2.39-1.47-1.32-.3-2.62-.7-3.83-1.18-.19.85-.25.85-.32.85-.07-.01-.1-.02-1.32-1.55-1.56-.71-3.12-1.59-4.61-2.61-.05.76-.07.91-.1.96-.01.02-.06.02-.09.03,0,0,0,0,0,0-.03,0-.07-.03-.09-.04-.18-.24-.59-.93-.99-1.6l-.28-.46c-.81-.64-1.53-1.23-2.14-1.79C2.07,5.06.13,2.25.11,2.22c-.02-.03-.02-.06,0-.09.02-.03.05-.05.08-.05l3.58-.11c.1.08,2.6,3.84,7.09,7.1l1.62.48s.07.05.07.09-.03.08-.06.09l-.47.15c.63.42,1.34.84,2.15,1.28.26-.06.61-.12.91-.18.35-.06.63-.11.7-.11.09,0,.16.08.68.7.26.31.58.69.89,1.03.48.16,1.05.35,1.81.56.13-.1.34-.23.52-.34.3-.18.46-.28.55-.29h0c.18,0,.37.25.85,1.12,1.15.18,2.42.31,3.71.33.03-.12.04-.29.06-.46.03-.37.05-.72.29-.72s.79.65,1.22,1.2c2.6-.17,5.12-.74,7.44-1.71-.25-.64-.2-.75-.18-.79,0-.02.05-.06.07-.07.06-.03.28-.05.9-.13.49-.06,1.11-.13,1.63-.21,6.08-3.53,8.68-9.14,8.71-9.2L49.31.1s.02,0,.03,0c.02,0,.05,0,.07.03.03.03.03.07.02.1-.02.04-1.73,4.25-5.85,8.34-.81.79-1.57,1.46-2.34,2.06l-.08.15c-1.37,2.28-1.56,2.52-1.68,2.52-.04,0-.11-.06-.12-.09-.11-.18-.2-.78-.23-1.06-1.11.71-2.3,1.34-3.54,1.88-.77,1.48-.8,1.48-.88,1.48-.07,0-.11,0-.54-.91-1.15.42-2.36.76-3.59,1.01-.18.37-.62,1.12-.69,1.23-.02.03-.07.05-.1.05-.18,0-.68-.54-1.07-1-.53.12-1.15.19-1.79.24-.62.04-1.22.07-1.82.07-1.17,0-2.36-.08-3.55-.25l.28.95s0,.08-.03.1c-.02.01-.04.02-.06.02Z"/>
            <path class="cls-1" d="M49.35.19c-.1.25-1.83,4.34-5.83,8.31h-.01c-.7.69-1.47,1.39-2.32,2.05-.54.9-1.58,2.65-1.71,2.65-.01,0-.03-.02-.04-.04-.1-.17-.2-.81-.24-1.18-1.11.72-2.33,1.38-3.65,1.95-.35.65-.8,1.47-.84,1.47s-.31-.55-.49-.93c-1.15.42-2.37.77-3.66,1.04-.24.41-.68,1.16-.75,1.27,0,0-.01.01-.02.01-.13,0-.67-.59-1-.97-.61.09-1.23.16-1.87.21-.61.04-1.22.07-1.82.07-1.27,0-2.49-.1-3.67-.27l.32,1.09s-1.35-.84-2.39-1.47c-1.38-.32-2.7-.73-3.95-1.23-.07.33-.21.88-.25.88-.04-.01-.74-.88-1.25-1.52-1.74-.8-3.33-1.73-4.76-2.72-.03.44-.07,1.03-.1,1.08-.01,0-.02-.01-.05-.04v-.02c-.2-.25-.79-1.25-1.25-2.01,0-.02-.02-.03-.03-.05-.76-.58-1.48-1.17-2.13-1.76C2.1,4.97.19,2.17.19,2.17l3.58-.11s2.48,3.77,7.03,7.08l1.08.32.57.17-.65.21c.72.49,1.5.95,2.32,1.39.68-.11,1.53-.28,1.65-.28,0,0,0,0,0,0,.08.01.81.95,1.49,1.7.6.22,1.22.41,1.85.59.48-.26.98-.61,1.11-.63,0,0,0,0,0,0,.14,0,.49.6.75,1.07,1.23.23,2.52.36,3.86.38.13-.33.03-1.19.28-1.19.19,0,.78.69,1.15,1.16,2.92-.15,5.45-.79,7.63-1.72-.13-.33-.29-.79-.19-.83.11-.05,1.5-.17,2.51-.33,6.21-3.6,8.78-9.25,8.78-9.25l4.34-1.71M49.35,0s-.05,0-.07.01l-4.34,1.71s-.08.05-.1.1c-.03.06-2.61,5.62-8.67,9.15-.51.08-1.12.15-1.61.21-.68.08-.84.1-.92.13-.19.08-.19.3.03.9-2.26.94-4.71,1.49-7.31,1.63-.92-1.16-1.15-1.16-1.24-1.16-.32,0-.35.41-.38.81,0,.13-.02.27-.04.38-1.23-.03-2.44-.15-3.6-.36-.49-.86-.67-1.09-.87-1.09-.14.02-.29.11-.62.31-.16.1-.34.21-.52.31-.69-.2-1.23-.37-1.72-.55-.3-.33-.6-.69-.86-1-.56-.67-.61-.72-.72-.73,0,0,0,0,0,0-.11,0-.29.03-.73.11-.28.05-.61.11-.91.16-.72-.39-1.35-.76-1.93-1.14l.28-.09c.08-.02.13-.1.13-.18,0-.08-.05-.15-.13-.18l-.57-.17-1.05-.31C6.43,5.72,3.94,1.99,3.92,1.95c-.03-.05-.09-.08-.15-.08,0,0,0,0,0,0l-3.58.11c-.07,0-.13.04-.16.1-.03.06-.03.13.01.19.02.03,1.96,2.85,5.43,5.92.61.56,1.32,1.14,2.11,1.75,0,0,0,0,0,0l.28.47c.38.64.78,1.3.96,1.54,0,.03.02.05.04.07.04.04.09.09.18.09.07,0,.13-.03.16-.09.03-.06.05-.12.1-.84,1.43.97,2.94,1.82,4.48,2.53,1.21,1.52,1.24,1.53,1.32,1.55.01,0,.02,0,.04,0,.15,0,.22-.06.39-.81,1.18.46,2.44.85,3.74,1.15,1.04.63,2.36,1.45,2.36,1.45.03.02.06.03.1.03.04,0,.08-.01.11-.04.06-.05.09-.13.07-.2l-.24-.81c1.14.15,2.29.23,3.42.23.61,0,1.22-.02,1.83-.07.61-.05,1.19-.11,1.78-.2.83.96,1,.96,1.07.96.06,0,.14-.04.17-.09.07-.11.47-.79.72-1.21,1.19-.25,2.34-.58,3.45-.97.42.88.46.88.59.88.14,0,.16,0,.97-1.51,1.17-.51,2.31-1.11,3.37-1.78.04.31.12.78.23.96.03.06.1.13.2.13.16,0,.23,0,1.76-2.56l.09-.15c.75-.58,1.5-1.24,2.28-2.02.01,0,.03-.02.04-.03C47.78,4.52,49.5.3,49.52.25c.03-.07.01-.15-.04-.2-.04-.04-.08-.05-.13-.05h0ZM49.35.37h0,0Z"/>
          </g>
          <path class="cls-5" d="M49.36.18s-2.34,5.78-8.17,10.37c-.54.9-1.58,2.65-1.71,2.65-.01,0-.03-.02-.04-.04.76-.93.91-2.81.13-2.81-.87,0-5.18,2.82-7.5,3.6-2.32.79-9.81,1.45-15.02-.59-5.22-2.05-7.93-3.95-8.22-3.59-.24.3.07,1.69.17,2.11-.2-.26-.82-1.29-1.28-2.06C2.88,6.12.19,2.17.19,2.17l3.58-.11s2.48,3.77,7.03,7.08l1.65.49-.65.21c.72.49,1.5.95,2.32,1.39.7-.11,1.58-.29,1.66-.28.08.01.81.95,1.49,1.7.6.22,1.22.41,1.85.59.48-.26.98-.61,1.11-.63.14-.02.49.59.76,1.07,1.23.23,2.52.36,3.86.38.13-.33.03-1.19.28-1.19.19,0,.78.69,1.15,1.16,2.92-.15,5.45-.79,7.63-1.72-.13-.33-.29-.79-.19-.83.11-.05,1.5-.17,2.51-.33,6.21-3.6,8.78-9.25,8.78-9.25l4.35-1.72Z"/>
          <path class="cls-4" d="M43.3,8.53c-.96.73-2.29,1.82-2.29,1.82,0,0-1.33,2.24-1.41,2.29-.08.06-.18-1.13-.18-1.13,0,0-.24.14-1.14.71-.89.57-2.9,1.48-2.9,1.48,0,0-.67,1.03-.69,1.03,0-.02-.22-.67-.25-.68-.06,0-.63.28-1.82.61-1.22.35-2.18.59-2.18.59,0,0-.7,1.03-.78,1.05-.1,0-.59-.75-.67-.78-.09-.04-1.09.25-3.34.31-2.25.05-4.5-.31-4.5-.31,0,0-.01.6-.03.62-.05,0-1.52-.87-1.56-.89-.04-.03-.97-.21-2.34-.63-1.37-.43-1.85-.85-1.85-.85,0,0-.34.77-.39.77-.07,0-.9-1.2-.97-1.25s-.9-.35-2.34-1.11c-1.43-.76-2.61-1.67-2.61-1.67,0,0-.13.73-.16.79-.07,0-.81-1.29-.95-1.54.38-.2.98-.51,1.13-.51.22,0,1.6.2,1.77.22.09.01.58,0,1.03-.01l-1.08-.32C6.25,5.83,3.77,2.06,3.77,2.06l-3.58.11s1.91,2.8,5.4,5.89c.65.59,1.37,1.18,2.13,1.76.46.77,1.08,1.8,1.28,2.06v.02s.04.04.05.04c.03-.05.07-.64.1-1.08,1.43.99,3.02,1.92,4.76,2.72.51.64,1.21,1.51,1.25,1.52.04,0,.18-.55.25-.88,1.25.5,2.57.91,3.95,1.23,1.04.63,2.39,1.47,2.39,1.47l-.32-1.09c1.74.25,3.57.34,5.49.2.64-.05,1.26-.12,1.87-.21.35.41.95,1.06,1.02.96.07-.11.51-.86.75-1.27,1.29-.27,2.51-.62,3.66-1.04.18.38.45.93.49.93s.49-.82.84-1.47c1.32-.57,2.54-1.23,3.65-1.95.04.37.14,1.01.24,1.18.01.02.03.04.04.04.13,0,1.17-1.75,1.71-2.65.85-.66,1.62-1.36,2.32-2.05-.06-.04-.13-.03-.21.03Z"/>
        </g>
      </g>
    </g>
  </g>
</svg>